<svg width="17" height="17" viewBox="0 0 17 17" fill="none" xmlns="http://www.w3.org/2000/svg">
<path d="M15.9972 1.22273C15.674 0.899526 15.2464 0.719971 14.7926 0.719971C14.6979 0.719971 14.6326 0.7265 14.5445 0.736294C12.3996 1.06929 10.3886 1.98665 8.75301 3.36759C8.68119 3.42309 8.59957 3.44921 8.51795 3.45247C8.51143 3.45247 8.5049 3.45247 8.50163 3.45247C8.49837 3.45247 8.48857 3.45247 8.48531 3.45247C8.40696 3.45247 8.32861 3.42962 8.27311 3.38392C6.60814 1.98665 4.59712 1.07255 2.44246 0.739559C1.99194 0.67753 1.54142 0.795057 1.17905 1.06929C0.813405 1.34025 0.578351 1.7418 0.516323 2.19232C0.506529 2.27067 0.5 2.34903 0.5 2.42738V12.2637C0.5 13.1125 1.13334 13.8373 1.97888 13.9483C3.99316 14.2029 5.8736 15.0289 7.44389 16.3576C7.74424 16.5894 8.10335 16.7069 8.46572 16.7167C8.47551 16.7167 8.48857 16.72 8.49837 16.72C8.50816 16.72 8.52122 16.72 8.53101 16.7167C8.89012 16.7102 9.24923 16.5926 9.55285 16.3576C9.55937 16.3511 9.56917 16.3445 9.5757 16.3413C11.1231 15.0322 13.0068 14.2029 15.0211 13.9516C15.8634 13.8406 16.4967 13.1158 16.4967 12.267V2.43064C16.4967 1.97359 16.3204 1.54592 15.9972 1.22273ZM2.14538 12.6522C1.95276 12.6261 1.80586 12.4596 1.80586 12.2637V2.42738C1.80586 2.40779 1.80586 2.39147 1.80912 2.37188C1.82218 2.26741 1.87768 2.17274 1.96582 2.10744C2.03765 2.05194 2.12253 2.02583 2.20414 2.02583C2.22047 2.02583 2.23679 2.02583 2.25311 2.02583C4.16293 2.31964 5.95195 3.1358 7.44715 4.39922C7.57121 4.49389 7.70506 4.56572 7.84544 4.62448V15.006C6.187 13.7263 4.22822 12.9101 2.14538 12.649V12.6522ZM15.1876 12.2637C15.1876 12.4596 15.0407 12.6261 14.8514 12.6522C12.7653 12.9134 10.8097 13.7296 9.1513 15.0093V4.62448C9.2982 4.56572 9.44185 4.48736 9.57243 4.38616C11.0481 3.13907 12.8338 2.32291 14.7338 2.02909C14.7502 2.02909 14.7697 2.02583 14.7861 2.02583C14.9003 2.03236 14.995 2.06827 15.0701 2.14335C15.1452 2.21844 15.1876 2.31964 15.1876 2.42738V12.2637Z" fill="#494746"/>
</svg>
