<svg width="48" height="48" viewBox="0 0 48 48" fill="none" xmlns="http://www.w3.org/2000/svg">
<path fill-rule="evenodd" clip-rule="evenodd" d="M3.91839 21.9217C3.97318 24.1178 4.52499 26.2731 5.53248 28.2255C6.54349 30.1847 7.98687 31.8882 9.75341 33.2073C10.1764 33.5232 10.4541 33.9964 10.5234 34.5197C10.8009 36.6135 10.3353 38.6189 9.34186 40.5355C9.67988 40.4169 10.0216 40.2975 10.3643 40.1782C12.2662 39.5164 14.2156 38.8545 15.7595 38.3672C16.5283 38.1246 17.2197 37.918 17.7637 37.7758C18.0329 37.7054 18.2953 37.643 18.5272 37.6007C18.6424 37.5796 18.7768 37.5586 18.9162 37.5464C19.0239 37.537 19.2727 37.5187 19.5601 37.5694L19.2196 39.4988L19.5924 37.5754C21.0494 37.8578 22.5287 38.0098 24.0126 38.0294C35.4735 38.0238 44.0816 30.4458 44.0816 21.9445C44.0816 13.4434 35.5496 5.91837 24 5.91837C12.4607 5.91837 3.93362 13.4299 3.91839 21.9217ZM19.1301 41.4756C20.7288 41.769 22.3495 41.9269 23.9751 41.9476L24 41.9478C36.8659 41.9478 48 33.3062 48 21.9445C48 10.5795 36.9402 2 24 2C11.0598 2 0 10.5795 0 21.9445C0 21.9597 0.000178201 21.975 0.000534719 21.9903C0.0659203 24.7884 0.76689 27.535 2.0504 30.0223C3.19227 32.2351 4.76859 34.1911 6.68172 35.7749C6.64894 37.8876 5.31716 40.3363 2.20409 43.2632C1.52614 43.9007 1.3901 44.927 1.87859 45.7191C2.36707 46.5111 3.3453 46.8502 4.21921 46.5305L3.54612 44.6906C4.21921 46.5305 4.21921 46.5305 4.21921 46.5305L4.22165 46.5296L4.38226 46.471C4.48927 46.432 4.64664 46.3747 4.84743 46.3018C5.24904 46.1559 5.82426 45.9476 6.51777 45.6981C7.90536 45.1989 9.76397 44.5359 11.652 43.8789C13.5436 43.2207 15.4501 42.5737 16.9387 42.104C17.6861 41.8681 18.305 41.6843 18.7548 41.5667C18.9143 41.525 19.0382 41.4954 19.1301 41.4756Z" fill="#494746"/>
<path fill-rule="evenodd" clip-rule="evenodd" d="M25.8231 9.8139C26.0413 8.7541 27.0773 8.07185 28.1371 8.29004C35.4071 9.78681 41.2996 15.2716 41.2996 22.3363C41.2996 22.3574 41.2993 22.3784 41.2986 22.3994C41.2283 24.5819 40.6378 26.7161 39.5763 28.6245C38.5148 30.5328 37.013 32.16 35.1957 33.3708C34.2953 33.9708 33.0789 33.7272 32.479 32.8267C31.879 31.9263 32.1226 30.7099 33.0231 30.11C34.3211 29.2451 35.3938 28.0828 36.1521 26.7197C36.9051 25.3659 37.3263 23.8529 37.3812 22.305C37.3634 17.6658 33.3858 13.3712 27.347 12.1279C26.2872 11.9097 25.6049 10.8737 25.8231 9.8139Z" fill="#494746"/>
</svg>
