<svg width="48" height="48" viewBox="0 0 48 48" fill="none" xmlns="http://www.w3.org/2000/svg">
<path fill-rule="evenodd" clip-rule="evenodd" d="M8.89796 3.91837C8.63816 3.91837 8.38899 4.02157 8.20528 4.20528C8.02157 4.38899 7.91837 4.63816 7.91837 4.89796V8.81633H39.2653V4.89796C39.2653 4.63816 39.1621 4.38899 38.9784 4.20528C38.7947 4.02157 38.5455 3.91837 38.2857 3.91837H8.89796ZM5.43458 1.43458C6.35312 0.516034 7.59894 0 8.89796 0H38.2857C39.5847 0 40.8305 0.516034 41.7491 1.43458C42.6676 2.35312 43.1837 3.59894 43.1837 4.89796V10.7755C43.1837 11.8575 42.3065 12.7347 41.2245 12.7347H5.95918C4.87716 12.7347 4 11.8575 4 10.7755V4.89796C4 3.59894 4.51603 2.35312 5.43458 1.43458Z" fill="#494746"/>
<path fill-rule="evenodd" clip-rule="evenodd" d="M6.93878 10.7755C6.93878 9.69348 7.81593 8.81633 8.89796 8.81633H38.2857C39.3677 8.81633 40.2449 9.69348 40.2449 10.7755V40.1633C40.2449 42.2417 39.4192 44.235 37.9496 45.7047C36.4799 47.1743 34.4866 48 32.4082 48H14.7755C12.6971 48 10.7038 47.1743 9.2341 45.7047C7.76443 44.235 6.93878 42.2417 6.93878 40.1633V10.7755ZM10.8571 12.7347V40.1633C10.8571 41.2025 11.27 42.1991 12.0048 42.934C12.7396 43.6688 13.7363 44.0816 14.7755 44.0816H32.4082C33.4474 44.0816 34.444 43.6688 35.1789 42.934C35.9137 42.1991 36.3265 41.2025 36.3265 40.1633V12.7347H10.8571Z" fill="#494746"/>
<path fill-rule="evenodd" clip-rule="evenodd" d="M23.5918 22.0408C24.6739 22.0408 25.551 22.918 25.551 24V32.8163C25.551 33.8984 24.6739 34.7755 23.5918 34.7755C22.5098 34.7755 21.6327 33.8984 21.6327 32.8163V24C21.6327 22.918 22.5098 22.0408 23.5918 22.0408Z" fill="#494746"/>
<path fill-rule="evenodd" clip-rule="evenodd" d="M17.2245 28.4082C17.2245 27.3261 18.1016 26.449 19.1837 26.449H28C29.082 26.449 29.9592 27.3261 29.9592 28.4082C29.9592 29.4902 29.082 30.3673 28 30.3673H19.1837C18.1016 30.3673 17.2245 29.4902 17.2245 28.4082Z" fill="#494746"/>
</svg>
