<svg width="48" height="48" viewBox="0 0 48 48" fill="none" xmlns="http://www.w3.org/2000/svg">
<g clip-path="url(#clip0_23_71)">
<path fill-rule="evenodd" clip-rule="evenodd" d="M31.3469 23.0204C26.7483 23.0204 23.0204 26.7483 23.0204 31.3469C23.0204 35.9456 26.7483 39.6735 31.3469 39.6735C35.9456 39.6735 39.6735 35.9456 39.6735 31.3469C39.6735 26.7483 35.9456 23.0204 31.3469 23.0204ZM19.102 31.3469C19.102 24.5843 24.5843 19.102 31.3469 19.102C38.1096 19.102 43.5918 24.5843 43.5918 31.3469C43.5918 38.1096 38.1096 43.5918 31.3469 43.5918C24.5843 43.5918 19.102 38.1096 19.102 31.3469Z" fill="#494746"/>
<path fill-rule="evenodd" clip-rule="evenodd" d="M37.2339 37.2362C37.9989 36.471 39.2394 36.4708 40.0046 37.2359L47.426 44.6553C48.1912 45.4203 48.1914 46.6608 47.4264 47.426C46.6613 48.1912 45.4209 48.1914 44.6556 47.4264L37.2343 40.0069C36.469 39.2419 36.4689 38.0014 37.2339 37.2362Z" fill="#494746"/>
<path fill-rule="evenodd" clip-rule="evenodd" d="M1.43458 1.43458C2.35312 0.516033 3.59894 0 4.89796 0H40.1633C41.4623 0 42.7081 0.516034 43.6266 1.43458C44.5452 2.35312 45.0612 3.59894 45.0612 4.89796V16.6531C45.0612 17.7351 44.1841 18.6122 43.102 18.6122C42.02 18.6122 41.1429 17.7351 41.1429 16.6531V4.89796C41.1429 4.63816 41.0396 4.38899 40.8559 4.20528C40.6722 4.02157 40.4231 3.91837 40.1633 3.91837H4.89796C4.63816 3.91837 4.38899 4.02157 4.20528 4.20528C4.02157 4.38899 3.91837 4.63816 3.91837 4.89796V37.2245C3.91837 37.4843 4.02157 37.7335 4.20528 37.9172C4.38899 38.1009 4.63816 38.2041 4.89796 38.2041H19.5918C20.6739 38.2041 21.551 39.0812 21.551 40.1633C21.551 41.2453 20.6739 42.1224 19.5918 42.1224H4.89796C3.59894 42.1224 2.35312 41.6064 1.43458 40.6879C0.516034 39.7693 0 38.5235 0 37.2245V4.89796C0 3.59894 0.516034 2.35312 1.43458 1.43458Z" fill="#494746"/>
<path fill-rule="evenodd" clip-rule="evenodd" d="M0 10.7755C0 9.69348 0.877156 8.81633 1.95918 8.81633H43.102C44.1841 8.81633 45.0612 9.69348 45.0612 10.7755C45.0612 11.8575 44.1841 12.7347 43.102 12.7347H1.95918C0.877156 12.7347 0 11.8575 0 10.7755Z" fill="#494746"/>
<path fill-rule="evenodd" clip-rule="evenodd" d="M5.87755 19.5918C5.87755 18.5098 6.75471 17.6327 7.83673 17.6327H19.5918C20.6739 17.6327 21.551 18.5098 21.551 19.5918C21.551 20.6739 20.6739 21.551 19.5918 21.551H7.83673C6.75471 21.551 5.87755 20.6739 5.87755 19.5918Z" fill="#494746"/>
<path fill-rule="evenodd" clip-rule="evenodd" d="M5.87755 25.4694C5.87755 24.3874 6.75471 23.5102 7.83673 23.5102H13.7143C14.7963 23.5102 15.6735 24.3874 15.6735 25.4694C15.6735 26.5514 14.7963 27.4286 13.7143 27.4286H7.83673C6.75471 27.4286 5.87755 26.5514 5.87755 25.4694Z" fill="#494746"/>
<path fill-rule="evenodd" clip-rule="evenodd" d="M5.87755 31.3469C5.87755 30.2649 6.75471 29.3878 7.83673 29.3878H13.7143C14.7963 29.3878 15.6735 30.2649 15.6735 31.3469C15.6735 32.429 14.7963 33.3061 13.7143 33.3061H7.83673C6.75471 33.3061 5.87755 32.429 5.87755 31.3469Z" fill="#494746"/>
</g>
<defs>
<clipPath id="clip0_23_71">
<rect width="48" height="48" fill="white"/>
</clipPath>
</defs>
</svg>
