<svg width="17" height="17" viewBox="0 0 17 17" fill="none" xmlns="http://www.w3.org/2000/svg">
<g clip-path="url(#clip0_6842_1147)">
<path fill-rule="evenodd" clip-rule="evenodd" d="M2.13265 2.10718C2.04605 2.10718 1.963 2.14158 1.90176 2.20282C1.84052 2.26406 1.80612 2.34711 1.80612 2.43371V4.71942H15.1939V2.43371C15.1939 2.34711 15.1595 2.26406 15.0982 2.20282C15.037 2.14158 14.9539 2.10718 14.8673 2.10718H2.13265ZM0.978193 1.27925C1.28437 0.973069 1.69965 0.801058 2.13265 0.801058H14.8673C15.3004 0.801058 15.7156 0.973069 16.0218 1.27925C16.328 1.58543 16.5 2.0007 16.5 2.43371V5.37249C16.5 5.73316 16.2076 6.02555 15.8469 6.02555H1.15306C0.792385 6.02555 0.5 5.73316 0.5 5.37249V2.43371C0.5 2.0007 0.672011 1.58543 0.978193 1.27925Z" fill="#494746"/>
<path fill-rule="evenodd" clip-rule="evenodd" d="M1.15306 6.67861C1.51374 6.67861 1.80612 6.97099 1.80612 7.33167V14.1888C1.80612 14.2754 1.84053 14.3585 1.90176 14.4197C1.963 14.4809 2.04605 14.5153 2.13265 14.5153H8.5C8.86068 14.5153 9.15306 14.8077 9.15306 15.1684C9.15306 15.5291 8.86068 15.8215 8.5 15.8215H2.13265C1.69965 15.8215 1.28438 15.6495 0.978193 15.3433C0.672011 15.0371 0.5 14.6218 0.5 14.1888V7.33167C0.5 6.97099 0.792385 6.67861 1.15306 6.67861Z" fill="#494746"/>
<path fill-rule="evenodd" clip-rule="evenodd" d="M15.8469 6.67861C16.2076 6.67861 16.5 6.97099 16.5 7.33167V8.80106C16.5 9.16173 16.2076 9.45412 15.8469 9.45412C15.4863 9.45412 15.1939 9.16173 15.1939 8.80106V7.33167C15.1939 6.97099 15.4863 6.67861 15.8469 6.67861Z" fill="#494746"/>
<path fill-rule="evenodd" clip-rule="evenodd" d="M6.20941 0.820557C6.55932 0.908033 6.77206 1.2626 6.68458 1.61251L5.70499 5.53088C5.61751 5.88078 5.26294 6.09352 4.91304 6.00605C4.56313 5.91857 4.35039 5.564 4.43787 5.2141L5.41746 1.29573C5.50493 0.945822 5.8595 0.73308 6.20941 0.820557Z" fill="#494746"/>
<path fill-rule="evenodd" clip-rule="evenodd" d="M12.087 0.820557C12.4369 0.908033 12.6496 1.2626 12.5621 1.61251L11.5825 5.53088C11.4951 5.88078 11.1405 6.09352 10.7906 6.00605C10.4407 5.91857 10.2279 5.564 10.3154 5.2141L11.295 1.29573C11.3825 0.945822 11.7371 0.73308 12.087 0.820557Z" fill="#494746"/>
<path fill-rule="evenodd" clip-rule="evenodd" d="M10.8484 9.76699C11.0244 9.66736 11.2237 9.61623 11.426 9.61881C11.6281 9.6214 11.826 9.67758 11.9994 9.78162L15.9452 12.149C16.1144 12.2505 16.2545 12.3943 16.3517 12.566C16.4489 12.7377 16.5 12.9316 16.5 13.1289C16.5 13.3262 16.4489 13.5201 16.3517 13.6918C16.2545 13.8635 16.1145 14.0071 15.9454 14.1087L11.9995 16.4761C11.8262 16.5801 11.6281 16.6364 11.426 16.639C11.2237 16.6416 11.0244 16.5904 10.8484 16.4908C10.6724 16.3912 10.5259 16.2466 10.4241 16.0719C10.3222 15.8972 10.2685 15.6985 10.2685 15.4963V10.7615C10.2685 10.5593 10.3222 10.3606 10.4241 10.1859C10.5259 10.0112 10.6724 9.86662 10.8484 9.76699ZM11.5746 11.0499V15.2079L15.0398 13.1289L11.5746 11.0499Z" fill="#494746"/>
</g>
<defs>
<clipPath id="clip0_6842_1147">
<rect width="16" height="16" fill="white" transform="translate(0.5 0.719971)"/>
</clipPath>
</defs>
</svg>
