<svg width="100" height="100" viewBox="0 0 100 100" fill="none" xmlns="http://www.w3.org/2000/svg">
<g clip-path="url(#clip0_15522_31004)">
<rect x="11" y="9" width="82" height="82" rx="41" fill="#F9F9F9"/>
<path d="M87.5 15.8709H83.25C83.1174 15.8709 82.9902 15.8182 82.8964 15.7244C82.8027 15.6306 82.75 15.5035 82.75 15.3709V13.8809C82.75 13.1515 82.4603 12.452 81.9445 11.9363C81.4288 11.4206 80.7293 11.1309 80 11.1309H76C75.2707 11.1309 74.5712 11.4206 74.0555 11.9363C73.5397 12.452 73.25 13.1515 73.25 13.8809V15.3709C73.25 15.5035 73.1973 15.6306 73.1036 15.7244C73.0098 15.8182 72.8826 15.8709 72.75 15.8709H68.5C67.837 15.8709 67.2011 16.1343 66.7322 16.6031C66.2634 17.0719 66 17.7078 66 18.3709V30.3709C66 31.0339 66.2634 31.6698 66.7322 32.1386C67.2011 32.6075 67.837 32.8709 68.5 32.8709H87.5C87.8283 32.8709 88.1534 32.8062 88.4567 32.6806C88.76 32.5549 89.0356 32.3708 89.2678 32.1386C89.4999 31.9065 89.6841 31.6309 89.8097 31.3276C89.9353 31.0243 90 30.6992 90 30.3709V18.3709C90 18.0426 89.9353 17.7175 89.8097 17.4142C89.6841 17.1108 89.4999 16.8352 89.2678 16.6031C89.0356 16.3709 88.76 16.1868 88.4567 16.0612C88.1534 15.9355 87.8283 15.8709 87.5 15.8709ZM75.75 13.8709C75.7526 13.8063 75.7801 13.7453 75.8267 13.7005C75.8733 13.6558 75.9354 13.6308 76 13.6309H80C80.0663 13.6309 80.1299 13.6572 80.1768 13.7041C80.2237 13.751 80.25 13.8146 80.25 13.8809V15.3709C80.25 15.5035 80.1973 15.6306 80.1036 15.7244C80.0098 15.8182 79.8826 15.8709 79.75 15.8709H76.25C76.1174 15.8709 75.9902 15.8182 75.8964 15.7244C75.8027 15.6306 75.75 15.5035 75.75 15.3709V13.8709ZM82.5 25.8709C82.5 26.0035 82.4473 26.1306 82.3536 26.2244C82.2598 26.3182 82.1326 26.3709 82 26.3709H80C79.8674 26.3709 79.7402 26.4235 79.6464 26.5173C79.5527 26.6111 79.5 26.7383 79.5 26.8709V28.8709C79.5 29.0035 79.4473 29.1306 79.3536 29.2244C79.2598 29.3182 79.1326 29.3709 79 29.3709H77C76.8674 29.3709 76.7402 29.3182 76.6464 29.2244C76.5527 29.1306 76.5 29.0035 76.5 28.8709V26.8709C76.5 26.7383 76.4473 26.6111 76.3536 26.5173C76.2598 26.4235 76.1326 26.3709 76 26.3709H74C73.8674 26.3709 73.7402 26.3182 73.6464 26.2244C73.5527 26.1306 73.5 26.0035 73.5 25.8709V23.8709C73.5 23.7383 73.5527 23.6111 73.6464 23.5173C73.7402 23.4235 73.8674 23.3709 74 23.3709H76C76.1326 23.3709 76.2598 23.3182 76.3536 23.2244C76.4473 23.1306 76.5 23.0035 76.5 22.8709V20.8709C76.5 20.7383 76.5527 20.6111 76.6464 20.5173C76.7402 20.4235 76.8674 20.3709 77 20.3709H79C79.1326 20.3709 79.2598 20.4235 79.3536 20.5173C79.4473 20.6111 79.5 20.7383 79.5 20.8709V22.8709C79.5 23.0035 79.5527 23.1306 79.6464 23.2244C79.7402 23.3182 79.8674 23.3709 80 23.3709H82C82.1326 23.3709 82.2598 23.4235 82.3536 23.5173C82.4473 23.6111 82.5 23.7383 82.5 23.8709V25.8709Z" fill="#064B70"/>
<path fill-rule="evenodd" clip-rule="evenodd" d="M28.1622 43.7492C31.0667 45.4999 33.9205 46.3457 35.2601 46.0004C38.6193 45.1345 38.9281 32.8458 36.329 28.0011C33.7298 23.1565 20.3681 21.0449 19.6946 30.6437C19.4608 33.9751 20.8597 36.9481 22.9265 39.3741L19.2206 56.6469H29.9853L28.1622 43.7492Z" fill="#B28B67"/>
<path fill-rule="evenodd" clip-rule="evenodd" d="M15.0014 27.4491C14.6537 27.1046 14.4641 26.6128 14.3 26.1458C14.1296 25.6607 13.9641 25.1706 13.8509 24.6657C13.6249 23.6569 13.6228 22.4967 14.3425 21.7133C14.9197 21.0851 15.7857 20.8034 16.585 20.7421C17.1175 20.7013 17.6644 20.7759 18.1749 20.9437C18.6814 21.1102 19.1179 21.4419 19.6089 21.6479C19.6277 20.5607 19.8139 19.4231 20.3655 18.4949C20.8962 17.6017 21.7424 17.1005 22.7061 16.9679C23.6952 16.8318 24.6719 17.0633 25.5574 17.5421C25.7791 17.662 25.9987 17.7877 26.2089 17.9299C26.3849 18.0489 26.5679 18.1923 26.7744 18.2408C27.0046 18.2948 27.1187 18.1619 27.2683 17.9939C27.4437 17.797 27.6413 17.6236 27.8505 17.4698C28.7752 16.7901 29.9885 16.5106 31.0599 16.918C31.5535 17.1058 32.0335 17.4246 32.3684 17.8639C32.6669 18.2555 32.8799 18.8766 33.2919 19.1495C33.4667 19.2653 33.5902 19.1118 33.7494 18.9984C33.9885 18.828 34.2165 18.64 34.4585 18.4742C34.7985 18.2414 35.1665 18.0672 35.5606 17.976C36.1376 17.8425 36.935 17.8738 37.0999 18.6295C37.1619 18.9133 37.1144 19.2169 37.0944 19.5029C37.0669 19.8956 37.0383 20.2882 37.0042 20.6803C36.9783 20.9781 36.9455 21.2656 36.8894 21.558C36.8594 21.7138 36.7656 22.0044 36.8324 22.1605C36.9159 22.3555 37.3014 22.2446 37.4661 22.2514C37.7914 22.2649 38.118 22.3219 38.4188 22.4609C38.6518 22.5686 38.8969 22.7271 38.9953 22.9942C39.0558 23.1583 39.0398 23.3269 39.0113 23.4957C38.977 23.6984 39.0162 23.8058 39.0418 24.0103C39.4786 23.7952 40.9925 23.3172 41.183 24.1001C41.2464 24.3608 41.102 24.6554 40.9918 24.8752C40.7985 25.2609 40.5452 25.6133 40.2862 25.9494C39.7459 26.6506 39.1009 27.2554 38.4069 27.7727C39.22 28.1341 39.4322 29.2003 38.7283 29.8356C38.4174 30.116 37.9995 30.1785 37.6074 30.1605C37.4639 30.154 37.2571 30.0988 37.1442 30.1238C37.0834 30.1372 37.0183 30.1887 36.9342 30.1945C36.3808 30.2324 35.7562 30.0991 35.2153 29.9763C34.2515 29.7575 33.3391 29.3009 32.5939 28.6054C32.4028 28.427 32.2449 28.3244 31.9876 28.327C31.7621 28.3293 31.541 28.3911 31.3157 28.3968C30.7197 28.412 30.1824 28.1207 29.629 27.9267C29.5951 28.6743 29.3822 29.4978 29.0764 30.1703C28.827 30.7188 28.3062 30.7985 27.7944 30.8466C26.1579 31.0006 24.5157 30.8288 22.8771 30.8311C24.4633 31.1896 26.1023 31.3374 27.6744 31.7593C28.385 31.9499 27.8424 32.4289 27.5386 32.7609C27.0382 33.3076 26.6662 33.985 26.4082 34.6987C25.6323 33.6872 24.2608 33.0208 23.0457 33.3315C21.7032 33.6748 20.7579 35.4903 21.6163 36.7956C22.1148 37.5533 23.0148 37.8458 23.7638 38.1713C23.1795 38.7788 23.0382 39.6759 22.6865 40.4316C22.5131 40.8043 22.2697 41.2256 21.8818 41.3555C21.7383 41.4036 21.57 41.4077 21.4568 41.5247C21.3166 41.6695 21.2832 41.8314 21.1041 41.9559C20.3895 42.4527 19.2732 42.4144 18.6398 41.7661C18.067 41.1797 18.216 40.2518 18.6944 39.6573C17.9329 39.3399 16.5455 38.9317 16.8482 37.7453C15.1981 37.6357 11.1917 34.9595 13.4064 33.004C12.1909 32.3171 11.0743 30.6383 11.855 29.1585C12.4562 28.0189 13.8543 27.5096 15.0014 27.4491Z" fill="#1B1B1B"/>
<path fill-rule="evenodd" clip-rule="evenodd" d="M59.3548 56.9921L75.0051 47.2874C78.9857 46.4073 82.3741 45.256 85.1702 43.8336C85.8588 43.3107 86.7582 42.2339 84.2139 42.3341C81.6697 42.4342 79.0016 42.4278 78.782 41.5697C78.5623 40.7116 80.237 39.7551 79.7074 38.5889C79.3543 37.8114 76.857 39.6392 72.2154 44.0722L57.381 49.2803L59.3548 56.9921Z" fill="#B28B67"/>
<path d="M41.5562 89.6579C42.2518 85.4887 42.2824 79.974 39.0819 70.0907C36.6596 62.6102 34.0563 54.5711 33.9515 49.0764C33.943 48.6313 33.1211 47.8472 32.7575 47.9499C28.7688 49.0764 24.221 47.1074 24.221 47.1074C20.6493 52.8519 19.2571 54.3516 18.6734 56.1184C17.953 58.299 18.4642 60.8864 17.6295 72.362C23.1106 80.7692 31.5928 87.0412 41.5562 89.6579Z" fill="#064B70"/>
<path d="M32.0489 85.8269C32.1697 85.3735 32.3142 84.9185 32.4667 84.4378C33.8513 80.0753 35.9063 73.6003 27.1075 47.1075H21.8545C20.5148 47.1075 19.946 48.0789 19.6788 48.5943C16.3922 54.9339 14.8311 60.5946 14.2145 65.9414C17.7829 74.3893 24.1018 81.3919 32.0489 85.8269Z" fill="#7ADC7E"/>
<path fill-rule="evenodd" clip-rule="evenodd" d="M26.3472 47.1258C35.9909 47.1075 52.1145 49.1389 70.786 43.1445L72.5814 52.1155C56.5336 62.4366 40.25 70.042 26.7475 65.6544C24.4883 64.9202 27.9214 58.529 26.3472 47.1258Z" fill="#7ADC7E"/>
</g>
<defs>
<clipPath id="clip0_15522_31004">
<rect width="100" height="100" fill="white"/>
</clipPath>
</defs>
</svg>
