<svg width="227" height="226" viewBox="0 0 227 226" fill="none" xmlns="http://www.w3.org/2000/svg">
<g clip-path="url(#clip0_22871_7606)">
<rect x="25.5547" y="20.5449" width="184.91" height="184.91" rx="92.455" fill="white"/>
<path d="M200.32 44.2223H196.125C195.701 42.7831 195.126 41.3924 194.411 40.0731L197.365 37.0965C197.684 36.7858 197.936 36.4138 198.106 36.0029C198.277 35.5921 198.362 35.151 198.358 34.7062C198.361 34.2616 198.275 33.8209 198.104 33.4102C197.934 32.9996 197.683 32.6274 197.365 32.3159L194.186 29.1364C193.873 28.82 193.501 28.5688 193.091 28.3974C192.681 28.226 192.24 28.1377 191.796 28.1377C191.351 28.1377 190.911 28.226 190.5 28.3974C190.09 28.5688 189.718 28.82 189.405 29.1364L186.429 32.113C185.114 31.3822 183.723 30.7999 182.28 30.3766V26.1823C182.28 25.2852 181.923 24.4249 181.289 23.7905C180.654 23.1562 179.794 22.7998 178.897 22.7998H174.387C173.49 22.7998 172.63 23.1562 171.995 23.7905C171.361 24.4249 171.005 25.2852 171.005 26.1823V30.3766C169.561 30.7999 168.17 31.3822 166.855 32.113L163.879 29.1364C163.566 28.82 163.194 28.5688 162.784 28.3974C162.373 28.226 161.933 28.1377 161.488 28.1377C161.044 28.1377 160.603 28.226 160.193 28.3974C159.783 28.5688 159.411 28.82 159.098 29.1364L155.919 32.3159C155.601 32.6274 155.35 32.9996 155.18 33.4102C155.009 33.8209 154.923 34.2616 154.926 34.7062C154.919 35.1514 155.003 35.5933 155.174 36.0045C155.345 36.4157 155.598 36.7874 155.919 37.0965L158.873 40.0731C158.158 41.3924 157.583 42.7831 157.159 44.2223H152.965C152.067 44.2223 151.207 44.5787 150.573 45.213C149.938 45.8474 149.582 46.7077 149.582 47.6048V52.1148C149.582 53.0119 149.938 53.8723 150.573 54.5066C151.207 55.1409 152.067 55.4973 152.965 55.4973H157.159C157.579 56.9379 158.154 58.329 158.873 59.6465L155.919 62.6231C155.285 63.2573 154.929 64.117 154.929 65.0134C154.929 65.9098 155.285 66.7695 155.919 67.4037L159.098 70.5833C159.741 71.2006 160.597 71.5454 161.488 71.5454C162.38 71.5454 163.236 71.2006 163.879 70.5833L166.855 67.6292C168.173 68.3479 169.564 68.9225 171.005 69.343V73.5373C171.005 74.4344 171.361 75.2948 171.995 75.9291C172.63 76.5634 173.49 76.9198 174.387 76.9198H178.897C179.794 76.9198 180.654 76.5634 181.289 75.9291C181.923 75.2948 182.28 74.4344 182.28 73.5373V69.343C183.72 68.9225 185.111 68.3479 186.429 67.6292L189.405 70.5833C189.718 70.8996 190.09 71.1508 190.5 71.3222C190.911 71.4936 191.351 71.5819 191.796 71.5819C192.24 71.5819 192.681 71.4936 193.091 71.3222C193.501 71.1508 193.873 70.8996 194.186 70.5833L197.365 67.4037C197.999 66.7695 198.355 65.9098 198.355 65.0134C198.355 64.117 197.999 63.2573 197.365 62.6231L194.411 59.6465C195.13 58.329 195.705 56.9379 196.125 55.4973H200.32C201.217 55.4973 202.077 55.1409 202.711 54.5066C203.346 53.8723 203.702 53.0119 203.702 52.1148V47.6048C203.702 46.7077 203.346 45.8474 202.711 45.213C202.077 44.5787 201.217 44.2223 200.32 44.2223ZM176.642 61.1348C174.412 61.1348 172.232 60.4735 170.378 59.2346C168.524 57.9957 167.079 56.2348 166.225 54.1746C165.372 52.1143 165.149 49.8473 165.584 47.6602C166.019 45.473 167.093 43.464 168.669 41.8872C170.246 40.3103 172.255 39.2365 174.442 38.8015C176.63 38.3664 178.897 38.5897 180.957 39.4431C183.017 40.2964 184.778 41.7416 186.017 43.5958C187.256 45.4499 187.917 47.6298 187.917 49.8598C187.917 52.8501 186.729 55.718 184.615 57.8324C182.5 59.9469 179.632 61.1348 176.642 61.1348Z" fill="#005B89"/>
<path fill-rule="evenodd" clip-rule="evenodd" d="M64.2571 98.9048C70.8066 102.852 77.2417 104.76 80.2625 103.981C87.8374 102.029 88.5338 74.3173 82.6728 63.3927C76.8117 52.468 46.6809 47.7064 45.1622 69.3516C44.635 76.8641 47.7896 83.5685 52.4504 89.0392L44.0938 127.989H68.3682L64.2571 98.9048Z" fill="#B28B67"/>
<path fill-rule="evenodd" clip-rule="evenodd" d="M34.5779 62.1467C33.7939 61.3697 33.3662 60.2607 32.9962 59.2077C32.612 58.1138 32.2387 57.0086 31.9836 55.87C31.474 53.5951 31.4691 50.9789 33.092 49.2124C34.3936 47.7958 36.3465 47.1605 38.1489 47.0224C39.3497 46.9303 40.5831 47.0985 41.7342 47.4769C42.8762 47.8523 43.8607 48.6005 44.9679 49.0648C45.0102 46.6133 45.4301 44.0481 46.6739 41.9548C47.8707 39.9407 49.7788 38.8105 51.9519 38.5115C54.1824 38.2046 56.3849 38.7265 58.3817 39.8064C58.8816 40.0768 59.3769 40.3601 59.8508 40.6807C60.2477 40.9493 60.6603 41.2726 61.1259 41.3818C61.645 41.5037 61.9023 41.2039 62.2397 40.8252C62.6353 40.3811 63.0809 39.99 63.5525 39.6433C65.6378 38.1105 68.3739 37.4803 70.7898 38.3991C71.9029 38.8224 72.9853 39.5413 73.7405 40.5319C74.4137 41.4149 74.8938 42.8157 75.8229 43.4309C76.2172 43.6921 76.4956 43.3461 76.8546 43.0903C77.3938 42.7061 77.9081 42.2821 78.4538 41.9083C79.2203 41.3831 80.0502 40.9903 80.939 40.7847C82.2401 40.4837 84.0381 40.5542 84.4101 42.2583C84.5498 42.8984 84.4427 43.583 84.3976 44.2279C84.3357 45.1135 84.2711 45.9987 84.1942 46.883C84.1358 47.5544 84.062 48.2028 83.9353 48.8621C83.8677 49.2136 83.6562 49.8688 83.8069 50.2207C83.9952 50.6606 84.8644 50.4105 85.2358 50.4258C85.9693 50.4561 86.7058 50.5848 87.384 50.8982C87.9097 51.1411 88.4623 51.4984 88.6841 52.1008C88.8205 52.4709 88.7846 52.851 88.7201 53.2318C88.6429 53.6887 88.7312 53.931 88.7889 54.3921C89.7741 53.907 93.1878 52.8292 93.6174 54.5947C93.7604 55.1826 93.4347 55.8468 93.1862 56.3426C92.7505 57.2121 92.1792 58.0069 91.5951 58.7649C90.3767 60.3461 88.9222 61.7099 87.3573 62.8762C89.1908 63.6913 89.6694 66.0956 88.082 67.5281C87.3811 68.1605 86.4387 68.3013 85.5546 68.2609C85.231 68.2461 84.7645 68.1217 84.5098 68.178C84.3728 68.2083 84.2261 68.3245 84.0363 68.3374C82.7885 68.4229 81.38 68.1223 80.1603 67.8454C77.9869 67.352 75.9293 66.3224 74.2491 64.7541C73.818 64.3519 73.462 64.1203 72.8818 64.1262C72.3734 64.1314 71.8746 64.2708 71.3667 64.2836C70.0228 64.318 68.8111 63.661 67.5631 63.2237C67.4867 64.9095 67.0066 66.7663 66.317 68.283C65.7546 69.5198 64.5802 69.6996 63.4262 69.8081C59.7359 70.1553 56.0326 69.7678 52.3377 69.7729C55.9145 70.5814 59.6105 70.9146 63.1556 71.866C64.758 72.296 63.5344 73.376 62.8492 74.1246C61.721 75.3575 60.8821 76.8851 60.3003 78.4944C58.5506 76.2136 55.4579 74.7108 52.7179 75.4115C49.6905 76.1855 47.5587 80.2796 49.4946 83.2229C50.6185 84.9315 52.6482 85.5912 54.337 86.3252C53.0195 87.695 52.7009 89.718 51.9079 91.4221C51.5168 92.2625 50.9678 93.2127 50.0932 93.5055C49.7696 93.6139 49.3902 93.6232 49.1349 93.887C48.8187 94.2136 48.7433 94.5787 48.3395 94.8594C46.728 95.9798 44.2109 95.8934 42.7825 94.4314C41.4908 93.1091 41.8269 91.0167 42.9057 89.6762C41.1884 88.9604 38.0599 88.0398 38.7424 85.3645C35.0214 85.1174 25.987 79.0826 30.9811 74.6728C28.2403 73.1238 25.7223 69.3382 27.4828 66.0012C28.8384 63.4316 31.9912 62.2829 34.5779 62.1467" fill="#1B1B1B"/>
<path fill-rule="evenodd" clip-rule="evenodd" d="M134.596 128.766L169.887 106.881C178.863 104.897 186.504 102.301 192.809 99.093C194.362 97.9139 196.39 95.4858 190.653 95.7116C184.916 95.9375 178.899 95.9229 178.404 93.9879C177.909 92.0529 181.685 89.896 180.491 87.2662C179.694 85.513 174.063 89.6347 163.596 99.6311L130.145 111.375L134.596 128.766Z" fill="#B28B67"/>
<path d="M94.4586 202.429C96.0271 193.027 96.0961 180.592 88.8791 158.305C83.4167 141.436 77.5463 123.308 77.31 110.918C77.2909 109.914 75.4375 108.146 74.6176 108.377C65.623 110.918 55.3678 106.478 55.3678 106.478C47.3135 119.431 44.1741 122.813 42.8579 126.797C41.2335 131.714 42.3861 137.549 40.5039 163.427C52.8637 182.385 71.9911 196.528 94.4586 202.429Z" fill="#064B70"/>
<path d="M73.0213 193.79C73.2938 192.767 73.6195 191.741 73.9635 190.657C77.0857 180.82 81.7197 166.219 61.8784 106.477H50.033C47.0119 106.477 45.7293 108.668 45.1268 109.83C37.7155 124.126 34.1953 136.891 32.8047 148.948C40.8516 167.998 55.1006 183.789 73.0213 193.79Z" fill="#7ADC7E"/>
<path fill-rule="evenodd" clip-rule="evenodd" d="M60.164 106.519C81.9106 106.477 118.269 111.058 160.374 97.541L164.422 117.771C128.234 141.045 91.5148 158.195 61.0667 148.301C55.9721 146.645 63.7138 132.233 60.164 106.519Z" fill="#7ADC7E"/>
</g>
<defs>
<clipPath id="clip0_22871_7606">
<rect width="225.5" height="225.5" fill="white" transform="translate(0.75 0.25)"/>
</clipPath>
</defs>
</svg>
