<svg width="203" height="210" viewBox="0 0 203 210" fill="none" xmlns="http://www.w3.org/2000/svg">
<rect x="0.0253906" width="202.95" height="202.95" rx="101.475" fill="white"/>
<path fill-rule="evenodd" clip-rule="evenodd" d="M121.507 35.1586C119.551 34.5293 117.474 34.3723 115.445 34.7003C113.417 35.0284 111.496 35.8322 109.84 37.0455C108.185 38.2588 106.842 39.8469 105.923 41.679C104.704 44.1066 104.282 46.856 104.719 49.5357C105.06 51.6325 105.913 53.6038 107.19 55.2815H101.777C101.438 55.2815 101.106 55.3118 100.784 55.3696C100.043 53.8103 99.52 52.1458 99.2394 50.422C98.6166 46.5954 99.218 42.6705 100.958 39.2038C102.271 36.588 104.189 34.3197 106.552 32.5872C108.917 30.8546 111.66 29.7068 114.556 29.2383C117.453 28.7698 120.419 28.9942 123.212 29.8928C126.004 30.7913 128.543 32.3388 130.618 34.4068L133.001 36.7817L135.386 34.4063C137.461 32.3383 139.999 30.7913 142.791 29.8928C145.583 28.9942 148.55 28.7698 151.446 29.2383C154.343 29.7068 157.086 30.8546 159.45 32.5872C161.814 34.3198 163.732 36.5879 165.045 39.204C166.783 42.6695 167.383 46.5922 166.761 50.4168C166.481 52.1377 165.96 53.7994 165.221 55.3565C164.897 55.298 164.563 55.2674 164.223 55.2674H158.818C160.092 53.5916 160.941 51.6237 161.282 49.5309C161.718 46.8526 161.297 44.1056 160.08 41.6788C159.161 39.8468 157.818 38.2588 156.162 37.0455C154.507 35.8322 152.586 35.0284 150.557 34.7003C148.529 34.3723 146.452 34.5293 144.496 35.1586C142.541 35.7879 140.763 36.8714 139.31 38.3197L134.963 42.6502C133.88 43.7298 132.123 43.7298 131.04 42.6502L126.693 38.3202C125.24 36.8719 123.462 35.7879 121.507 35.1586ZM155.868 66.4523H143.412C142.406 66.4523 141.429 66.1981 140.593 65.7038L139.29 68.7401L139.233 68.8248V68.8531C138.666 70.0676 137.76 71.0844 136.612 71.7764C135.578 72.4119 134.388 72.7367 133.17 72.7367H132.787C131.441 72.6661 130.167 72.1859 129.104 71.3668C128.042 70.5477 127.262 69.4321 126.837 68.1469L126.809 68.0622V68.034L125.435 63.4583C124.897 64.2774 124.188 64.9694 123.352 65.4778C122.304 66.1274 121.1 66.4664 119.867 66.4664H110.144L130.998 88.1481C131.522 88.6923 132.245 89 133.002 89C133.758 89 134.482 88.6922 135.005 88.1479L155.868 66.4523Z" fill="#C2C7CA"/>
<path fill-rule="evenodd" clip-rule="evenodd" d="M126.116 55.8792L123.28 61.5346L123.277 61.5411C122.959 62.1714 122.471 62.7012 121.869 63.0713C121.266 63.4412 120.573 63.6371 119.865 63.637H101.775C100.243 63.637 99 62.3983 99 60.8703C99 59.3423 100.243 58.1036 101.775 58.1036H118.795L123.092 49.5352C123.429 48.8506 123.965 48.2826 124.63 47.9051C125.302 47.5235 126.075 47.3545 126.846 47.4203C127.616 47.4862 128.349 47.7838 128.946 48.2739C129.538 48.7591 129.969 49.4104 130.184 50.1429L133.468 61.0481L135.937 55.3041L135.94 55.2967C136.212 54.6694 136.648 54.1266 137.203 53.7253C137.758 53.3239 138.411 53.0788 139.093 53.0156C139.776 52.9525 140.463 53.0736 141.082 53.3663C141.701 53.6589 142.23 54.1124 142.613 54.6791L142.621 54.6903L144.894 58.0898H164.224C165.757 58.0898 167 59.3285 167 60.8565C167 62.3845 165.757 63.6232 164.224 63.6232H143.409C142.481 63.6232 141.614 63.1609 141.1 62.3912L139.779 60.416L136.682 67.6207C136.674 67.6394 136.666 67.6581 136.657 67.6767C136.338 68.3755 135.815 68.9619 135.155 69.3588C134.496 69.7558 133.732 69.9448 132.963 69.901C132.194 69.8572 131.457 69.5826 130.847 69.1134C130.237 68.6442 129.784 68.0022 129.547 67.2717C129.541 67.2531 129.535 67.2345 129.53 67.2157L126.116 55.8792Z" fill="#C2C7CA"/>
<path fill-rule="evenodd" clip-rule="evenodd" d="M79.9988 41.1459C83.1124 43.0212 86.1719 43.9272 87.608 43.5574C91.2088 42.63 91.5398 29.4688 88.7537 24.2803C85.9676 19.0917 71.6446 16.8302 70.9227 27.1104C70.6721 30.6781 72.1714 33.8621 74.3867 36.4602L70.4141 54.96H81.9531L79.9988 41.1459Z" fill="#B28B67"/>
<path fill-rule="evenodd" clip-rule="evenodd" d="M61.1063 94.8299C61.9732 106.652 117.822 141.456 118.148 142.433C118.365 143.084 100.764 183.592 100.764 183.592L105.646 185.488C105.646 185.488 132.643 142.587 131.256 138.015C129.271 131.471 87.924 94.9556 87.924 94.9556L61.1063 94.8299Z" fill="#B28B67"/>
<path fill-rule="evenodd" clip-rule="evenodd" d="M111.618 142.379L128.932 133.775C128.932 133.234 128.932 132.693 124.062 127.824C119.193 122.954 89.0314 94.8591 89.0314 94.8591L60.5351 94.8591C61.5074 122.237 93.5743 131.164 102.958 137.021C104.201 137.796 108.369 140.267 111.618 142.379Z" fill="#064B70"/>
<path fill-rule="evenodd" clip-rule="evenodd" d="M100.754 182.937C100.148 182.385 99.1956 182.391 98.6797 183.028C98.0646 183.787 97.3469 184.757 97.1086 185.411C96.6638 186.632 96.2176 189.123 96.2176 189.123C97.6353 189.638 121.7 198.389 121.7 198.389C121.7 198.389 123.888 195.47 121.844 194.43C119.799 193.39 118.46 192.664 118.46 192.664L108.7 183.238C108.417 182.965 107.963 182.979 107.697 183.27L106.415 184.672C106.415 184.672 104.098 184.875 102.859 184.424C102.225 184.194 101.404 183.53 100.754 182.937Z" fill="#C2C7CA"/>
<path fill-rule="evenodd" clip-rule="evenodd" d="M67.5288 94.8301L42.6496 154.505L18.1973 204.956H23.9664L87.0845 94.8301H67.5288Z" fill="#997659"/>
<path fill-rule="evenodd" clip-rule="evenodd" d="M19.6229 202.276C18.8651 201.964 17.9725 202.296 17.7056 203.07C17.3875 203.994 17.0449 205.15 17.0449 205.846C17.0449 207.146 17.4782 209.639 17.4782 209.639C18.9869 209.639 44.5959 209.639 44.5959 209.639C44.5959 209.639 45.653 206.147 43.3755 205.869C41.0981 205.59 39.5918 205.366 39.5918 205.366L27.1935 199.844C26.8334 199.683 26.4118 199.852 26.2614 200.216L25.5373 201.971C25.5373 201.971 23.429 202.954 22.1109 202.954C21.436 202.954 20.4371 202.611 19.6229 202.276Z" fill="#C2C7CA"/>
<path fill-rule="evenodd" clip-rule="evenodd" d="M39.6523 150.007H60.6274C70.539 135.448 84.6174 122.62 89.1654 94.8301H60.6274C45.4395 114.92 49.1002 135.207 39.6523 150.007Z" fill="#006298"/>
<path fill-rule="evenodd" clip-rule="evenodd" d="M94.821 78.8017C102.074 83.6792 125.102 74.0322 125.102 74.0322C128.154 70.9938 131.101 68.6845 133.943 67.1042C134.793 66.8339 136.245 66.7522 134.696 69.0128C133.147 71.2734 131.619 73.7209 132.238 74.5131C132.857 75.3054 134.65 74.431 135.358 75.7193C135.831 76.5783 132.808 77.6057 126.291 78.8017C126.291 78.8017 111.796 86.596 100.129 89.7559C88.4611 92.9158 88.0151 88.7837 88.0151 88.7837C88.0151 88.7837 87.5686 73.9242 94.821 78.8017Z" fill="#B28B67"/>
<path fill-rule="evenodd" clip-rule="evenodd" d="M40.3678 83.7812L50.2201 85.7344C40.3119 104.183 34.9983 113.961 34.2793 115.068C32.6616 117.559 34.171 122.123 34.7285 124.527C31.2308 125.34 32.6102 120.081 28.1839 121.179C24.1438 122.181 20.7182 124.754 16.951 121.284C16.4878 120.858 16.1487 119.524 17.7279 118.841C21.6621 117.137 27.4747 113.947 28.4172 112.708C29.7024 111.019 33.686 101.377 40.3678 83.7812Z" fill="#B28B67"/>
<path fill-rule="evenodd" clip-rule="evenodd" d="M83.7555 25.2207C82.0568 26.1031 80.8707 27.8167 79.4358 30.0816C79.0946 29.9497 78.723 29.8772 78.3342 29.8772C76.6703 29.8772 75.3214 31.2038 75.3214 32.8403C75.3214 33.671 75.669 34.4219 76.229 34.96C75.5319 35.9277 74.7506 36.9386 73.8554 37.9818C70.4921 35.9973 67.9964 30.1878 71.2845 24.607C72.1934 21.8731 74.2509 20.4128 76.6808 19.7347C78.6492 18.9249 80.6926 18.8336 82.4175 19.3191C85.7988 19.6043 88.8181 20.6184 89.6738 21.2206C89.6738 24.369 89.0535 25.3031 83.7555 25.2207Z" fill="#191847"/>
<path fill-rule="evenodd" clip-rule="evenodd" d="M70.3602 52.7059L80.2931 51.0154C87.9191 72.2229 91.4544 70.7285 99.0873 74.5974L88.0586 90.2348C61.4623 100.356 89.9021 103.167 77.8427 74.5974C74.721 67.2017 71.7928 59.4283 70.3602 52.7059Z" fill="#AFB9C5"/>
<path fill-rule="evenodd" clip-rule="evenodd" d="M37.1758 91.9301C42.2644 76.6642 46.4321 69.0031 68.9174 48.6768H69.915L70.3824 49.2221C70.4992 49.0401 70.6166 48.8584 70.7345 48.6768L86.0077 52.1747C86.0077 71.6475 89.7219 84.5093 93.3703 97.1429C94.6305 101.507 95.8829 105.844 96.9716 110.416L51.2747 111.875C51.8161 104.9 52.6155 98.5236 53.6812 92.6178L37.1758 91.9301Z" fill="#C5CFD6"/>
<path fill-rule="evenodd" clip-rule="evenodd" d="M53.8984 92.6786C54.9012 85.1868 56.5581 78.0489 59.1331 71.2651C61.2309 67.4619 63.3471 63.8732 65.6094 60.1016C65.6094 60.1016 57.2725 80.5193 57.2725 92.7795L53.8984 92.6786Z" fill="black" fill-opacity="0.1"/>
</svg>
