<svg width="163" height="205" viewBox="0 0 163 205" fill="none" xmlns="http://www.w3.org/2000/svg">
<path fill-rule="evenodd" clip-rule="evenodd" d="M116.993 30.1586C115.038 29.5293 112.96 29.3723 110.932 29.7003C108.903 30.0284 106.982 30.8322 105.327 32.0455C103.671 33.2588 102.328 34.8469 101.409 36.679C100.19 39.1066 99.7687 41.856 100.205 44.5357C100.546 46.6325 101.399 48.6038 102.677 50.2815H97.263C96.9244 50.2815 96.5926 50.3118 96.2702 50.3696C95.529 48.8103 95.0064 47.1458 94.7258 45.422C94.1029 41.5954 94.7043 37.6705 96.4447 34.2038C97.7573 31.588 99.6749 29.3197 102.039 27.5872C104.403 25.8546 107.146 24.7068 110.043 24.2383C112.939 23.7698 115.906 23.9942 118.698 24.8928C121.49 25.7913 124.029 27.3388 126.104 29.4068L128.488 31.7817L130.872 29.4063C132.947 27.3383 135.485 25.7913 138.277 24.8928C141.07 23.9942 144.036 23.7698 146.933 24.2383C149.829 24.7068 152.572 25.8546 154.937 27.5872C157.301 29.3198 159.218 31.5879 160.531 34.204C162.269 37.6695 162.87 41.5922 162.247 45.4168C161.967 47.1377 161.446 48.7994 160.707 50.3565C160.383 50.298 160.05 50.2674 159.709 50.2674H154.305C155.578 48.5916 156.428 46.6237 156.768 44.5309C157.204 41.8526 156.783 39.1056 155.566 36.6788C154.647 34.8468 153.304 33.2588 151.649 32.0455C149.993 30.8322 148.072 30.0284 146.044 29.7003C144.015 29.3723 141.938 29.5293 139.982 30.1586C138.027 30.7879 136.249 31.8714 134.796 33.3197L130.45 37.6502C129.366 38.7298 127.61 38.7298 126.526 37.6502L122.18 33.3202C120.726 31.8719 118.948 30.7879 116.993 30.1586ZM151.354 61.4523H138.899C137.893 61.4523 136.915 61.1981 136.079 60.7038L134.776 63.7401L134.719 63.8248V63.8531C134.153 65.0676 133.246 66.0844 132.099 66.7764C131.064 67.4119 129.874 67.7367 128.656 67.7367H128.274C126.928 67.6661 125.653 67.1859 124.59 66.3668C123.528 65.5477 122.749 64.4321 122.324 63.1469L122.295 63.0622V63.034L120.921 58.4583C120.383 59.2774 119.675 59.9694 118.839 60.4778C117.79 61.1274 116.586 61.4664 115.354 61.4664H105.631L126.484 83.1481C127.008 83.6923 127.731 84 128.488 84C129.244 84 129.968 83.6922 130.491 83.1479L151.354 61.4523Z" fill="#C2C7CA"/>
<path fill-rule="evenodd" clip-rule="evenodd" d="M121.602 50.8792L118.767 56.5346L118.763 56.5411C118.445 57.1714 117.958 57.7012 117.355 58.0713C116.753 58.4412 116.059 58.6371 115.352 58.637H97.2617C95.7289 58.637 94.4863 57.3983 94.4863 55.8703C94.4863 54.3423 95.7289 53.1036 97.2617 53.1036H114.282L118.578 44.5352C118.915 43.8506 119.451 43.2826 120.116 42.9051C120.788 42.5235 121.561 42.3545 122.332 42.4203C123.103 42.4862 123.835 42.7838 124.433 43.2739C125.024 43.7591 125.455 44.4104 125.671 45.1429L128.954 56.0481L131.423 50.3041L131.427 50.2967C131.698 49.6694 132.135 49.1266 132.689 48.7253C133.244 48.3239 133.897 48.0788 134.579 48.0156C135.262 47.9525 135.949 48.0736 136.568 48.3663C137.188 48.6589 137.717 49.1124 138.1 49.6791L138.107 49.6903L140.381 53.0898H159.711C161.243 53.0898 162.486 54.3285 162.486 55.8565C162.486 57.3845 161.243 58.6232 159.711 58.6232H138.895C137.967 58.6232 137.101 58.1609 136.586 57.3912L135.265 55.416L132.168 62.6207C132.16 62.6394 132.152 62.6581 132.143 62.6767C131.824 63.3755 131.301 63.9619 130.642 64.3588C129.983 64.7558 129.218 64.9448 128.449 64.901C127.68 64.8572 126.943 64.5826 126.333 64.1134C125.724 63.6442 125.271 63.0022 125.034 62.2717C125.028 62.2531 125.022 62.2345 125.016 62.2157L121.602 50.8792Z" fill="#C2C7CA"/>
<path fill-rule="evenodd" clip-rule="evenodd" d="M75.4851 36.1459C78.5988 38.0212 81.6582 38.9272 83.0943 38.5574C86.6951 37.63 87.0261 24.4688 84.24 19.2803C81.4539 14.0917 67.131 11.8302 66.409 22.1104C66.1585 25.6781 67.6578 28.8621 69.873 31.4602L65.9004 49.96H77.4395L75.4851 36.1459Z" fill="#B28B67"/>
<path fill-rule="evenodd" clip-rule="evenodd" d="M56.5926 89.8299C57.4596 101.652 113.308 136.456 113.634 137.433C113.851 138.084 96.2506 178.592 96.2506 178.592L101.133 180.488C101.133 180.488 128.129 137.587 126.743 133.015C124.757 126.471 83.4104 89.9556 83.4104 89.9556L56.5926 89.8299Z" fill="#B28B67"/>
<path fill-rule="evenodd" clip-rule="evenodd" d="M107.104 137.379L124.418 128.775C124.418 128.234 124.418 127.693 119.549 122.824C114.679 117.954 84.5177 89.8591 84.5177 89.8591L56.0215 89.8591C56.9938 117.237 89.0607 126.164 98.4448 132.021C99.6872 132.796 103.855 135.267 107.104 137.379Z" fill="#064B70"/>
<path fill-rule="evenodd" clip-rule="evenodd" d="M96.2399 177.937C95.6344 177.385 94.682 177.391 94.166 178.028C93.551 178.787 92.8332 179.757 92.5949 180.411C92.1501 181.632 91.7039 184.123 91.7039 184.123C93.1216 184.638 117.186 193.389 117.186 193.389C117.186 193.389 119.375 190.47 117.33 189.43C115.285 188.39 113.946 187.664 113.946 187.664L104.186 178.238C103.903 177.965 103.449 177.979 103.183 178.27L101.902 179.672C101.902 179.672 99.5841 179.875 98.3455 179.424C97.7114 179.194 96.8903 178.53 96.2399 177.937Z" fill="#C2C7CA"/>
<path fill-rule="evenodd" clip-rule="evenodd" d="M63.0151 89.8301L38.1359 149.505L13.6836 199.956H19.4527L82.5708 89.8301H63.0151Z" fill="#997659"/>
<path fill-rule="evenodd" clip-rule="evenodd" d="M15.1092 197.276C14.3514 196.964 13.4588 197.296 13.192 198.07C12.8739 198.994 12.5312 200.15 12.5312 200.846C12.5312 202.146 12.9646 204.639 12.9646 204.639C14.4733 204.639 40.0822 204.639 40.0822 204.639C40.0822 204.639 41.1393 201.147 38.8619 200.869C36.5845 200.59 35.0781 200.366 35.0781 200.366L22.6798 194.844C22.3197 194.683 21.8982 194.852 21.7478 195.216L21.0236 196.971C21.0236 196.971 18.9153 197.954 17.5972 197.954C16.9224 197.954 15.9234 197.611 15.1092 197.276Z" fill="#C2C7CA"/>
<path fill-rule="evenodd" clip-rule="evenodd" d="M35.1387 145.007H56.1137C66.0253 130.448 80.1037 117.62 84.6517 89.8301H56.1137C40.9258 109.92 44.5865 130.207 35.1387 145.007Z" fill="#006298"/>
<path fill-rule="evenodd" clip-rule="evenodd" d="M90.3074 73.8017C97.5599 78.6792 120.589 69.0322 120.589 69.0322C123.64 65.9938 126.587 63.6845 129.429 62.1042C130.279 61.8339 131.731 61.7522 130.182 64.0128C128.633 66.2734 127.105 68.7209 127.724 69.5131C128.343 70.3054 130.136 69.431 130.845 70.7193C131.317 71.5783 128.295 72.6057 121.778 73.8017C121.778 73.8017 107.283 81.596 95.615 84.7559C83.9474 87.9158 83.5015 83.7837 83.5015 83.7837C83.5015 83.7837 83.0549 68.9242 90.3074 73.8017Z" fill="#B28B67"/>
<path fill-rule="evenodd" clip-rule="evenodd" d="M35.8541 78.7812L45.7064 80.7344C35.7982 99.1832 30.4846 108.961 29.7657 110.068C28.148 112.559 29.6573 117.123 30.2149 119.527C26.7171 120.34 28.0965 115.081 23.6702 116.179C19.6301 117.181 16.2045 119.754 12.4373 116.284C11.9741 115.858 11.6351 114.524 13.2142 113.841C17.1485 112.137 22.961 108.947 23.9035 107.708C25.1888 106.019 29.1723 96.377 35.8541 78.7812Z" fill="#B28B67"/>
<path fill-rule="evenodd" clip-rule="evenodd" d="M79.2419 20.2207C77.5431 21.1031 76.357 22.8167 74.9221 25.0816C74.5809 24.9497 74.2093 24.8772 73.8205 24.8772C72.1566 24.8772 70.8077 26.2038 70.8077 27.8403C70.8077 28.671 71.1553 29.4219 71.7153 29.96C71.0182 30.9277 70.2369 31.9386 69.3417 32.9818C65.9785 30.9973 63.4827 25.1878 66.7709 19.607C67.6797 16.8731 69.7372 15.4128 72.1672 14.7347C74.1355 13.9249 76.1789 13.8336 77.9038 14.3191C81.2851 14.6043 84.3044 15.6184 85.1601 16.2206C85.1601 19.369 84.5398 20.3031 79.2419 20.2207Z" fill="#191847"/>
<path fill-rule="evenodd" clip-rule="evenodd" d="M65.8465 47.7059L75.7795 46.0154C83.4054 67.2229 86.9407 65.7285 94.5736 69.5974L83.5449 85.2348C56.9486 95.3561 85.3884 98.1665 73.3291 69.5974C70.2073 62.2017 67.2791 54.4283 65.8465 47.7059Z" fill="#AFB9C5"/>
<path fill-rule="evenodd" clip-rule="evenodd" d="M32.6621 86.9301C37.7507 71.6642 41.9184 64.0031 64.4037 43.6768H65.4013L65.8687 44.2221C65.9856 44.0401 66.103 43.8584 66.2209 43.6768L81.494 47.1747C81.494 66.6475 85.2083 79.5093 88.8566 92.1429C90.1168 96.5068 91.3692 100.844 92.4579 105.416L46.7611 106.875C47.3024 99.9002 48.1019 93.5236 49.1676 87.6178L32.6621 86.9301Z" fill="#C5CFD6"/>
<path fill-rule="evenodd" clip-rule="evenodd" d="M49.3848 87.6786C50.3875 80.1868 52.0444 73.0489 54.6195 66.2651C56.7172 62.4619 58.8335 58.8732 61.0957 55.1016C61.0957 55.1016 52.7588 75.5193 52.7588 87.7795L49.3848 87.6786Z" fill="black" fill-opacity="0.1"/>
</svg>
