<svg width="100" height="100" viewBox="0 0 100 100" fill="none" xmlns="http://www.w3.org/2000/svg">
<rect x="9" y="9" width="82" height="82" rx="41" fill="#F9F9F9"/>
<rect width="5.1551" height="21.4797" rx="2.57755" transform="matrix(-1 0 0 1 48.269 65.3701)" fill="#8AB1C5"/>
<rect width="5.1551" height="35.2267" rx="2.57755" transform="matrix(-1 0 0 1 36.2402 51.623)" fill="#8AB1C5"/>
<rect width="5.1551" height="42.1002" rx="2.57755" transform="matrix(-1 0 0 1 24.2119 44.75)" fill="#D1C4E9"/>
<rect width="5.1551" height="35.2267" rx="2.57755" transform="matrix(-1 0 0 1 12.1831 51.623)" fill="#005B89"/>
<path fill-rule="evenodd" clip-rule="evenodd" d="M32.4701 25.7315C31.7741 26.4703 30.7883 26.9342 29.6918 26.9342C27.585 26.9342 25.8771 25.2317 25.8771 23.1315C25.8771 21.0313 27.585 19.3288 29.6918 19.3288V12.2666C23.6983 12.2666 18.7925 17.1569 18.7925 23.1315C18.7925 29.1061 23.6983 33.9964 29.6918 33.9964C32.8401 33.9964 35.6854 32.6687 37.6249 30.5566L32.4701 25.7315Z" fill="#8AB1C5"/>
<path fill-rule="evenodd" clip-rule="evenodd" d="M29.6577 12.2666V19.3288C31.7579 19.3288 33.4604 21.0313 33.4604 23.1315H40.5226C40.5226 17.1569 35.6323 12.2666 29.6577 12.2666Z" fill="#D1C4E9"/>
<path fill-rule="evenodd" clip-rule="evenodd" d="M33.3143 23.1309C33.3143 24.3647 32.7332 25.4615 31.8306 26.1697L36.2713 31.8228C38.8563 29.7989 40.5225 26.6617 40.5225 23.1309H33.3143Z" fill="#005B89"/>
<path fill-rule="evenodd" clip-rule="evenodd" d="M53.7366 48.2103C53.7366 36.5016 63.1989 26.918 74.7593 26.918V48.2103L60.3924 63.7079C56.3055 59.9189 53.7366 54.3605 53.7366 48.2103Z" fill="#8AB1C5"/>
<path fill-rule="evenodd" clip-rule="evenodd" d="M74.2026 47.9404H95.4326C95.4326 53.4284 93.1939 58.5706 89.6549 62.3074C85.7623 66.3942 80.2192 68.9632 74.2026 68.9632C68.6605 68.9632 63.5876 66.7464 59.694 63.2419L74.2026 47.9404Z" fill="#D1C4E9"/>
<path fill-rule="evenodd" clip-rule="evenodd" d="M95.7817 47.9408C95.7817 36.3803 86.3194 26.918 74.759 26.918V47.9408H95.7817ZM64.2481 26.9182L72.6572 45.8387L53.7368 37.4296C55.6078 32.525 59.8092 28.7892 64.2481 26.9182Z" fill="#005B89"/>
</svg>
