<svg width="100" height="100" viewBox="0 0 100 100" fill="none" xmlns="http://www.w3.org/2000/svg">
<rect width="5.1551" height="21.4797" rx="2.57755" transform="matrix(-1 0 0 1 48.269 65.3711)" fill="#8AB1C5"/>
<rect width="5.1551" height="35.2267" rx="2.57755" transform="matrix(-1 0 0 1 36.2402 51.625)" fill="#8AB1C5"/>
<rect width="5.1551" height="42.1002" rx="2.57755" transform="matrix(-1 0 0 1 24.2122 44.75)" fill="#D1C4E9"/>
<rect width="5.1551" height="35.2267" rx="2.57755" transform="matrix(-1 0 0 1 12.1831 51.625)" fill="#ADC8D6"/>
<path fill-rule="evenodd" clip-rule="evenodd" d="M32.4701 25.7305C31.7741 26.4693 30.7883 26.9332 29.6918 26.9332C27.585 26.9332 25.8771 25.2307 25.8771 23.1305C25.8771 21.0303 27.585 19.3278 29.6918 19.3278V12.2656C23.6983 12.2656 18.7925 17.1559 18.7925 23.1305C18.7925 29.1051 23.6983 33.9954 29.6918 33.9954C32.8401 33.9954 35.6854 32.6677 37.6249 30.5556L32.4701 25.7305Z" fill="#8AB1C5"/>
<path fill-rule="evenodd" clip-rule="evenodd" d="M29.6575 12.2656V19.3278C31.7576 19.3278 33.4602 21.0303 33.4602 23.1305H40.5223C40.5223 17.1559 35.6321 12.2656 29.6575 12.2656Z" fill="#D1C4E9"/>
<path fill-rule="evenodd" clip-rule="evenodd" d="M33.3143 23.1289C33.3143 24.3628 32.7332 25.4596 31.8306 26.1677L36.2713 31.8208C38.8563 29.797 40.5225 26.6597 40.5225 23.1289H33.3143Z" fill="#ADC8D6"/>
<path fill-rule="evenodd" clip-rule="evenodd" d="M53.7363 48.2103C53.7363 36.5016 63.1986 26.918 74.759 26.918V48.2103L60.3921 63.7079C56.3053 59.9189 53.7363 54.3605 53.7363 48.2103Z" fill="#8AB1C5"/>
<path fill-rule="evenodd" clip-rule="evenodd" d="M74.2026 47.9414H95.4326C95.4326 53.4294 93.1939 58.5716 89.6549 62.3084C85.7623 66.3952 80.2192 68.9642 74.2026 68.9642C68.6605 68.9642 63.5876 66.7473 59.694 63.2428L74.2026 47.9414Z" fill="#D1C4E9"/>
<path fill-rule="evenodd" clip-rule="evenodd" d="M95.7817 47.9408C95.7817 36.3803 86.3194 26.918 74.759 26.918V47.9408H95.7817ZM64.2481 26.9182L72.6572 45.8387L53.7368 37.4296C55.6078 32.525 59.8092 28.7892 64.2481 26.9182Z" fill="#ADC8D6"/>
</svg>
