<svg width="100" height="105" viewBox="0 0 100 105" fill="none" xmlns="http://www.w3.org/2000/svg">
<rect x="12" y="23" width="82" height="82" rx="41" fill="#F9F9F9"/>
<path d="M68.2791 102.059L65.1233 74.2754H41.6455L53.59 104.996C58.7762 104.923 63.7295 103.887 68.2791 102.059Z" fill="#43A447"/>
<path fill-rule="evenodd" clip-rule="evenodd" d="M37.9756 74.2754C34.7559 83.4587 36.7525 98.5926 36.7525 98.5926H57.0854L62.6766 74.2754H37.9756Z" fill="#4FC254"/>
<path fill-rule="evenodd" clip-rule="evenodd" d="M78.0784 67.9152L90.386 77.8438C93.8384 78.9814 96.6956 80.3011 98.9576 81.8028C99.4798 82.3235 100.082 83.3476 97.7815 83.0244C95.4811 82.7013 93.0461 82.4599 92.6719 83.1893C92.2976 83.9187 93.6312 84.9095 92.9117 85.8794C92.432 86.526 90.5246 84.6977 87.1896 80.3946L74.7147 74.4704L78.0784 67.9152Z" fill="#B28B67"/>
<path fill-rule="evenodd" clip-rule="evenodd" d="M50.2208 32.1288C54.7588 32.1288 56.4092 26.4715 58.9873 23.3669C60.8319 21.1457 63.9801 21.808 64.912 18.6983C67.2553 10.8786 60.9835 5.375 52.8017 5.375C44.6199 5.375 39.1032 10.2019 37.912 17.4579C36.7208 24.714 42.039 32.1288 50.2208 32.1288Z" fill="#121212"/>
<path fill-rule="evenodd" clip-rule="evenodd" d="M55.3569 31.1097C57.9281 32.7235 60.4544 33.5033 61.6403 33.1849C64.614 32.3868 64.8874 21.0588 62.5866 16.5929C60.2857 12.1271 48.4572 10.1806 47.861 19.0289C47.6541 22.0998 48.8924 24.8404 50.722 27.0767L47.4414 42.9991H56.9708L55.3569 31.1097Z" fill="#B28B67"/>
<path fill-rule="evenodd" clip-rule="evenodd" d="M48.4802 12.8183C41.1809 20.2606 48.508 28.1708 50.5157 28.1708C50.6452 27.097 51.0406 26.0525 51.6198 25.0584C51.3122 24.6435 51.1298 24.1275 51.1298 23.5683C51.1298 22.1982 52.2243 21.0875 53.5744 21.0875C53.996 21.0875 54.3928 21.1958 54.739 21.3866C57.6653 18.7878 61.3356 16.9761 63.158 16.6199C66.3276 16.0003 55.7794 5.37597 48.4802 12.8183Z" fill="#121212"/>
<path fill-rule="evenodd" clip-rule="evenodd" d="M22.3465 63.6195C22.3465 63.6195 13.5506 86.2254 12.0301 88.3512C11.2868 89.3904 6.50478 92.2102 3.24781 93.7512C1.94051 94.3698 2.28698 95.4313 2.69828 95.756C6.04371 98.3966 8.83113 96.1759 12.209 95.1964C15.9097 94.1231 14.9749 98.426 17.9017 97.6217C17.3226 95.7056 15.8411 92.0859 17.1008 90.0077C17.9406 88.6222 29.5679 64.6174 29.5679 64.6174L22.3465 63.6195Z" fill="#B28B67"/>
<path fill-rule="evenodd" clip-rule="evenodd" d="M52.5289 35.6069L57.0036 34.1988C63.0735 48.6272 72.1261 62.5874 87.251 74.379L83.5108 80.5191C70.2181 73.0683 57.635 67.2803 52.5289 56.1C50.8152 52.3476 52.3891 40.0936 52.5289 35.6069Z" fill="#064B70"/>
<path fill-rule="evenodd" clip-rule="evenodd" d="M37.1602 76.2147C37.1602 76.2147 56.3871 78.1545 67.4275 76.2147C68.3394 76.0544 68.4833 74.6017 68.0604 73.6157C61.4749 58.2615 56.9921 44.8639 56.9921 34.1992C54.8919 34.8996 50.6148 34.4601 50.6148 34.4601C42.4956 45.4504 38.7635 58.0605 37.1602 76.2147Z" fill="#F9F9F9"/>
<path d="M52.9998 105C55.2116 105 57.3825 104.825 59.4993 104.488C55.7733 85.7946 53.8011 57.8682 52.7624 43.1597C52.3993 38.0173 52.1502 34.4906 51.9802 33.5391H48.5964H48.4216H48.238H47.9777H47.9099L47.7576 33.6329C47.7576 33.6329 20.9709 50.0633 12.1802 86.1078L19.955 88.0069C19.9609 87.9905 19.9668 87.9741 19.9726 87.9577L19.9797 87.9595C21.521 83.6454 23.1781 79.8768 24.8869 76.5856C28.5713 69.5016 32.4943 64.6346 36.0134 61.3051C31.9431 71.6055 27.9564 82.9699 25.1651 94.1041C32.4759 100.867 42.2552 105 52.9998 105Z" fill="#005B89"/>
</svg>
