<svg width="100" height="100" viewBox="0 0 100 100" fill="none" xmlns="http://www.w3.org/2000/svg">
<path d="M23.2431 94.9995C13.1677 94.9995 5 86.8318 5 76.7563V5.00049H76.7569C86.8323 5.00049 95 13.1682 95 23.2436V76.7564C95 86.8318 86.8323 94.9995 76.7569 94.9995H23.2431Z" fill="white"/>
<g clip-path="url(#clip0_1824_1926)">
<path fill-rule="evenodd" clip-rule="evenodd" d="M25.37 51.3934C29.262 52.8052 32.863 53.2489 34.364 52.656C38.1277 51.1694 35.3587 37.8567 31.0395 33.0557C26.7203 28.2547 10.3317 28.1726 11.9818 38.6421C12.5546 42.2758 14.9724 45.2543 18.0431 47.5327L18.0542 66.7825L30.8234 65.0128L25.37 51.3934Z" fill="#B28B67"/>
<path fill-rule="evenodd" clip-rule="evenodd" d="M22.935 38.3057C23.6858 36.6564 24.4763 35.3682 25.699 34.5143C31.3318 33.817 31.7726 32.8103 31.043 29.7244C29.9967 29.2598 26.5625 28.7093 22.9136 28.9262C20.9735 28.7037 18.8295 29.0933 16.9315 30.176C14.5138 31.1975 12.6721 32.931 12.3427 35.7441C10.1519 41.6971 14.1426 47.0248 18.1661 48.476C18.873 47.3221 19.4665 46.2165 19.9809 45.1656C19.2629 44.7205 18.7205 44.0355 18.528 43.2212C18.1488 41.6172 19.2706 40.1189 21.0337 39.8745C21.1633 39.8566 21.2927 39.8459 21.4215 39.8421C21.9751 41.8367 23.9056 48.5761 25.3203 50.814C26.9883 53.4523 33.0494 53.3169 35.1072 53.0317C36.8845 52.7854 36.4619 51.2626 36.159 50.1713C36.1154 50.0142 36.0743 49.8659 36.0426 49.7318C35.9763 49.4514 35.5757 49.5077 35.1231 49.5713C34.5354 49.6538 33.8599 49.7487 33.7148 49.1349C33.5566 48.4659 34.4515 47.8119 35.2523 47.2267C35.7519 46.8615 36.2149 46.5232 36.3627 46.2247C36.8288 45.2828 36.7827 44.1061 35.7764 44.2456C35.2264 44.3218 34.54 44.7149 33.7142 45.1877C32.4675 45.9016 30.9031 46.7974 29.0107 47.0597C25.8852 47.4929 22.9727 38.4234 22.935 38.3057Z" fill="#191847"/>
<path fill-rule="evenodd" clip-rule="evenodd" d="M52.9776 60.3015L39.2213 71.3094L45.9054 76.3417L55.1846 64.2803C60.7294 61.6496 63.1876 60.0069 62.5591 59.3522C62.0292 58.8002 61.3565 58.9412 60.7368 59.0711C60.2541 59.1723 59.8036 59.2667 59.4779 59.0216C58.7342 58.4616 59.5145 55.9076 60.3588 53.5155C61.203 51.1234 59.9234 51.5443 59.2278 51.9896C57.0635 54.0833 54.9801 56.8539 52.9776 60.3015ZM70.3439 69.2816L64.3033 74.128L65.8653 80.76C65.8653 80.76 69.6462 76.8758 73.1895 75.1816C77.7074 73.0215 79.4516 71.6727 81.2525 68.3102C82.2161 66.5112 82.7103 63.149 81.3455 62.3231C80.822 62.0063 79.2974 63.2417 77.7417 64.5022C76.5561 65.4629 75.3525 66.4381 74.5604 66.752C73.4941 67.1745 73.3712 65.72 73.2729 64.5577C73.2025 63.7237 73.1447 63.0401 72.7602 63.3085C70.8086 63.6872 70.3439 69.2816 70.3439 69.2816Z" fill="#997659"/>
<path fill-rule="evenodd" clip-rule="evenodd" d="M31.4801 70.7627C36.8026 69.7662 43.7152 67.3881 50.4547 61.2426L54.604 67.3505C50.2847 73.4581 43.6771 79.0156 37.2109 79.9697C32.1151 80.7217 28.444 75.0559 31.4801 70.7627Z" fill="#158192"/>
<path fill-rule="evenodd" clip-rule="evenodd" d="M27.6545 54.0718C27.6545 54.0718 30.7307 78.6419 39.4977 80.0185C48.2648 81.3951 68.1361 70.1268 68.1361 70.1268C68.1361 70.1268 74.8994 79.4917 75.2942 83.9179C32.5391 116.772 7.61877 88.6988 17.0784 55.9366L27.6545 54.0718Z" fill="#20BBD3"/>
<path d="M11.5627 90.7203C14.728 93.3636 18.8028 94.9542 23.249 94.9542L46.7812 94.9542C44.8091 88.3895 41.3836 81.6913 37.9782 75.0325C34.3003 67.8407 30.6459 60.6949 28.8713 53.8127L16.7014 55.9586C15.3669 56.1939 9.35718 75.1503 11.3371 86.4283C11.5941 87.892 11.6439 89.3141 11.5627 90.7203Z" fill="#20BBD3"/>
<path fill-rule="evenodd" clip-rule="evenodd" d="M22.524 63.4583C22.524 63.4583 12.0488 73.6355 5.62842 67.6131C-0.791987 61.5906 -0.477966 57.4784 3.63566 55.2969C7.74929 53.1154 12.5923 54.8536 19.7805 53.3662C26.9686 51.8789 22.524 63.4583 22.524 63.4583Z" fill="#20BBD3"/>
</g>
<path fill-rule="evenodd" clip-rule="evenodd" d="M84.1455 54.4277C92.9018 54.4277 100 47.3294 100 38.5731C100 29.8169 92.9018 22.7185 84.1455 22.7185C75.3892 22.7185 68.2909 29.8169 68.2909 38.5731C68.2909 47.3294 75.3892 54.4277 84.1455 54.4277Z" fill="#A48C83" fill-opacity="0.7"/>
<path fill-rule="evenodd" clip-rule="evenodd" d="M61.1396 20.5059C64.1614 20.5059 66.6111 18.0562 66.6111 15.0344C66.6111 12.0126 64.1614 9.56299 61.1396 9.56299C58.1179 9.56299 55.6682 12.0126 55.6682 15.0344C55.6682 18.0562 58.1179 20.5059 61.1396 20.5059Z" fill="#BAA7A1" fill-opacity="0.7"/>
<path fill-rule="evenodd" clip-rule="evenodd" d="M32.6382 18.2573C37.6798 18.2573 41.7668 14.1703 41.7668 9.12866C41.7668 4.08704 37.6798 0 32.6382 0C27.5966 0 23.5095 4.08704 23.5095 9.12866C23.5095 14.1703 27.5966 18.2573 32.6382 18.2573Z" fill="#BAA7A1" fill-opacity="0.7"/>
<defs>
<clipPath id="clip0_1824_1926">
<rect width="83.1818" height="90" fill="white" transform="translate(0.00012207 10)"/>
</clipPath>
</defs>
</svg>
