<svg width="101" height="100" viewBox="0 0 101 100" fill="none" xmlns="http://www.w3.org/2000/svg">
<g clip-path="url(#clip0_23620_75439)">
<rect x="11.8672" y="9" width="82" height="82" rx="41" fill="#F9F9F9"/>
<path fill-rule="evenodd" clip-rule="evenodd" d="M79.6946 10.3056C79.8902 10.1099 80.1557 10 80.4324 10C83.1999 10 85.854 11.0994 87.8109 13.0563C89.7678 15.0132 90.8672 17.6673 90.8672 20.4348C90.8672 20.7115 90.7572 20.9769 90.5616 21.1726C90.3659 21.3683 90.1005 21.4783 89.8237 21.4783H80.4324C79.8561 21.4783 79.3889 21.0111 79.3889 20.4348V11.0435C79.3889 10.7667 79.4989 10.5013 79.6946 10.3056ZM71.5047 14.889C73.2207 13.7424 75.2382 13.1304 77.302 13.1304C77.5787 13.1304 77.8441 13.2404 78.0398 13.4361C78.2355 13.6318 78.3455 13.8972 78.3455 14.1739V22.5217H86.6933C87.2696 22.5217 87.7368 22.9889 87.7368 23.5652C87.7368 25.629 87.1248 27.6465 85.9782 29.3625C84.8316 31.0785 83.2019 32.4159 81.2952 33.2057C79.3885 33.9955 77.2904 34.2021 75.2662 33.7995C73.2421 33.3969 71.3828 32.403 69.9235 30.9437C68.4641 29.4844 67.4703 27.6251 67.0677 25.6009C66.6651 23.5768 66.8717 21.4787 67.6615 19.572C68.4513 17.6653 69.7887 16.0356 71.5047 14.889Z" fill="#005B89"/>
<path fill-rule="evenodd" clip-rule="evenodd" d="M29.0275 43.7492C31.9321 45.4999 34.7859 46.3457 36.1255 46.0004C39.4846 45.1345 39.7935 32.8458 37.1943 28.0011C34.5952 23.1565 21.2334 21.0449 20.5599 30.6437C20.3262 33.9751 21.725 36.9481 23.7918 39.3741L20.0859 56.6469H30.8506L29.0275 43.7492Z" fill="#B28B67"/>
<path fill-rule="evenodd" clip-rule="evenodd" d="M15.8693 27.4482C15.5216 27.1036 15.332 26.6118 15.1679 26.1448C14.9975 25.6597 14.832 25.1696 14.7189 24.6647C14.4928 23.6559 14.4907 22.4957 15.2104 21.7123C15.7876 21.0841 16.6536 20.8024 17.4529 20.7412C17.9854 20.7003 18.5324 20.7749 19.0428 20.9427C19.5493 21.1092 19.9859 21.441 20.4769 21.6469C20.4956 20.5597 20.6818 19.4222 21.2334 18.4939C21.7641 17.6007 22.6103 17.0995 23.574 16.9669C24.5631 16.8308 25.5398 17.0623 26.4253 17.5411C26.647 17.6611 26.8666 17.7867 27.0768 17.9289C27.2528 18.048 27.4358 18.1914 27.6423 18.2398C27.8725 18.2938 27.9866 18.1609 28.1362 17.9929C28.3116 17.796 28.5092 17.6226 28.7184 17.4688C29.6431 16.7891 30.8564 16.5096 31.9278 16.9171C32.4214 17.1048 32.9014 17.4236 33.2363 17.8629C33.5348 18.2545 33.7478 18.8757 34.1598 19.1485C34.3346 19.2643 34.4581 19.1109 34.6173 18.9975C34.8564 18.8271 35.0845 18.639 35.3265 18.4733C35.6664 18.2404 36.0344 18.0662 36.4286 17.975C37.0055 17.8415 37.8029 17.8728 37.9679 18.6285C38.0298 18.9123 37.9823 19.2159 37.9623 19.5019C37.9348 19.8946 37.9062 20.2872 37.8721 20.6793C37.8462 20.9771 37.8135 21.2646 37.7573 21.557C37.7273 21.7129 37.6335 22.0034 37.7004 22.1595C37.7839 22.3546 38.1693 22.2437 38.334 22.2504C38.6593 22.2639 38.9859 22.3209 39.2867 22.4599C39.5198 22.5676 39.7648 22.7261 39.8632 22.9932C39.9237 23.1574 39.9077 23.3259 39.8792 23.4948C39.8449 23.6974 39.8841 23.8049 39.9097 24.0093C40.3465 23.7942 41.8604 23.3162 42.0509 24.0992C42.1143 24.3599 41.9699 24.6544 41.8597 24.8743C41.6665 25.2599 41.4131 25.6123 41.1541 25.9485C40.6138 26.6497 39.9688 27.2545 39.2748 27.7717C40.0879 28.1332 40.3001 29.1994 39.5962 29.8346C39.2854 30.1151 38.8674 30.1775 38.4754 30.1595C38.3319 30.153 38.125 30.0978 38.0121 30.1228C37.9513 30.1362 37.8863 30.1878 37.8021 30.1935C37.2488 30.2314 36.6241 30.0981 36.0832 29.9753C35.1194 29.7565 34.207 29.2999 33.4619 28.6045C33.2707 28.4261 33.1128 28.3234 32.8555 28.326C32.6301 28.3283 32.4089 28.3901 32.1836 28.3958C31.5877 28.411 31.0503 28.1197 30.4969 27.9258C30.463 28.6734 30.2501 29.4968 29.9443 30.1694C29.6949 30.7178 29.1741 30.7976 28.6623 30.8457C27.0259 30.9996 25.3836 30.8278 23.7451 30.8301C25.3312 31.1886 26.9703 31.3364 28.5423 31.7583C29.253 31.9489 28.7103 32.4279 28.4065 32.7599C27.9062 33.3066 27.5342 33.984 27.2761 34.6977C26.5002 33.6863 25.1287 33.0198 23.9137 33.3306C22.5711 33.6738 21.6258 35.4894 22.4843 36.7946C22.9827 37.5523 23.8827 37.8448 24.6317 38.1704C24.0474 38.7778 23.9061 39.6749 23.5545 40.4306C23.381 40.8033 23.1376 41.2247 22.7497 41.3545C22.6062 41.4026 22.4379 41.4067 22.3247 41.5237C22.1845 41.6685 22.1511 41.8304 21.972 41.9549C21.2574 42.4517 20.1411 42.4135 19.5077 41.7651C18.9349 41.1787 19.0839 40.2508 19.5623 39.6564C18.8008 39.3389 17.4134 38.9307 17.7161 37.7443C16.066 37.6347 12.0596 34.9586 14.2743 33.003C13.0589 32.3161 11.9422 30.6373 12.7229 29.1575C13.3241 28.018 14.7222 27.5086 15.8693 27.4482Z" fill="#1B1B1B"/>
<path fill-rule="evenodd" clip-rule="evenodd" d="M60.2225 56.9912L75.8728 47.2865C79.8534 46.4063 83.2417 45.2551 86.0379 43.8326C86.7265 43.3097 87.6259 42.2329 85.0816 42.3331C82.5374 42.4333 79.8693 42.4268 79.6496 41.5687C79.43 40.7106 81.1047 39.7541 80.5751 38.5879C80.222 37.8104 77.7246 39.6382 73.083 44.0712L58.2487 49.2794L60.2225 56.9912Z" fill="#B28B67"/>
<path d="M42.4228 89.6579C43.1184 85.4887 43.1489 79.974 39.9485 70.0907C37.5261 62.6102 34.9229 54.5711 34.8181 49.0764C34.8096 48.6313 33.9877 47.8472 33.6241 47.9499C29.6354 49.0764 25.0876 47.1074 25.0876 47.1074C21.5159 52.8519 20.1237 54.3516 19.54 56.1184C18.8196 58.299 19.3308 60.8864 18.4961 72.362C23.9771 80.7692 32.4594 87.0412 42.4228 89.6579Z" fill="#064B70"/>
<path d="M32.9164 85.8269C33.0373 85.3735 33.1817 84.9185 33.3343 84.4378C34.7188 80.0753 36.7739 73.6003 27.975 47.1075H22.7221C21.3823 47.1075 20.8135 48.0789 20.5464 48.5943C17.2598 54.9339 15.6987 60.5946 15.082 65.9414C18.6505 74.3893 24.9693 81.3919 32.9164 85.8269Z" fill="#7ADC7E"/>
<path fill-rule="evenodd" clip-rule="evenodd" d="M27.2147 47.1258C36.8585 47.1075 52.982 49.1389 71.6536 43.1445L73.4489 52.1155C57.4011 62.4366 41.1175 70.042 27.6151 65.6544C25.3558 64.9202 28.789 58.529 27.2147 47.1258Z" fill="#7ADC7E"/>
</g>
<defs>
<clipPath id="clip0_23620_75439">
<rect width="100" height="100" fill="white" transform="translate(0.867188)"/>
</clipPath>
</defs>
</svg>
