<svg width="100" height="100" viewBox="0 0 100 100" fill="none" xmlns="http://www.w3.org/2000/svg">
<rect x="11" y="9" width="82" height="82" rx="41" fill="#F9F9F9"/>
<path d="M75.5 19.5H74.5C74.2348 19.5 73.9804 19.6054 73.7929 19.7929C73.6054 19.9804 73.5 20.2348 73.5 20.5C73.5 20.7652 73.6054 21.0196 73.7929 21.2071C73.9804 21.3946 74.2348 21.5 74.5 21.5H75.5C75.7652 21.5 76.0196 21.3946 76.2071 21.2071C76.3946 21.0196 76.5 20.7652 76.5 20.5C76.5 20.2348 76.3946 19.9804 76.2071 19.7929C76.0196 19.6054 75.7652 19.5 75.5 19.5Z" fill="#064B70"/>
<path d="M80.5 19.5H79.5C79.2348 19.5 78.9804 19.6054 78.7929 19.7929C78.6054 19.9804 78.5 20.2348 78.5 20.5C78.5 20.7652 78.6054 21.0196 78.7929 21.2071C78.9804 21.3946 79.2348 21.5 79.5 21.5H80.5C80.7652 21.5 81.0196 21.3946 81.2071 21.2071C81.3946 21.0196 81.5 20.7652 81.5 20.5C81.5 20.2348 81.3946 19.9804 81.2071 19.7929C81.0196 19.6054 80.7652 19.5 80.5 19.5Z" fill="#064B70"/>
<path d="M85.5 19.5H84.5C84.2348 19.5 83.9804 19.6054 83.7929 19.7929C83.6054 19.9804 83.5 20.2348 83.5 20.5C83.5 20.7652 83.6054 21.0196 83.7929 21.2071C83.9804 21.3946 84.2348 21.5 84.5 21.5H85.5C85.7652 21.5 86.0196 21.3946 86.2071 21.2071C86.3946 21.0196 86.5 20.7652 86.5 20.5C86.5 20.2348 86.3946 19.9804 86.2071 19.7929C86.0196 19.6054 85.7652 19.5 85.5 19.5Z" fill="#064B70"/>
<path d="M75.5 23.5H74.5C74.2348 23.5 73.9804 23.6054 73.7929 23.7929C73.6054 23.9804 73.5 24.2348 73.5 24.5C73.5 24.7652 73.6054 25.0196 73.7929 25.2071C73.9804 25.3946 74.2348 25.5 74.5 25.5H75.5C75.7652 25.5 76.0196 25.3946 76.2071 25.2071C76.3946 25.0196 76.5 24.7652 76.5 24.5C76.5 24.2348 76.3946 23.9804 76.2071 23.7929C76.0196 23.6054 75.7652 23.5 75.5 23.5Z" fill="#064B70"/>
<path d="M80.5 23.5H79.5C79.2348 23.5 78.9804 23.6054 78.7929 23.7929C78.6054 23.9804 78.5 24.2348 78.5 24.5C78.5 24.7652 78.6054 25.0196 78.7929 25.2071C78.9804 25.3946 79.2348 25.5 79.5 25.5H80.5C80.7652 25.5 81.0196 25.3946 81.2071 25.2071C81.3946 25.0196 81.5 24.7652 81.5 24.5C81.5 24.2348 81.3946 23.9804 81.2071 23.7929C81.0196 23.6054 80.7652 23.5 80.5 23.5Z" fill="#064B70"/>
<path d="M85.5 23.5H84.5C84.2348 23.5 83.9804 23.6054 83.7929 23.7929C83.6054 23.9804 83.5 24.2348 83.5 24.5C83.5 24.7652 83.6054 25.0196 83.7929 25.2071C83.9804 25.3946 84.2348 25.5 84.5 25.5H85.5C85.7652 25.5 86.0196 25.3946 86.2071 25.2071C86.3946 25.0196 86.5 24.7652 86.5 24.5C86.5 24.2348 86.3946 23.9804 86.2071 23.7929C86.0196 23.6054 85.7652 23.5 85.5 23.5Z" fill="#064B70"/>
<path d="M75.5 27.5H74.5C74.2348 27.5 73.9804 27.6054 73.7929 27.7929C73.6054 27.9804 73.5 28.2348 73.5 28.5C73.5 28.7652 73.6054 29.0196 73.7929 29.2071C73.9804 29.3946 74.2348 29.5 74.5 29.5H75.5C75.7652 29.5 76.0196 29.3946 76.2071 29.2071C76.3946 29.0196 76.5 28.7652 76.5 28.5C76.5 28.2348 76.3946 27.9804 76.2071 27.7929C76.0196 27.6054 75.7652 27.5 75.5 27.5Z" fill="#064B70"/>
<path d="M80.5 27.5H79.5C79.2348 27.5 78.9804 27.6054 78.7929 27.7929C78.6054 27.9804 78.5 28.2348 78.5 28.5C78.5 28.7652 78.6054 29.0196 78.7929 29.2071C78.9804 29.3946 79.2348 29.5 79.5 29.5H80.5C80.7652 29.5 81.0196 29.3946 81.2071 29.2071C81.3946 29.0196 81.5 28.7652 81.5 28.5C81.5 28.2348 81.3946 27.9804 81.2071 27.7929C81.0196 27.6054 80.7652 27.5 80.5 27.5Z" fill="#064B70"/>
<path d="M85.5 27.5H84.5C84.2348 27.5 83.9804 27.6054 83.7929 27.7929C83.6054 27.9804 83.5 28.2348 83.5 28.5C83.5 28.7652 83.6054 29.0196 83.7929 29.2071C83.9804 29.3946 84.2348 29.5 84.5 29.5H85.5C85.7652 29.5 86.0196 29.3946 86.2071 29.2071C86.3946 29.0196 86.5 28.7652 86.5 28.5C86.5 28.2348 86.3946 27.9804 86.2071 27.7929C86.0196 27.6054 85.7652 27.5 85.5 27.5Z" fill="#064B70"/>
<path d="M89.5 12H86.75C86.6837 12 86.6201 11.9737 86.5732 11.9268C86.5263 11.8799 86.5 11.8163 86.5 11.75V10C86.5 9.73478 86.3946 9.48043 86.2071 9.29289C86.0196 9.10536 85.7652 9 85.5 9C85.2348 9 84.9804 9.10536 84.7929 9.29289C84.6054 9.48043 84.5 9.73478 84.5 10V14.75C84.5 14.9489 84.421 15.1397 84.2803 15.2803C84.1397 15.421 83.9489 15.5 83.75 15.5C83.5511 15.5 83.3603 15.421 83.2197 15.2803C83.079 15.1397 83 14.9489 83 14.75V12.5C83 12.3674 82.9473 12.2402 82.8536 12.1464C82.7598 12.0527 82.6326 12 82.5 12H76.25C76.1837 12 76.1201 11.9737 76.0732 11.9268C76.0263 11.8799 76 11.8163 76 11.75V10C76 9.73478 75.8946 9.48043 75.7071 9.29289C75.5196 9.10536 75.2652 9 75 9C74.7348 9 74.4804 9.10536 74.2929 9.29289C74.1054 9.48043 74 9.73478 74 10V14.75C74 14.9489 73.921 15.1397 73.7803 15.2803C73.6397 15.421 73.4489 15.5 73.25 15.5C73.0511 15.5 72.8603 15.421 72.7197 15.2803C72.579 15.1397 72.5 14.9489 72.5 14.75V12.5C72.5 12.3674 72.4473 12.2402 72.3536 12.1464C72.2598 12.0527 72.1326 12 72 12H70.5C69.9696 12 69.4609 12.2107 69.0858 12.5858C68.7107 12.9609 68.5 13.4696 68.5 14V31C68.5 31.5304 68.7107 32.0391 69.0858 32.4142C69.4609 32.7893 69.9696 33 70.5 33H89.5C90.0304 33 90.5391 32.7893 90.9142 32.4142C91.2893 32.0391 91.5 31.5304 91.5 31V14C91.5 13.4696 91.2893 12.9609 90.9142 12.5858C90.5391 12.2107 90.0304 12 89.5 12ZM89.5 30.5C89.5 30.6326 89.4473 30.7598 89.3536 30.8536C89.2598 30.9473 89.1326 31 89 31H71C70.8674 31 70.7402 30.9473 70.6464 30.8536C70.5527 30.7598 70.5 30.6326 70.5 30.5V18.5C70.5 18.3674 70.5527 18.2402 70.6464 18.1464C70.7402 18.0527 70.8674 18 71 18H89C89.1326 18 89.2598 18.0527 89.3536 18.1464C89.4473 18.2402 89.5 18.3674 89.5 18.5V30.5Z" fill="#064B70"/>
<path fill-rule="evenodd" clip-rule="evenodd" d="M75.079 64.6569L88.9102 58.6125C91.3331 56.21 93.6728 54.384 95.9292 53.1344C96.6039 52.9207 97.7566 52.8561 96.5268 54.6436C95.2969 56.4311 94.0841 58.3663 94.5755 58.9928C95.0669 59.6193 96.4905 58.9278 97.0529 59.9466C97.4278 60.6257 95.0282 61.4381 89.8542 62.3838L79.4954 70.2869L75.079 64.6569Z" fill="#B28B67"/>
<path fill-rule="evenodd" clip-rule="evenodd" d="M19.1611 66.3184L26.983 67.8627C19.1167 82.4504 14.8981 90.1819 14.3273 91.0572C13.043 93.0266 14.2413 96.6359 14.6839 98.5366C11.907 99.1798 13.0022 95.0207 9.488 95.8891C6.28045 96.6817 3.56083 98.7159 0.569913 95.9725C0.202198 95.6352 -0.0669871 94.581 1.18674 94.0403C4.31023 92.6932 8.92493 90.1707 9.6732 89.1914C10.6936 87.856 13.8562 80.2316 19.1611 66.3184Z" fill="#B28B67"/>
<path fill-rule="evenodd" clip-rule="evenodd" d="M51.3567 32.1097C53.9279 33.7235 56.4542 34.5033 57.6401 34.1849C60.6138 33.3868 60.8872 22.0588 58.5863 17.5929C56.2854 13.1271 44.457 11.1806 43.8608 20.0289C43.6538 23.0998 44.8922 25.8404 46.7218 28.0767L43.4412 43.9991H52.9706L51.3567 32.1097Z" fill="#B28B67"/>
<path fill-rule="evenodd" clip-rule="evenodd" d="M59.4859 19.5992C59.3915 19.0203 59.1608 18.3775 58.9747 17.8298C58.7347 17.1238 58.3715 16.4872 57.9719 15.8873C57.2194 14.7578 56.3168 13.7379 55.3202 12.8913C53.4998 11.3451 51.1824 10.4532 48.9037 10.7428C47.7531 10.889 46.6362 11.346 45.6855 12.1067C44.8266 12.794 44.0005 13.8057 42.8883 13.8784C41.6782 13.9574 40.5689 12.8452 39.5984 12.1583C38.5041 11.3839 37.34 10.8196 36.0611 10.6002C33.9186 10.2329 31.9059 10.9867 30.4293 12.8171C28.858 14.7649 27.7158 17.6214 28.7477 20.2023C28.9395 20.6821 29.1862 21.0865 29.5404 21.4218C29.8652 21.7292 30.3612 22.0562 30.4929 22.5474C30.6327 23.0695 30.2149 23.743 30.0529 24.2141C29.8208 24.889 29.6302 25.5975 29.698 26.3311C29.8093 27.5359 30.5364 28.6861 31.3041 29.4779C32.0854 30.2837 33.047 30.7458 34.0741 30.9588C34.7599 31.101 35.4608 31.1795 36.1578 31.1261C36.5038 31.0996 36.8091 30.9995 37.1443 30.92C37.4704 30.8425 37.6526 30.9327 37.9291 31.1189C39.214 31.9839 40.5956 32.3185 42.0793 32.1899C43.3314 32.0813 44.7746 31.7653 45.7961 30.8719C46.9305 29.8797 46.9079 28.5115 46.641 27.0497C46.9238 27.1956 47.7062 27.286 47.2387 26.7043C47.0534 26.4738 46.7035 26.3801 46.4658 26.2446C46.1891 26.0868 45.9082 25.8829 45.6933 25.6255C44.8257 24.5862 45.702 22.4712 46.7925 22.1227C48.4127 21.6049 48.7754 23.9909 49.932 24.6081C50.597 24.9629 51.2927 24.4779 51.7909 23.9826C52.4583 23.3192 52.9132 22.4402 53.3059 21.5458C53.6294 20.8092 53.9304 20.0623 54.2601 19.3294C54.414 18.9871 54.947 18.0196 54.6794 17.6326C55.8398 17.3916 57.1324 17.8938 58.1318 18.5523C58.5449 18.8245 58.8598 19.1247 59.0802 19.6053C59.1274 19.7083 59.2301 20.0144 59.3592 20.0269C59.5994 20.0503 59.5096 19.7446 59.4859 19.5992Z" fill="#121212"/>
<path fill-rule="evenodd" clip-rule="evenodd" d="M48.2429 37.1978L51.5436 36.6344C58.7329 43.5741 61.6668 60.2465 66.4579 62.4533C70.9877 64.5398 77.4091 62.5207 85.042 59.7945L87.3795 64.9914C80.4443 72.4575 65.6698 78.7652 59.681 75.1642C50.1062 69.4071 47.8958 48.8442 48.2429 37.1978Z" fill="#4FC254"/>
<path d="M60.8466 90.0431C57.9975 90.6697 55.0373 91 52 91C44.4895 91 37.4508 88.9806 31.397 85.4551C32.9812 67.4282 37.8973 45.9092 44.6064 35.1719L53.0307 36.4864C53.0307 47.636 55.5218 56.9071 57.7778 65.303C58.7383 68.8775 59.6561 72.2933 60.3209 75.628C60.476 76.4056 61.2437 86.219 60.8466 90.0431Z" fill="#005B89"/>
<path d="M44.0642 35.1719C25.1688 46.7586 13.7495 64.7197 9.80615 89.0551L15.9279 90.2483C19.984 85.546 24.99 77.8494 30.9457 67.1586C29.6921 72.1041 28.793 77.2424 28.4461 82.4487C28.4461 82.4487 32.7276 86.8667 40.0227 87.8744C47.3178 88.8821 53.6545 86.4499 53.6545 86.4499C58.7439 73.6514 47.3998 35.1719 47.3998 35.1719H44.0642Z" fill="#7ADC7E"/>
</svg>
