<svg width="100" height="100" viewBox="0 0 100 100" fill="none" xmlns="http://www.w3.org/2000/svg">
<rect x="11" y="9" width="82" height="82" rx="41" fill="#F9F9F9"/>
<path d="M90.5 18.5H88.64C88.4517 17.8618 88.197 17.2451 87.88 16.66L89.19 15.34C89.3311 15.2022 89.4429 15.0372 89.5185 14.855C89.5941 14.6729 89.6321 14.4772 89.63 14.28C89.6315 14.0828 89.5933 13.8874 89.5177 13.7053C89.4421 13.5232 89.3307 13.3581 89.19 13.22L87.78 11.81C87.6414 11.6697 87.4764 11.5583 87.2944 11.4823C87.1124 11.4063 86.9172 11.3671 86.72 11.3671C86.5228 11.3671 86.3276 11.4063 86.1456 11.4823C85.9636 11.5583 85.7986 11.6697 85.66 11.81L84.34 13.13C83.7571 12.806 83.14 12.5477 82.5 12.36V10.5C82.5 10.1022 82.342 9.72064 82.0607 9.43934C81.7794 9.15804 81.3978 9 81 9H79C78.6022 9 78.2206 9.15804 77.9393 9.43934C77.658 9.72064 77.5 10.1022 77.5 10.5V12.36C76.86 12.5477 76.2429 12.806 75.66 13.13L74.34 11.81C74.2014 11.6697 74.0364 11.5583 73.8544 11.4823C73.6724 11.4063 73.4772 11.3671 73.28 11.3671C73.0828 11.3671 72.8876 11.4063 72.7056 11.4823C72.5236 11.5583 72.3586 11.6697 72.22 11.81L70.81 13.22C70.6693 13.3581 70.5579 13.5232 70.4823 13.7053C70.4067 13.8874 70.3685 14.0828 70.37 14.28C70.3668 14.4774 70.4041 14.6734 70.4798 14.8557C70.5555 15.0381 70.6679 15.2029 70.81 15.34L72.12 16.66C71.803 17.2451 71.5483 17.8618 71.36 18.5H69.5C69.1022 18.5 68.7206 18.658 68.4393 18.9393C68.158 19.2206 68 19.6022 68 20V22C68 22.3978 68.158 22.7794 68.4393 23.0607C68.7206 23.342 69.1022 23.5 69.5 23.5H71.36C71.5465 24.1389 71.8013 24.7558 72.12 25.34L70.81 26.66C70.5291 26.9412 70.3713 27.3225 70.3713 27.72C70.3713 28.1175 70.5291 28.4988 70.81 28.78L72.22 30.19C72.505 30.4638 72.8848 30.6167 73.28 30.6167C73.6752 30.6167 74.055 30.4638 74.34 30.19L75.66 28.88C76.2442 29.1987 76.8611 29.4535 77.5 29.64V31.5C77.5 31.8978 77.658 32.2794 77.9393 32.5607C78.2206 32.842 78.6022 33 79 33H81C81.3978 33 81.7794 32.842 82.0607 32.5607C82.342 32.2794 82.5 31.8978 82.5 31.5V29.64C83.1389 29.4535 83.7558 29.1987 84.34 28.88L85.66 30.19C85.7986 30.3303 85.9636 30.4417 86.1456 30.5177C86.3276 30.5937 86.5228 30.6329 86.72 30.6329C86.9172 30.6329 87.1124 30.5937 87.2944 30.5177C87.4764 30.4417 87.6414 30.3303 87.78 30.19L89.19 28.78C89.4709 28.4988 89.6287 28.1175 89.6287 27.72C89.6287 27.3225 89.4709 26.9412 89.19 26.66L87.88 25.34C88.1987 24.7558 88.4535 24.1389 88.64 23.5H90.5C90.8978 23.5 91.2794 23.342 91.5607 23.0607C91.842 22.7794 92 22.3978 92 22V20C92 19.6022 91.842 19.2206 91.5607 18.9393C91.2794 18.658 90.8978 18.5 90.5 18.5ZM80 26C79.0111 26 78.0444 25.7068 77.2221 25.1573C76.3999 24.6079 75.759 23.827 75.3806 22.9134C75.0022 21.9998 74.9031 20.9945 75.0961 20.0245C75.289 19.0546 75.7652 18.1637 76.4645 17.4645C77.1637 16.7652 78.0546 16.289 79.0245 16.0961C79.9945 15.9031 80.9998 16.0022 81.9134 16.3806C82.827 16.759 83.6079 17.3999 84.1573 18.2221C84.7068 19.0444 85 20.0111 85 21C85 22.3261 84.4732 23.5979 83.5355 24.5355C82.5979 25.4732 81.3261 26 80 26Z" fill="#005B89"/>
<path fill-rule="evenodd" clip-rule="evenodd" d="M75.079 64.6569L88.9102 58.6125C91.3331 56.21 93.6728 54.384 95.9292 53.1344C96.6039 52.9207 97.7566 52.8561 96.5268 54.6436C95.2969 56.4311 94.0841 58.3663 94.5755 58.9928C95.0669 59.6193 96.4905 58.9278 97.0529 59.9466C97.4278 60.6257 95.0282 61.4381 89.8542 62.3838L79.4954 70.2869L75.079 64.6569Z" fill="#B28B67"/>
<path fill-rule="evenodd" clip-rule="evenodd" d="M19.1611 66.3193L26.983 67.8637C19.1167 82.4514 14.8981 90.1829 14.3273 91.0582C13.043 93.0276 14.2413 96.6369 14.6839 98.5376C11.907 99.1808 13.0022 95.0217 9.488 95.8901C6.28045 96.6827 3.56083 98.7168 0.569913 95.9735C0.202198 95.6362 -0.0669871 94.582 1.18674 94.0413C4.31023 92.6942 8.92493 90.1717 9.6732 89.1924C10.6936 87.8569 13.8562 80.2326 19.1611 66.3193Z" fill="#B28B67"/>
<path fill-rule="evenodd" clip-rule="evenodd" d="M51.3567 32.1107C53.9279 33.7245 56.4542 34.5042 57.6401 34.1859C60.6138 33.3878 60.8872 22.0598 58.5863 17.5939C56.2854 13.1281 44.457 11.1816 43.8608 20.0298C43.6538 23.1008 44.8922 25.8414 46.7218 28.0777L43.4412 44.0001H52.9706L51.3567 32.1107Z" fill="#B28B67"/>
<path fill-rule="evenodd" clip-rule="evenodd" d="M59.4859 19.5989C59.3915 19.02 59.1608 18.3772 58.9747 17.8296C58.7347 17.1235 58.3715 16.487 57.9719 15.8871C57.2194 14.7576 56.3168 13.7376 55.3202 12.8911C53.4998 11.3448 51.1824 10.4529 48.9037 10.7426C47.7531 10.8888 46.6362 11.3458 45.6855 12.1065C44.8266 12.7937 44.0005 13.8055 42.8883 13.8781C41.6782 13.9572 40.5689 12.8449 39.5984 12.158C38.5041 11.3836 37.34 10.8193 36.0611 10.6C33.9186 10.2327 31.9059 10.9864 30.4293 12.8168C28.858 14.7647 27.7158 17.6212 28.7477 20.2021C28.9395 20.6818 29.1862 21.0863 29.5404 21.4215C29.8652 21.7289 30.3612 22.056 30.4929 22.5471C30.6327 23.0692 30.2149 23.7428 30.0529 24.2139C29.8208 24.8888 29.6302 25.5973 29.698 26.3309C29.8093 27.5357 30.5364 28.6858 31.3041 29.4777C32.0854 30.2835 33.047 30.7456 34.0741 30.9586C34.7599 31.1008 35.4608 31.1793 36.1578 31.1259C36.5038 31.0994 36.8091 30.9993 37.1443 30.9197C37.4704 30.8423 37.6526 30.9325 37.9291 31.1186C39.214 31.9836 40.5956 32.3183 42.0793 32.1896C43.3314 32.081 44.7746 31.765 45.7961 30.8717C46.9305 29.8795 46.9079 28.5113 46.641 27.0494C46.9238 27.1954 47.7062 27.2858 47.2387 26.704C47.0534 26.4736 46.7035 26.3798 46.4658 26.2443C46.1891 26.0865 45.9082 25.8826 45.6933 25.6252C44.8257 24.586 45.702 22.471 46.7925 22.1225C48.4127 21.6047 48.7754 23.9906 49.932 24.6078C50.597 24.9627 51.2927 24.4776 51.7909 23.9824C52.4583 23.3189 52.9132 22.44 53.3059 21.5456C53.6294 20.809 53.9304 20.062 54.2601 19.3291C54.414 18.9869 54.947 18.0193 54.6794 17.6323C55.8398 17.3914 57.1324 17.8935 58.1318 18.552C58.5449 18.8243 58.8598 19.1244 59.0802 19.605C59.1274 19.708 59.2301 20.0141 59.3592 20.0267C59.5994 20.0501 59.5096 19.7444 59.4859 19.5989Z" fill="#121212"/>
<path fill-rule="evenodd" clip-rule="evenodd" d="M48.2429 37.197L51.5436 36.6337C58.7329 43.5733 61.6668 60.2457 66.4579 62.4526C70.9877 64.5391 77.4091 62.52 85.042 59.7937L87.3795 64.9907C80.4443 72.4568 65.6698 78.7644 59.681 75.1635C50.1062 69.4064 47.8958 48.8435 48.2429 37.197Z" fill="#B7A1DD"/>
<path d="M60.8466 90.0431C57.9975 90.6697 55.0373 91 52 91C44.4895 91 37.4508 88.9806 31.397 85.4551C32.9812 67.4282 37.8973 45.9092 44.6064 35.1719L53.0307 36.4864C53.0307 47.636 55.5218 56.9071 57.7778 65.303C58.7383 68.8775 59.6561 72.2933 60.3209 75.628C60.476 76.4056 61.2437 86.219 60.8466 90.0431Z" fill="#005B89"/>
<path d="M44.0642 35.1719C25.1688 46.7586 13.7495 64.7197 9.80615 89.0551L15.9279 90.2483C19.984 85.546 24.99 77.8494 30.9457 67.1586C29.6921 72.1041 28.793 77.2424 28.4461 82.4487C28.4461 82.4487 32.7276 86.8667 40.0227 87.8744C47.3178 88.8821 53.6545 86.4499 53.6545 86.4499C58.7439 73.6514 47.3998 35.1719 47.3998 35.1719H44.0642Z" fill="#D1C4E9"/>
</svg>
