<svg width="226" height="226" viewBox="0 0 226 226" fill="none" xmlns="http://www.w3.org/2000/svg">
<rect x="11.5254" y="11.5254" width="202.95" height="202.95" rx="101.475" fill="white"/>
<g filter="url(#filter0_d_12192_20758)">
<path d="M71.2664 48.2963C71.1207 44.123 74.3857 40.6217 78.559 40.476L136.631 38.4481C140.805 38.3023 144.306 41.5673 144.452 45.7407L149.178 181.08C149.324 185.253 146.059 188.754 141.885 188.9L83.8129 190.928C79.6396 191.074 76.1383 187.809 75.9926 183.635L71.2664 48.2963Z" fill="#C2C7CA"/>
</g>
<path d="M89.778 43.2974L79.361 43.6611C76.5787 43.7583 74.4021 46.0925 74.4992 48.8747L79.1704 182.638C79.2675 185.42 81.6017 187.597 84.3839 187.5L140.868 185.527C143.65 185.43 145.826 183.096 145.729 180.314L141.058 46.5504C140.961 43.7682 138.627 41.5915 135.845 41.6887L125.631 42.0453L125.713 44.3864C125.768 45.963 124.534 47.2857 122.958 47.3408L92.8141 48.3934C91.2375 48.4485 89.9148 47.215 89.8597 45.6384L89.778 43.2974Z" fill="white"/>
<path fill-rule="evenodd" clip-rule="evenodd" d="M88.7076 62.5966C92.3414 63.2278 91.2109 68.7681 87.7725 67.4849C86.5745 67.0377 84.8092 65.7457 85.4714 64.2234C85.966 63.086 87.5781 62.4883 88.7076 62.5966ZM87.202 60.875C84.8388 61.2728 83.2232 63.8302 84.0335 66.0609C84.8151 68.213 87.7799 69.7889 89.9663 69.0155C92.0536 68.2771 93.0949 65.5 92.3912 63.4684C91.6559 61.3457 89.2606 60.5284 87.202 60.875Z" fill="#DEDEDE"/>
<path fill-rule="evenodd" clip-rule="evenodd" d="M109.306 63.2433C108.402 63.3184 107.62 63.9519 106.709 64.064C105.858 64.1689 105.153 63.8776 104.356 63.6448C103.392 63.3635 102.509 63.2398 101.524 63.4898C100.772 63.6808 100.03 64.1927 99.2485 64.2545C97.7108 64.3759 95.9237 62.6215 94.7232 64.6058C94.1477 65.5571 94.9833 66.1698 95.8441 65.7262C96.7416 65.2638 96.301 65.0982 97.4142 65.3714C98.343 65.5991 99.0937 65.7228 100.024 65.4036C100.867 65.1146 101.607 64.5856 102.523 64.5261C103.42 64.468 104.2 64.8765 105.057 65.0528C106.112 65.2695 107.044 65.1055 108.043 64.775C108.994 64.4607 109.373 64.2888 110.331 64.5692C110.939 64.7468 112.265 65.3109 112.856 64.8563C113.878 64.0703 112.51 63.9554 111.971 63.8437C111.104 63.664 110.206 63.1697 109.306 63.2433Z" fill="#DEDEDE"/>
<path fill-rule="evenodd" clip-rule="evenodd" d="M129.118 62.5303C130.439 62.6154 131.867 65.0213 130.117 65.1067C128.885 65.1669 127.507 63.06 129.118 62.5303ZM128.933 60.5614C124.756 61.7277 126.666 67.6157 130.694 66.9356C132.524 66.6266 133.144 64.5068 132.539 62.9376C132.279 62.2636 131.773 61.6953 131.167 61.3075C130.721 61.0213 129.443 60.4193 128.933 60.5614Z" fill="#DEDEDE"/>
<path d="M109.452 72.8544C113.127 72.7282 116.803 72.6021 120.482 72.568C122.475 72.5495 124.458 72.5844 126.449 72.6986C127.332 72.7493 128.215 72.7982 129.098 72.8355C129.25 72.842 129.461 72.8316 129.694 72.8202C130.24 72.7933 130.908 72.7604 131.222 72.9266C132.98 73.8563 129.399 73.9583 128.964 73.9509C127.989 73.9345 127.016 73.8864 126.042 73.8383C125.191 73.7962 124.34 73.7541 123.488 73.7332C118.023 73.599 112.525 73.8445 107.051 74.0889C105.796 74.145 104.543 74.2009 103.291 74.2523C101.962 74.3068 100.633 74.3421 99.305 74.3774C97.4059 74.4278 95.507 74.4783 93.6079 74.5849C92.8828 74.6257 92.1578 74.6688 91.4328 74.712C90.3942 74.7738 89.3555 74.8356 88.3165 74.8904C87.5031 74.9333 86.6895 74.9749 85.8749 74.9954C85.7283 74.9991 85.5372 75.0195 85.3286 75.0417C84.8236 75.0956 84.216 75.1604 83.8878 75.0263C83.4929 74.8647 83.1736 74.639 83.3907 74.1605C83.5743 73.7559 84.2415 73.8044 84.728 73.8398C84.8608 73.8495 84.9802 73.8581 85.0725 73.8563C86.6272 73.8262 88.1785 73.7389 89.7304 73.6439C90.2982 73.6091 90.8658 73.5734 91.4333 73.5377C94.3877 73.3519 97.3394 73.1662 100.301 73.1158C103.353 73.0637 106.402 72.959 109.452 72.8544Z" fill="#DEDEDE"/>
<path d="M128.646 97.0425L129.703 97.0296C130.248 97.0772 130.492 97.6499 130.142 98.09C129.874 98.4272 128.841 98.4425 128.169 98.4524C127.982 98.4552 127.823 98.4575 127.716 98.4662C125.959 98.6073 124.206 98.6709 122.444 98.6877C118.734 98.723 115.038 98.882 111.334 99.0933C107.542 99.3094 103.747 99.3907 99.9524 99.472C97.1603 99.5318 94.3679 99.5917 91.5768 99.7052C89.9785 99.7702 88.38 99.8188 86.7809 99.8607C86.6091 99.8652 86.3805 99.8899 86.122 99.9178C85.1119 100.027 83.6442 100.185 83.3116 99.3832C83.0163 98.6707 83.4274 98.3431 84.0281 98.1941C83.9335 97.7728 83.951 97.1808 83.9611 96.8416C83.9641 96.7396 83.9664 96.6605 83.9649 96.6158C83.9497 96.1903 83.9392 95.7647 83.9287 95.3391C83.9168 94.8569 83.9049 94.3746 83.8863 93.8926C83.8695 93.4552 83.8538 93.0173 83.8381 92.5791C83.7762 90.8512 83.7142 89.1191 83.5812 87.398C83.5199 86.6037 83.4225 85.8187 83.3253 85.0349C83.1701 83.7837 83.0153 82.5356 83.0082 81.2581C83.007 81.0284 82.9955 80.741 82.9825 80.4169C82.9161 78.7583 82.8112 76.1364 83.8406 75.3379C85.6558 74.2786 85.297 77.336 85.1369 78.7005C85.1105 78.9258 85.0894 79.1049 85.0845 79.2118C84.9802 81.4807 85.1217 83.6496 85.3501 85.9042C85.5042 87.4268 85.4142 88.9443 85.324 90.4643C85.2918 91.0072 85.2596 91.5504 85.2385 92.0943C85.228 92.3634 85.2187 92.6323 85.2094 92.9012C85.1808 93.7288 85.1523 94.5556 85.0899 95.3822C85.0832 95.4716 85.081 95.6431 85.0781 95.8623C85.07 96.4801 85.0569 97.4768 84.9248 98.082C85.2058 98.07 85.4784 98.073 85.7038 98.0755C85.8476 98.077 85.9723 98.0784 86.0676 98.0755C86.5009 98.0624 86.9343 98.0497 87.3676 98.037C88.6476 97.9995 89.9276 97.962 91.2074 97.9139C94.2287 97.8003 97.2508 97.7623 100.273 97.7244C103.842 97.6795 107.412 97.6347 110.98 97.4652C116.859 97.1858 122.76 97.1141 128.646 97.0425Z" fill="#DEDEDE"/>
<path d="M129.742 74.8604C129.739 78.747 130.039 82.527 130.39 86.3979C130.607 88.7923 130.782 91.196 130.92 93.5964C130.927 93.7075 130.926 93.893 130.924 94.1254C130.917 95.4527 130.902 98.313 132.214 97.6288C133.204 97.1121 132.824 94.1165 132.613 92.459C132.567 92.0955 132.529 91.7962 132.515 91.6017C132.487 91.188 132.458 90.7744 132.43 90.3609L132.43 90.3586C132.298 88.4341 132.166 86.5112 131.992 84.589L131.956 84.1838C131.755 81.9638 131.554 79.7454 131.518 77.515C131.516 77.3305 131.533 77.0736 131.553 76.7834C131.611 75.9438 131.689 74.8257 131.34 74.3797C130.849 73.7523 129.743 73.9378 129.742 74.8604Z" fill="#DEDEDE"/>
<path d="M109.617 84.3874C114.311 82.2635 119.06 80.115 123.941 78.5852C124.294 78.4748 124.517 78.8386 124.437 79.1439C124.355 79.4585 123.591 79.7268 123.085 79.9048C122.933 79.9581 122.805 80.0032 122.724 80.0391C122.042 80.3436 121.359 80.6444 120.675 80.9452C119.975 81.2532 119.275 81.5612 118.577 81.8732C117.125 82.5219 115.672 83.1676 114.219 83.8133C112.663 84.5049 111.107 85.1965 109.552 85.8917C109.494 85.9178 109.436 85.9438 109.377 85.9699C111.491 86.721 113.593 87.5057 115.685 88.3142C116.4 88.5904 117.113 88.8724 117.825 89.1544C118.229 89.3139 118.632 89.4735 119.036 89.632C119.167 89.6835 119.396 89.7534 119.671 89.8374C120.567 90.111 121.953 90.5344 122.056 90.9619C122.223 91.6584 120.309 90.9846 119.587 90.7304C119.491 90.6967 119.416 90.6704 119.37 90.6556C118.304 90.3151 117.251 89.9356 116.199 89.5563L116.054 89.5038C115.22 89.2034 114.387 88.8997 113.554 88.5961C111.927 88.0029 110.301 87.4098 108.665 86.8407C108.434 86.7603 108.203 86.6801 107.971 86.6001C105.346 87.7793 102.726 88.9698 100.115 90.1792C98.7146 90.8276 97.3222 91.491 95.9337 92.1634C95.6306 92.3101 95.2553 92.537 94.8476 92.7834C93.8704 93.3739 92.7072 94.077 91.907 94.0595C91.478 94.05 91.1889 93.958 91.144 93.438C91.098 92.9014 91.7865 92.6198 92.2816 92.4174C92.4001 92.369 92.5075 92.3251 92.5911 92.2833C94.0752 91.5411 95.5685 90.8176 97.0661 90.1032C100.04 88.6845 103.043 87.3225 106.055 85.9876C106.073 85.9796 106.091 85.9717 106.109 85.9637C104.438 85.3982 102.763 84.8461 101.084 84.3058C100.916 84.2518 100.572 84.1566 100.12 84.0314C97.9855 83.4402 93.4379 82.1807 93.6404 81.445C93.8724 80.6035 98.136 82.1416 100.024 82.8226C100.377 82.9502 100.648 83.0477 100.792 83.0938C103.049 83.813 105.299 84.5525 107.538 85.3257C108.23 85.0148 108.923 84.7014 109.617 84.3874Z" fill="#DEDEDE"/>
<path fill-rule="evenodd" clip-rule="evenodd" d="M89.508 102.873C90.8821 103.114 91.8513 104.432 91.7006 105.813C91.4969 107.678 89.638 108.533 87.9207 108.289C85.9721 108.013 85.5623 106.366 86.5063 104.781C86.7153 104.43 86.9557 104.011 87.3356 103.826C87.5968 103.699 87.9296 103.811 88.1399 103.709C88.8775 103.35 88.4341 102.778 89.508 102.873ZM88.8819 101.655C87.2052 101.869 84.1071 103.81 84.264 105.751C84.4001 105.976 84.6047 106.068 84.8779 106.027C84.8121 106.448 84.8335 106.864 84.9422 107.275C85.1014 107.809 85.4191 108.247 85.8449 108.595C86.7217 109.312 87.9203 109.488 89.0122 109.362C91.051 109.128 92.6578 107.734 92.7723 105.614C92.8841 103.544 91.0773 101.378 88.8819 101.655Z" fill="#DEDEDE"/>
<path fill-rule="evenodd" clip-rule="evenodd" d="M96.9981 104.179C96.2458 104.578 95.0557 105.19 94.6145 105.947C94.1485 106.747 94.6311 107.622 95.6131 107.244C96.3926 106.944 96.8884 105.989 97.72 105.683C98.4538 105.413 98.7496 105.551 99.5251 105.82C100.324 106.097 101.023 106.364 101.887 106.296C102.973 106.211 103.913 105.581 104.976 105.438C105.871 105.318 106.609 105.666 107.466 105.804C108.46 105.965 109.11 105.589 110.04 105.393C110.673 105.259 111.788 105.802 112.25 105.599C113.288 105.143 112.19 104.585 111.615 104.4C110.647 104.09 110.052 104.364 109.131 104.621C108.132 104.901 107.7 104.691 106.745 104.434C104.812 103.915 103.319 105.17 101.487 104.942C99.791 104.731 98.7761 103.238 96.9981 104.179Z" fill="#DEDEDE"/>
<path fill-rule="evenodd" clip-rule="evenodd" d="M128.6 103.252C130.461 104.996 128.371 107.477 126.32 106.083C125.598 105.593 125.586 104.805 126.148 104.1C126.662 103.455 127.791 103.203 128.6 103.252ZM127.91 101.843C126.172 102.181 124.532 102.978 124.375 104.984C124.221 106.941 126.229 107.85 127.915 107.722C131.702 107.434 131.428 101.163 127.91 101.843Z" fill="#DEDEDE"/>
<g opacity="0.5">
<path fill-rule="evenodd" clip-rule="evenodd" d="M102.228 119.555C99.5682 119.585 96.9099 119.683 94.2556 119.851C91.7314 120.011 88.9927 119.889 86.5096 120.379C85.8046 120.518 84.8521 121.16 85.7896 121.867C86.4486 122.364 88.8595 121.792 89.6464 121.744C92.5442 121.566 95.4436 121.353 98.3455 121.25C101.093 121.153 103.84 121.119 106.588 121.091C107.008 121.087 107.705 120.953 108.123 121.074C108.723 121.25 108.581 121.297 108.626 122.059C108.707 123.44 108.685 124.826 108.657 126.208C108.631 127.546 108.581 128.883 108.586 130.221C108.589 131.176 108.284 133.073 108.763 133.902C109.453 135.096 110.168 133.8 110.22 133.007C110.318 131.49 110.274 129.954 110.275 128.436C110.275 127.01 110.285 125.584 110.235 124.16C110.198 123.13 110.346 121.334 109.791 120.398C109.226 119.445 107.867 119.65 106.875 119.605C105.327 119.534 103.777 119.539 102.228 119.555" fill="#C5CFD6"/>
<path fill-rule="evenodd" clip-rule="evenodd" d="M85.3066 121.274C85.3095 123.953 84.9996 126.613 84.9128 129.289C84.873 130.519 84.7922 131.869 85.1034 133.077C85.4175 134.296 86.4152 134.56 86.5301 133.199C86.7628 130.443 86.7058 127.585 86.887 124.806C86.9509 123.826 87.3672 122.028 86.9786 121.109C86.6364 120.3 85.3051 120.145 85.3066 121.274" fill="#C5CFD6"/>
<path fill-rule="evenodd" clip-rule="evenodd" d="M110.246 133.082C105.627 133.694 100.798 133.471 96.1467 133.567C93.9149 133.613 91.6837 133.616 89.4516 133.639C88.6726 133.647 86.6944 133.351 86.0205 133.789C84.9478 134.486 86.1117 135.024 86.8219 135.039C91.2267 135.136 95.6805 134.933 100.084 134.789C102.063 134.724 104.048 134.692 106.021 134.524C107.236 134.42 108.564 134.32 109.744 133.993C109.995 133.924 110.542 133.938 110.599 133.595C110.633 133.383 110.57 133.037 110.246 133.082" fill="#C5CFD6"/>
<path fill-rule="evenodd" clip-rule="evenodd" d="M91.0429 136.975C89.7592 136.983 85.8909 136.387 85.3593 137.638C84.6505 139.308 87.4154 138.918 88.1589 138.899C89.8478 138.856 91.5354 138.851 93.2247 138.852C94.8822 138.852 96.5396 138.842 98.1968 138.802C98.6769 138.791 99.7945 138.99 100.071 138.412C100.281 137.972 100.115 137.626 99.7276 137.393C98.796 136.833 96.3761 137.158 95.2855 137.108C93.8734 137.043 92.4567 136.975 91.0429 136.975" fill="#C5CFD6"/>
<path fill-rule="evenodd" clip-rule="evenodd" d="M106.656 137.285C105.922 137.328 104.439 137.026 103.781 137.362C103.034 137.743 103.298 138.341 103.943 138.603C104.389 138.785 106.221 138.69 106.656 138.479C107.11 138.259 107.622 137.225 106.656 137.285" fill="#C5CFD6"/>
<path fill-rule="evenodd" clip-rule="evenodd" d="M114.697 121.538C113.913 121.753 114.151 126.201 114.131 126.906C114.076 128.838 113.858 131.268 114.5 133.129C114.91 134.315 115.696 134.154 115.562 132.905C115.444 131.809 115.243 130.726 115.155 129.623C114.958 127.126 114.689 124.464 114.875 121.965C114.955 122.11 115.698 123.457 115.873 123.356C115.82 123.388 115.016 121.454 114.697 121.538" fill="#C5CFD6"/>
<path fill-rule="evenodd" clip-rule="evenodd" d="M123.514 119.899C121.928 119.923 120.343 119.951 118.757 119.995C117.497 120.03 115.516 119.823 114.361 120.353C112.984 120.984 113.637 122.391 114.93 122.42C116.074 122.447 117.293 122.189 118.447 122.149C121.564 122.043 124.687 122.02 127.805 121.993C130.625 121.969 133.566 122.27 136.361 121.846C136.776 125.528 135.654 129.226 136.036 132.95C136.095 133.528 136.068 134.345 136.804 134.476C137.733 134.643 137.772 133.722 137.807 133.064C137.907 131.182 137.853 129.299 137.991 127.416C138.118 125.67 138.37 123.886 138.157 122.137C137.896 119.985 136.865 120.158 135.043 120.069C131.193 119.88 127.368 119.843 123.514 119.899" fill="#C5CFD6"/>
<path fill-rule="evenodd" clip-rule="evenodd" d="M118.201 132.972C117.393 132.993 116.051 132.744 115.533 133.519C114.995 134.325 115.634 135.028 116.417 135.193C117.344 135.389 118.553 135.121 119.515 135.118C120.517 135.115 121.52 135.126 122.522 135.13C126.818 135.147 131.133 135.212 135.426 135.034C136.025 135.009 137.727 135.21 138.142 134.635C138.51 134.125 138.252 133.668 137.767 133.408C136.972 132.981 135.338 133.144 134.453 133.11C133.36 133.068 132.265 133.055 131.172 133.038C126.856 132.971 122.517 132.866 118.201 132.972" fill="#C5CFD6"/>
<path fill-rule="evenodd" clip-rule="evenodd" d="M121.834 136.7C120.226 136.728 118.511 136.657 116.919 136.901C115.52 137.115 115.347 138.468 116.854 138.627C118.238 138.772 119.917 138.5 121.308 138.411C121.802 138.379 122.377 138.424 122.614 137.878C122.861 137.307 122.389 136.76 121.834 136.7" fill="#C5CFD6"/>
<path fill-rule="evenodd" clip-rule="evenodd" d="M133.99 136.843C133.132 136.864 130.625 136.495 130.2 137.475C129.492 139.107 132.886 138.487 133.537 138.463C134.357 138.433 137.554 138.912 137.555 137.606C137.556 136.325 134.775 136.823 133.99 136.843" fill="#C5CFD6"/>
<path fill-rule="evenodd" clip-rule="evenodd" d="M85.169 144.952C85.171 147.92 84.9863 150.916 85.2571 153.877C85.3691 155.102 85.3499 157.448 86.0592 158.486C86.5627 159.223 87.2611 159.171 87.5361 158.286C87.72 157.695 87.4259 156.512 87.3931 155.879C87.3615 155.272 87.3246 154.665 87.2965 154.057C87.2243 152.492 87.23 150.929 87.2516 149.364C87.27 148.02 87.5933 146.243 87.2885 144.952C87.0042 143.748 85.169 143.466 85.169 144.952" fill="#F1F1F1"/>
<path fill-rule="evenodd" clip-rule="evenodd" d="M115 142.339C109.85 142.468 104.689 142.352 99.5431 142.607C97.0054 142.733 94.4777 143.009 91.9528 143.284C90.7123 143.42 89.4725 143.559 88.2342 143.712C87.8605 143.758 84.7554 143.878 85.9233 145.059C86.4333 145.574 88.0561 145.036 88.6982 144.96C89.9415 144.813 91.1873 144.685 92.4323 144.553C94.8015 144.303 97.1736 144.065 99.5529 143.934C105.156 143.623 110.783 143.716 116.392 143.509C117.909 143.454 119.422 143.413 120.94 143.473C121.339 143.489 124.268 143.638 122.996 142.556C122.395 142.044 120.127 142.308 119.376 142.293C117.918 142.263 116.458 142.302 115 142.339" fill="#F1F1F1"/>
<path fill-rule="evenodd" clip-rule="evenodd" d="M122.024 147.341C121.999 145.969 121.973 144.598 121.911 143.228C121.845 141.784 123.811 141.566 124.394 142.734C124.814 143.575 124.74 145.006 124.677 146.232C124.651 146.727 124.627 147.188 124.638 147.563C124.663 148.425 124.727 149.315 124.791 150.218C124.953 152.489 125.119 154.835 124.695 156.979C124.488 158.021 123.608 158.569 123.024 157.999C123.023 158 123.022 158.001 123.022 158.002C122.802 158.326 122.117 158.326 121.612 158.325C121.473 158.325 121.348 158.325 121.25 158.331C119.868 158.425 118.512 158.584 117.142 158.789C114.413 159.198 111.708 159.45 108.95 159.518C107.078 159.564 105.204 159.58 103.329 159.595C99.7387 159.625 96.1468 159.655 92.5681 159.9C91.3616 159.983 90.1734 160.125 88.9866 160.353C88.8856 160.372 88.7734 160.397 88.654 160.423C87.7715 160.62 86.4941 160.904 86.4068 159.671C86.303 158.207 89.4753 158.015 91.1077 157.917C91.357 157.901 91.5703 157.889 91.7306 157.874C96.6874 157.413 101.722 157.484 106.7 157.555C106.941 157.558 107.182 157.561 107.423 157.565C107.811 157.57 108.2 157.577 108.588 157.583C110.719 157.618 112.848 157.653 114.979 157.523C115.948 157.463 116.93 157.433 117.914 157.403C119.484 157.354 121.059 157.305 122.595 157.139C122.363 156.241 122.323 155.182 122.285 154.184C122.27 153.796 122.255 153.416 122.23 153.059C122.095 151.155 122.06 149.248 122.024 147.341Z" fill="#F1F1F1"/>
<path fill-rule="evenodd" clip-rule="evenodd" d="M126.19 144.284C125.494 144.378 124.914 144.974 125.225 145.729C125.616 146.68 126.781 146.309 127.551 146.248C129.998 146.057 132.552 146.439 134.969 146.151C135.63 146.072 136.587 145.712 135.995 144.825C135.549 144.158 133.926 144.275 133.236 144.212C130.876 143.993 128.547 144.052 126.19 144.284" fill="#AFB9C5"/>
<path fill-rule="evenodd" clip-rule="evenodd" d="M130.318 148.434C129.369 148.497 127.16 148.447 126.761 149.527C126.043 151.464 128.853 150.781 129.708 150.671C130.702 150.543 133.044 150.886 133.574 149.922C134.52 148.199 131.15 148.376 130.318 148.434" fill="#AFB9C5"/>
<path fill-rule="evenodd" clip-rule="evenodd" d="M127.881 152.685C127.431 153.135 127.43 153.939 127.881 154.39C128.433 154.941 129.635 154.827 130.361 154.867C131.372 154.923 134.278 155.458 134.78 154.267C135.458 152.66 132.827 152.694 131.961 152.603C130.961 152.497 128.71 151.856 127.881 152.685" fill="#AFB9C5"/>
<path fill-rule="evenodd" clip-rule="evenodd" d="M92.4219 125.174C92.4219 126.902 95.1205 126.902 95.1205 125.174C95.1205 123.455 92.4219 123.429 92.4219 125.174" fill="#C5CFD6"/>
<path fill-rule="evenodd" clip-rule="evenodd" d="M97.5371 125.195C97.5371 127.17 100.611 127.166 100.611 125.195C100.611 123.226 97.5371 123.206 97.5371 125.195" fill="#C5CFD6"/>
<path fill-rule="evenodd" clip-rule="evenodd" d="M94.4426 127.819C92.9484 128.231 94.3249 129.497 95.0187 129.787C96.1213 130.246 97.6262 130.585 98.7291 129.896C99.1679 129.622 99.5242 129.257 99.2026 128.725C98.8599 128.158 98.3908 128.41 97.8692 128.462C97.2083 128.529 96.6742 128.519 96.036 128.307C95.5597 128.149 94.9621 127.676 94.4426 127.819" fill="#C5CFD6"/>
<path fill-rule="evenodd" clip-rule="evenodd" d="M121.545 125.283C121.545 126.451 123.36 126.451 123.36 125.283C123.36 124.114 121.545 124.114 121.545 125.283" fill="#C5CFD6"/>
<path fill-rule="evenodd" clip-rule="evenodd" d="M125.557 125.459C125.557 126.758 127.573 126.758 127.573 125.459C127.573 124.161 125.557 124.161 125.557 125.459" fill="#C5CFD6"/>
<path fill-rule="evenodd" clip-rule="evenodd" d="M125.408 128.276C124.349 128.413 121.286 128.723 121.114 130.029C120.85 132.043 124.206 130.413 124.972 130.254C125.948 130.053 126.819 130.106 127.793 130.145C128.327 130.166 129.039 130.253 128.983 129.438C128.891 128.101 126.333 128.158 125.408 128.276" fill="#C5CFD6"/>
<path fill-rule="evenodd" clip-rule="evenodd" d="M98.7834 146.85C98.0159 147.054 97.0117 148.381 97.5399 149.193C98.4058 150.525 98.7877 148.48 99.1501 148.283C99.8095 147.925 100.345 149.234 101.034 148.548C102.121 147.464 99.468 146.666 98.7834 146.85" fill="#F1F1F1"/>
<path fill-rule="evenodd" clip-rule="evenodd" d="M107.577 145.863C106.666 145.871 104.745 147.16 104.609 148.111C104.528 148.677 104.903 149.22 105.512 149.227C106.342 149.238 106.606 148.158 107.325 147.933C108.101 147.689 107.986 148.25 108.656 148.54C109.147 148.753 109.76 148.664 109.931 148.061C110.252 146.924 108.512 145.845 107.577 145.863" fill="#F1F1F1"/>
<path fill-rule="evenodd" clip-rule="evenodd" d="M100.61 151.313C99.1539 152.167 101.55 153.995 102.38 154.224C103.634 154.569 106.157 153.925 106.455 152.393C106.573 151.784 106.191 151.232 105.519 151.341C104.965 151.431 104.61 152.126 104.097 152.374C103.404 152.71 102.788 152.687 102.2 152.182C101.721 151.77 101.464 150.815 100.61 151.313" fill="#F1F1F1"/>
<path fill-rule="evenodd" clip-rule="evenodd" d="M101.665 163.918C100.364 164.196 99.0416 164.009 97.7345 164.27C96.4017 164.536 95.6051 165.04 94.3668 164.533C94.3085 164.508 94.2504 164.483 94.1923 164.459C93.2339 164.046 92.2293 163.924 91.2261 164.582C90.6324 164.971 88.8301 166.318 89.0474 167.139C89.5181 168.921 91.5461 166.127 92.0632 165.855C93.0493 165.336 93.7254 165.999 94.7406 166.186C95.9567 166.411 96.9352 165.768 98.0807 165.512C99.4204 165.213 100.928 165.109 102.291 164.948C102.829 164.885 104.869 165.311 105.053 164.641C105.369 163.489 102.176 163.81 101.665 163.918" fill="#AFB9C5"/>
<path fill-rule="evenodd" clip-rule="evenodd" d="M111.047 167.505C111.131 167.569 111.064 167.517 111.047 167.505ZM114.689 163.848C115.803 163.735 119.366 162.939 120.097 164.09C120.574 164.84 119.818 167.606 119.096 167.964C118.52 168.249 117.177 167.934 116.544 167.911C115.367 167.87 114.187 167.851 113.012 167.778C112.617 167.753 111.348 167.826 111.039 167.477C110.674 167.065 110.691 164.868 110.605 164.323C111.628 164.654 113.619 163.957 114.689 163.848M117.067 162.72C115.641 162.782 114.215 162.889 112.799 163.08C112.01 163.187 111.211 163.47 110.482 163.605C110.247 163.648 109.866 163.528 109.578 163.667C108.736 164.074 109.473 166.823 109.676 167.558C109.988 168.686 110.773 168.869 111.872 168.975C113.32 169.116 114.798 169.072 116.251 169.054C117.651 169.037 119.539 169.347 120.325 167.942C120.833 167.034 121.378 164.918 120.944 163.905C120.373 162.573 118.24 162.671 117.067 162.72" fill="#AFB9C5"/>
<path fill-rule="evenodd" clip-rule="evenodd" d="M133.046 168.265C132.971 168.362 132.971 168.362 133.046 168.265ZM133.355 167.888C133.331 167.923 133.223 168.038 133.355 167.888ZM129.952 167.782C130.581 167.664 131.21 167.547 131.839 167.432C131.243 168.267 130.616 167.922 129.597 167.849C129.716 167.827 129.834 167.805 129.952 167.782M126.956 167.489C127.115 167.435 127.275 167.382 127.434 167.329C127.429 167.45 127.455 167.564 127.512 167.669C127.239 167.64 126.967 167.608 126.695 167.575C126.782 167.546 126.869 167.517 126.956 167.489M125.564 166.463C125.555 166.244 125.885 166.394 126.073 166.379C125.709 166.7 125.54 166.727 125.564 166.463M130.535 163.978C130.583 163.917 130.646 163.92 130.725 163.987C130.639 164.016 130.308 164.156 130.535 163.978M133.763 163.6C133.771 163.6 133.949 163.84 133.763 163.6ZM133.67 163.521C133.717 163.556 133.717 163.556 133.67 163.521ZM133.266 163.474C133.926 163.585 133.876 164.358 133.266 163.474ZM125.522 163.421C125.389 163.531 125.434 163.424 125.522 163.421ZM128.043 161.774C126.924 161.839 124.87 161.774 123.936 162.37C122.716 163.148 123.358 165.827 123.467 167.001C123.628 168.737 124.445 169.232 126.08 169.414C128.031 169.631 130.036 169.672 131.997 169.62C133.763 169.574 134.769 168.966 135.092 167.107C135.191 166.538 135.443 165.658 135.435 165.113C135.429 164.735 135.241 164.562 135.17 164.241C134.764 162.411 134.086 162.194 132.21 162.114C130.829 162.055 129.398 161.703 128.043 161.774" fill="#C5CFD6"/>
</g>
<path fill-rule="evenodd" clip-rule="evenodd" d="M171.67 112.097C169.424 113.453 167.218 114.108 166.182 113.84C163.585 113.17 163.346 103.652 165.355 99.9004C167.365 96.1484 177.697 94.513 178.217 101.947C178.398 104.527 177.317 106.83 175.719 108.708L178.584 122.086H170.261L171.67 112.097Z" fill="#B28B67"/>
<path fill-rule="evenodd" clip-rule="evenodd" d="M161.669 94.6981C161.841 94.0913 162.305 93.5717 162.93 93.4175C163.081 93.3802 163.238 93.3651 163.394 93.3714C163.449 93.3736 163.465 93.3897 163.491 93.3506C163.511 93.3215 163.511 93.2506 163.519 93.2165C163.544 93.1103 163.575 93.0055 163.613 92.9034C163.744 92.5553 163.964 92.2471 164.228 91.9875C164.724 91.5019 165.393 91.1667 166.089 91.1061C166.469 91.0729 166.847 91.1349 167.207 91.2589C167.393 91.3231 167.574 91.403 167.75 91.4914C167.803 91.518 167.974 91.6483 168.028 91.6398C168.086 91.6305 168.204 91.4844 168.252 91.4477C168.842 90.9942 169.571 90.816 170.306 90.8214C171.135 90.8275 171.934 90.8691 172.626 91.3756C172.772 91.4828 172.912 91.6003 173.045 91.7239C173.115 91.789 173.182 91.8565 173.247 91.9268C173.286 91.9692 173.324 92.0126 173.361 92.0572C173.423 92.1328 173.413 92.1577 173.499 92.1049C173.832 91.9023 174.218 91.8075 174.607 91.8553C174.838 91.8838 175.062 91.9532 175.275 92.0445C175.348 92.0756 175.516 92.1996 175.593 92.2008C175.67 92.202 175.836 92.087 175.915 92.0578C176.342 91.8999 176.802 91.861 177.251 91.934C177.714 92.0093 178.169 92.1943 178.561 92.4499C178.75 92.5729 178.914 92.7092 179.046 92.892C179.103 92.971 179.155 93.0545 179.22 93.1277C179.258 93.1706 179.333 93.2146 179.353 93.2688C179.341 93.2363 179.859 93.0361 179.908 93.0233C180.169 92.9551 180.434 92.969 180.69 93.0531C181.169 93.2113 181.582 93.5661 181.921 93.9298C182.096 94.1167 182.248 94.3232 182.378 94.5432C182.44 94.6486 182.496 94.757 182.548 94.8677C182.573 94.9213 182.59 94.9884 182.623 95.0368C182.666 95.099 182.695 95.1002 182.772 95.1273C183.165 95.2652 183.523 95.4985 183.795 95.8137C184.071 96.1327 184.25 96.5254 184.325 96.939C184.33 96.9634 184.332 97.0644 184.347 97.0776C184.366 97.0957 184.445 97.0877 184.475 97.0912C184.578 97.1034 184.681 97.1215 184.783 97.1455C184.969 97.1898 185.151 97.255 185.323 97.3403C185.994 97.6727 186.474 98.2958 186.709 98.9971C186.955 99.7329 186.951 100.576 186.656 101.298C186.609 101.415 186.552 101.528 186.486 101.635C186.445 101.701 186.432 101.701 186.458 101.77C186.488 101.847 186.542 101.921 186.577 101.996C186.691 102.241 186.771 102.501 186.822 102.766C186.904 103.2 186.946 103.657 186.864 104.096C186.826 104.299 186.76 104.498 186.659 104.679C186.607 104.772 186.547 104.859 186.479 104.94C186.444 104.982 186.406 105.022 186.367 105.061C186.345 105.083 186.315 105.102 186.296 105.127C186.25 105.187 186.24 105.137 186.264 105.225C186.297 105.348 186.373 105.47 186.42 105.589C186.468 105.713 186.511 105.838 186.551 105.964C186.631 106.22 186.699 106.48 186.742 106.745C186.824 107.253 186.809 107.795 186.569 108.261C186.467 108.461 186.319 108.636 186.141 108.772C186.053 108.838 185.959 108.896 185.859 108.943C185.808 108.967 185.743 108.978 185.72 109.027C185.695 109.08 185.732 109.186 185.741 109.245C185.814 109.762 185.851 110.305 185.698 110.812C185.557 111.278 185.245 111.69 184.842 111.963C184.058 112.492 183.002 112.462 182.178 112.039C181.963 111.928 181.763 111.791 181.584 111.629C181.127 112.244 180.189 112.225 179.522 112.05C178.692 111.831 178.025 111.253 177.641 110.493C177.116 111.133 176.014 110.925 175.65 110.231C175.561 110.061 175.508 109.874 175.482 109.684C175.468 109.584 175.477 109.484 175.467 109.385C175.454 109.259 175.37 109.136 175.321 109.015C175.227 108.777 175.169 108.532 175.166 108.276C175.165 108.143 175.182 108.012 175.195 107.88C175.206 107.761 175.173 107.649 175.154 107.532C175.367 107.567 175.627 107.509 175.827 107.447C176.024 107.387 176.209 107.227 176.348 107.081C176.671 106.742 176.868 106.297 177.003 105.855C177.299 104.884 177.177 103.719 176.202 103.186C175.748 102.938 174.387 102.938 173.846 103.061C173.277 103.19 172.632 104.447 172.601 104.566C172.581 104.639 172.591 104.729 172.524 104.778C172.376 104.885 172.133 104.699 172.025 104.607C171.837 104.449 171.703 104.238 171.587 104.025C171.335 103.559 171.131 103.06 170.987 102.551C170.876 102.158 170.805 101.753 170.661 101.37C170.516 100.989 170.289 100.649 169.935 100.433C169.551 100.198 169.11 100.075 168.688 99.9272C168.27 99.781 167.858 99.6024 167.534 99.2922C167.463 99.224 167.393 99.1515 167.336 99.0712C167.291 99.0078 167.246 98.8864 167.177 98.8462C167.07 98.7837 166.913 98.9463 166.82 99.0054C166.362 99.2967 165.98 99.703 165.672 100.147C165.366 100.588 165.114 101.013 164.91 101.506C164.758 101.871 164.664 102.34 164.397 102.639C164.278 102.773 163.394 102.854 163.107 102.737C162.82 102.62 162.499 102.317 162.403 102.127C162.305 101.933 162.281 101.719 162.323 101.506C162.348 101.381 162.399 101.264 162.426 101.141C162.449 101.037 162.471 100.939 162.521 100.845C162.616 100.665 162.779 100.536 162.975 100.482C162.771 100.294 162.602 100.068 162.485 99.8163C162.363 99.5544 162.26 99.236 162.231 98.9485C162.207 98.7151 162.244 98.4732 162.371 98.2725C162.505 98.0621 162.742 97.9248 162.947 97.7935C162.634 97.5479 162.366 97.2492 162.145 96.9185C161.716 96.2754 161.451 95.4648 161.669 94.6981Z" fill="#191847"/>
<path fill-rule="evenodd" clip-rule="evenodd" d="M206.921 165.507C207.168 165.507 207.369 165.708 207.369 165.955V208.132C207.369 208.38 207.168 208.581 206.921 208.581H156.836C156.589 208.581 156.388 208.38 156.388 208.132V165.955C156.388 165.708 156.589 165.507 156.836 165.507H206.921ZM197.547 175.233C197.608 175.233 197.659 175.284 197.659 175.345V198.742C197.659 198.804 197.608 198.855 197.547 198.855H166.211C166.149 198.855 166.099 198.804 166.099 198.742V175.345C166.099 175.284 166.149 175.233 166.211 175.233H197.547Z" fill="#C6C6C6"/>
<path fill-rule="evenodd" clip-rule="evenodd" d="M140.535 184.465C139.245 188.991 136.031 197.569 131.588 207.42L127.365 206.186C131.059 183.518 134.134 168.511 135.895 163.943C137.058 160.925 145.861 161.279 144.848 167.351C144.424 169.898 142.743 176.716 140.535 184.465ZM157.891 168.41C164.777 169.839 179.054 174.891 183.131 176.505C185.693 177.519 184.042 180.96 181.856 180.659C181.485 180.608 180.176 180.461 178.222 180.242C171.945 179.539 159.02 178.09 149.217 176.677C144.055 175.933 146.831 166.248 152.191 167.273C153.994 167.618 155.912 168 157.891 168.41Z" fill="#B28B67"/>
<path fill-rule="evenodd" clip-rule="evenodd" d="M135.626 161.385C136.33 159.084 168.332 150.916 168.332 150.916H170.955V153.364L148.903 164.608C148.932 164.971 148.914 165.354 148.843 165.759C149.002 174.095 145.44 180.322 141.914 186.487C139.608 190.519 137.317 194.525 136.091 199.076L127.989 197.865C128.225 197.261 128.598 194.535 129.109 190.808C130.395 181.41 132.553 165.648 135.581 161.477C135.591 161.463 135.602 161.448 135.613 161.434C135.617 161.418 135.621 161.401 135.626 161.385Z" fill="#064B70"/>
<path fill-rule="evenodd" clip-rule="evenodd" d="M169.122 171.286C171.14 170.881 172.998 170.52 174.588 170.241C184.858 168.437 187.853 162.93 186.082 150.916H167.159C164.068 151.805 148.004 158.553 139.67 162.142C134.153 164.517 135.892 173.08 139.016 175.308C139.033 175.445 139.089 175.538 139.189 175.579C151.033 180.496 161.133 180.129 167.619 179.894C170.335 179.795 172.418 179.719 173.729 180.065L175.783 173.574L169.122 171.286Z" fill="#006298"/>
<path fill-rule="evenodd" clip-rule="evenodd" d="M180.978 175.473C180.978 175.441 181.005 175.415 181.038 175.418C181.402 175.444 183.32 175.598 184.081 175.97C184.924 176.382 186.405 177.454 186.405 177.454C185.928 178.434 177.83 195.063 177.83 195.063C177.83 195.063 175.23 194.643 175.77 193.076C176.309 191.509 176.64 190.459 176.64 190.459L176.994 180.167C176.994 180.151 177.008 180.139 177.024 180.14L178.881 180.257C178.881 180.257 180.186 179.199 180.603 178.343C180.977 177.574 180.981 175.82 180.978 175.473Z" fill="#C2C7CA"/>
<path fill-rule="evenodd" clip-rule="evenodd" d="M133.277 204.911C133.306 204.897 133.341 204.91 133.353 204.94C133.489 205.28 134.191 207.074 134.191 207.923C134.191 208.862 133.879 210.665 133.879 210.665C132.791 210.665 114.318 210.665 114.318 210.665C114.318 210.665 113.556 208.14 115.198 207.939C116.841 207.738 117.928 207.575 117.928 207.575L127.319 203.382C127.333 203.375 127.35 203.382 127.356 203.397L128.066 205.12C128.066 205.12 129.586 205.831 130.537 205.831C131.392 205.831 132.967 205.066 133.277 204.911Z" fill="#C2C7CA"/>
<path fill-rule="evenodd" clip-rule="evenodd" d="M140.999 155.002L150.823 145.402L154.086 151.058L143.87 157.09C141.309 161.132 139.804 162.878 139.357 162.329C138.98 161.867 139.152 161.359 139.312 160.892C139.436 160.528 139.552 160.188 139.393 159.912C139.029 159.283 136.978 159.644 135.047 160.069C133.115 160.494 133.562 159.544 133.972 159.048C135.798 157.572 138.14 156.223 140.999 155.002ZM198.907 168.949C197.891 166.884 194.43 146.756 194.43 146.756L187.182 146.785C187.182 146.785 193.895 168.489 194.43 169.817C195.125 171.542 193.944 174.048 193.144 175.748C193.02 176.011 192.905 176.254 192.808 176.473C193.918 176.971 194.452 176.369 195.014 175.734C195.65 175.018 196.322 174.26 197.905 174.997C198.516 175.282 199.095 175.619 199.66 175.948C201.612 177.085 203.406 178.129 205.846 176.621C206.233 176.382 206.657 175.482 205.633 174.778C203.081 173.026 199.404 169.959 198.907 168.949Z" fill="#B28B67"/>
<path fill-rule="evenodd" clip-rule="evenodd" d="M173.835 116.296L170.836 115.78C165.673 128.699 156.659 140.438 143.793 150.995L153.515 162.826C166.379 147.793 174.308 132.283 173.835 116.296Z" fill="#553097"/>
<path fill-rule="evenodd" clip-rule="evenodd" d="M186.906 154.044H160.202C160.202 154.044 169.482 131.443 169.482 115.646L177.537 114.443C183.868 124.642 185.656 137.198 186.906 154.044Z" fill="#F4F4F4"/>
<path fill-rule="evenodd" clip-rule="evenodd" d="M199.047 165.506C196.126 132.504 177.717 114.442 177.717 114.442L177.71 114.448C177.709 114.446 177.708 114.444 177.707 114.442H177.181C176.238 114.475 174.306 114.56 174.306 114.56L172.36 120.131C172.051 130.321 168.753 161.201 168.753 161.201H186.232C186.203 162.616 186.137 164.052 186.031 165.506H199.047Z" fill="#8663C6"/>
<path fill-rule="evenodd" clip-rule="evenodd" d="M186.226 161.338C186.366 155.172 185.82 149.382 184.909 144.143C184.432 150.36 183.436 157.841 181.356 161.338H186.226Z" fill="black" fill-opacity="0.1"/>
<path fill-rule="evenodd" clip-rule="evenodd" d="M182.359 150.569L173.728 146.55V150.569H182.359Z" fill="white" fill-opacity="0.2"/>
<path fill-rule="evenodd" clip-rule="evenodd" d="M37.89 65.794C36.6855 65.9256 35.8156 67.0087 35.9472 68.2133L37.8727 85.8453C38.0042 87.0499 39.0873 87.9197 40.2919 87.7882L44.6801 87.309C44.6806 87.3115 44.681 87.3141 44.6814 87.3167L54.6475 86.2283C56.0225 84.5563 53.5571 75.311 51.8937 70.9371L51.4118 66.5245C51.2803 65.3199 50.1971 64.4501 48.9926 64.5816L37.89 65.794Z" fill="#191847"/>
<path fill-rule="evenodd" clip-rule="evenodd" d="M45.4001 81.7507C47.772 82.849 50.0293 83.2584 51.0268 82.8817C53.5281 81.9372 52.7365 72.4958 50.3397 69.0014C47.9429 65.507 37.5286 65.0071 37.8157 72.4179C37.9154 74.99 39.2359 77.1509 41.0225 78.8367L39.6283 92.3811L47.8761 91.4804L45.4001 81.7507Z" fill="#B28B67"/>
<path fill-rule="evenodd" clip-rule="evenodd" d="M36.7269 72.5805C36.9406 72.3174 37.1473 72.0629 37.3549 71.8327L37.3147 71.567C37.3147 71.567 39.3246 65.9848 43.3042 65.5502C47.2802 65.116 48.7395 66.8271 49.9799 68.2817L49.9833 68.2856C49.6337 70.265 48.0334 71.2251 46.2237 72.311C45.4447 72.7784 44.6269 73.2691 43.8532 73.8744C43.4994 73.6459 43.0677 73.533 42.6164 73.5823C41.5725 73.6963 40.8187 74.6349 40.9327 75.6788C41.0467 76.7227 41.9853 77.4765 43.0292 77.3625C43.0577 77.3594 43.086 77.3557 43.1141 77.3513C43.9399 81.3918 44.2967 86.0699 43.285 87.3001L33.3189 88.3884C32.49 83.449 33.621 81.8906 34.7767 80.2981C35.8641 78.7998 36.9735 77.2713 36.4926 72.8677C36.5718 72.7714 36.6498 72.6754 36.7269 72.5805L36.7269 72.5805Z" fill="#191847"/>
<path fill-rule="evenodd" clip-rule="evenodd" d="M44.4785 124.434L57.1419 168.07L63.0981 200.834L69.0763 200.834L63.1087 124.434L44.4785 124.434Z" fill="#997659"/>
<path fill-rule="evenodd" clip-rule="evenodd" d="M38.7879 124.434C39.6715 147.103 39.323 159.467 39.1252 161.527C38.9275 163.586 37.8048 177.38 30.1543 201.525L36.3722 201.525C46.504 178.362 50.0409 164.568 51.2029 161.527C52.3649 158.485 55.797 146.121 60.8076 124.434L38.7879 124.434Z" fill="#B28B67"/>
<path fill-rule="evenodd" clip-rule="evenodd" d="M44.207 124.434C47.501 139.449 53.1981 163.418 61.2983 196.34L70.0421 196.34C70.688 162.549 67.9406 140.308 63.1829 124.434L44.207 124.434Z" fill="#553097"/>
<path fill-rule="evenodd" clip-rule="evenodd" d="M38.7423 124.434C39.6076 147.103 37.365 169.436 30.418 196.692L39.7472 196.692C49.8976 173.875 57.1727 151.652 62.1448 124.434L38.7423 124.434Z" fill="#8663C6"/>
<path fill-rule="evenodd" clip-rule="evenodd" d="M29.2676 206.02L29.6028 200.616C29.6068 200.55 29.6699 200.506 29.7331 200.523C32.745 201.327 37.1585 199.797 37.1585 199.797C41.7723 203.065 48.6464 204.372 49.9705 204.599C50.0915 204.62 50.166 204.741 50.1325 204.859L49.5094 207.057L37.1585 207.057L29.9537 207.057L29.2676 206.02Z" fill="#C2C7CA"/>
<path fill-rule="evenodd" clip-rule="evenodd" d="M61.7637 206.02L62.0988 200.616C62.1029 200.55 62.166 200.506 62.2292 200.523C65.2411 201.327 69.6546 199.797 69.6546 199.797C74.2684 203.065 81.1425 204.372 82.4666 204.599C82.5876 204.62 82.6621 204.741 82.6286 204.859L82.0055 207.057L69.6546 207.057L62.4498 207.057L61.7637 206.02Z" fill="#C2C7CA"/>
<path fill-rule="evenodd" clip-rule="evenodd" d="M81.5111 92.8374L70.4143 101L75.4894 105.199L83.1162 96.0467C87.534 94.1774 89.507 92.9739 89.0354 92.4363C88.6377 91.9829 88.1071 92.0696 87.6184 92.1495C87.2377 92.2116 86.8824 92.2697 86.6352 92.0651C86.0704 91.5978 86.7588 89.617 87.4922 87.7659C88.2256 85.9147 87.2118 86.1996 86.654 86.5248C84.8971 88.0937 83.1828 90.1979 81.5111 92.8374ZM27.5297 150.637C27.9724 148.388 29.6403 120.542 29.6403 120.542L36.9563 118.597C36.9563 118.597 32.2341 148.893 32.0635 150.308C31.8419 152.146 33.6278 154.247 34.8388 155.673C35.0262 155.893 35.1998 156.097 35.35 156.282C34.4101 157.049 33.7407 156.609 33.0349 156.146C32.2377 155.622 31.3941 155.068 30.0623 156.188C29.5477 156.62 29.0782 157.094 28.6195 157.557C27.0352 159.156 25.5796 160.626 22.8404 159.81C22.4061 159.681 21.7648 158.926 22.5681 157.984C24.5696 155.638 27.3133 151.736 27.5297 150.637Z" fill="#997659"/>
<path fill-rule="evenodd" clip-rule="evenodd" d="M40.9965 93.2799L46.3907 90.7922C53.9883 101.692 64.9603 105.216 79.2439 94.2222L89.4542 108.027C75.8701 117.873 59.8692 119.001 48.6176 104.591C45.7049 100.861 42.8444 96.8863 40.9965 93.2799Z" fill="#AFB9C5"/>
<path fill-rule="evenodd" clip-rule="evenodd" d="M27.6403 147.06C25.9097 124.848 29.8828 106.231 39.5597 91.2083L40.1275 91.0551L40.134 91.0595L49.3396 90.7059C52.1496 101.121 56.5663 108.277 60.8126 115.158C62.6463 118.129 64.4482 121.049 66.0753 124.158L42.6594 130.476C43.3517 134.353 44.1998 138.301 45.1733 142.329L27.6403 147.06Z" fill="#C5CFD6"/>
<path fill-rule="evenodd" clip-rule="evenodd" d="M42.6593 130.476C41.2497 122.581 40.4857 114.981 40.6227 107.607C42.1617 115.038 44.4893 124.145 47.4185 129.192L42.6593 130.476Z" fill="black" fill-opacity="0.1"/>
<defs>
<filter id="filter0_d_12192_20758" x="70.2245" y="38.1605" width="79.5228" height="154.092" filterUnits="userSpaceOnUse" color-interpolation-filters="sRGB">
<feFlood flood-opacity="0" result="BackgroundImageFix"/>
<feColorMatrix in="SourceAlpha" type="matrix" values="0 0 0 0 0 0 0 0 0 0 0 0 0 0 0 0 0 0 127 0" result="hardAlpha"/>
<feOffset dx="-0.235724" dy="0.518594"/>
<feGaussianBlur stdDeviation="0.400732"/>
<feColorMatrix type="matrix" values="0 0 0 0 0 0 0 0 0 0 0 0 0 0 0 0 0 0 0.1 0"/>
<feBlend mode="normal" in2="BackgroundImageFix" result="effect1_dropShadow_12192_20758"/>
<feBlend mode="normal" in="SourceGraphic" in2="effect1_dropShadow_12192_20758" result="shape"/>
</filter>
</defs>
</svg>
