<svg width="227" height="226" viewBox="0 0 227 226" fill="none" xmlns="http://www.w3.org/2000/svg">
<g filter="url(#filter0_d_8060_84135)">
<path d="M71.7664 48.2963C71.6207 44.123 74.8857 40.6217 79.059 40.476L137.131 38.4481C141.305 38.3023 144.806 41.5673 144.952 45.7407L149.678 181.08C149.824 185.253 146.559 188.754 142.385 188.9L84.3129 190.928C80.1396 191.074 76.6383 187.809 76.4926 183.635L71.7664 48.2963Z" fill="#C2C7CA"/>
</g>
<path d="M90.2799 43.2964L79.8629 43.6601C77.0807 43.7573 74.904 46.0915 75.0012 48.8737L79.6723 182.637C79.7695 185.419 82.1037 187.596 84.8859 187.499L141.37 185.527C144.152 185.429 146.328 183.095 146.231 180.313L141.56 46.5494C141.463 43.7672 139.129 41.5905 136.347 41.6877L126.133 42.0444L126.215 44.3854C126.27 45.962 125.036 47.2848 123.46 47.3398L93.3161 48.3924C91.7395 48.4475 90.4168 47.2141 90.3617 45.6375L90.2799 43.2964Z" fill="white"/>
<path fill-rule="evenodd" clip-rule="evenodd" d="M89.2057 62.5966C92.8394 63.2278 91.7089 68.7681 88.2706 67.4849C87.0725 67.0377 85.3072 65.7457 85.9694 64.2234C86.4641 63.086 88.0762 62.4883 89.2057 62.5966ZM87.7001 60.875C85.3369 61.2728 83.7212 63.8302 84.5315 66.0609C85.3131 68.213 88.2779 69.7889 90.4644 69.0155C92.5517 68.2771 93.593 65.5 92.8893 63.4684C92.154 61.3457 89.7587 60.5284 87.7001 60.875Z" fill="#DEDEDE"/>
<path fill-rule="evenodd" clip-rule="evenodd" d="M109.804 63.2433C108.9 63.3184 108.118 63.9519 107.207 64.064C106.356 64.1689 105.651 63.8776 104.854 63.6448C103.89 63.3635 103.007 63.2398 102.022 63.4898C101.27 63.6808 100.528 64.1927 99.7466 64.2545C98.2089 64.3759 96.4217 62.6215 95.2212 64.6058C94.6457 65.5571 95.4814 66.1698 96.3422 65.7262C97.2396 65.2638 96.7991 65.0982 97.9123 65.3714C98.8411 65.5991 99.5918 65.7228 100.522 65.4036C101.365 65.1146 102.105 64.5856 103.021 64.5261C103.918 64.468 104.698 64.8765 105.555 65.0528C106.61 65.2695 107.542 65.1055 108.541 64.775C109.492 64.4607 109.871 64.2888 110.83 64.5692C111.437 64.7468 112.763 65.3109 113.354 64.8563C114.376 64.0703 113.008 63.9554 112.469 63.8437C111.602 63.664 110.704 63.1697 109.804 63.2433Z" fill="#DEDEDE"/>
<path fill-rule="evenodd" clip-rule="evenodd" d="M129.616 62.5303C130.937 62.6154 132.365 65.0213 130.615 65.1067C129.384 65.1669 128.005 63.06 129.616 62.5303ZM129.431 60.5614C125.254 61.7277 127.164 67.6157 131.192 66.9356C133.022 66.6266 133.642 64.5068 133.037 62.9376C132.777 62.2636 132.271 61.6953 131.665 61.3075C131.219 61.0213 129.941 60.4193 129.431 60.5614Z" fill="#DEDEDE"/>
<path d="M109.95 72.8544C113.625 72.7282 117.301 72.6021 120.98 72.568C122.973 72.5495 124.956 72.5844 126.947 72.6986C127.83 72.7493 128.713 72.7982 129.596 72.8355C129.748 72.842 129.959 72.8316 130.192 72.8202C130.738 72.7933 131.406 72.7604 131.72 72.9266C133.478 73.8563 129.897 73.9583 129.462 73.9509C128.487 73.9345 127.514 73.8864 126.54 73.8383C125.689 73.7962 124.838 73.7541 123.986 73.7332C118.521 73.599 113.023 73.8445 107.549 74.0889C106.294 74.145 105.041 74.2009 103.789 74.2523C102.46 74.3068 101.131 74.3421 99.803 74.3774C97.9039 74.4278 96.005 74.4783 94.106 74.5849C93.3809 74.6257 92.6559 74.6688 91.9309 74.712C90.8923 74.7738 89.8536 74.8356 88.8146 74.8904C88.0012 74.9333 87.1875 74.9749 86.373 74.9954C86.2263 74.9991 86.0352 75.0195 85.8267 75.0417C85.3217 75.0956 84.7141 75.1604 84.3859 75.0263C83.991 74.8647 83.6716 74.639 83.8887 74.1605C84.0724 73.7559 84.7396 73.8044 85.226 73.8398C85.3588 73.8495 85.4782 73.8581 85.5706 73.8563C87.1253 73.8262 88.6766 73.7389 90.2285 73.6439C90.7963 73.6091 91.3638 73.5734 91.9313 73.5377C94.8858 73.3519 97.8375 73.1662 100.799 73.1158C103.851 73.0637 106.9 72.959 109.95 72.8544Z" fill="#DEDEDE"/>
<path d="M129.144 97.0425L130.201 97.0296C130.746 97.0772 130.99 97.6499 130.64 98.09C130.372 98.4272 129.34 98.4425 128.667 98.4524C128.48 98.4552 128.321 98.4575 128.214 98.4662C126.457 98.6073 124.704 98.6709 122.942 98.6877C119.232 98.723 115.536 98.882 111.832 99.0933C108.04 99.3094 104.245 99.3907 100.45 99.472C97.6584 99.5318 94.8659 99.5917 92.0749 99.7052C90.4765 99.7702 88.878 99.8188 87.279 99.8607C87.1071 99.8652 86.8785 99.8899 86.62 99.9178C85.61 100.027 84.1423 100.185 83.8097 99.3832C83.5144 98.6707 83.9254 98.3431 84.5262 98.1941C84.4316 97.7728 84.4491 97.1808 84.4591 96.8416C84.4621 96.7396 84.4645 96.6605 84.4629 96.6158C84.4478 96.1903 84.4373 95.7647 84.4268 95.3391C84.4149 94.8568 84.403 94.3746 84.3844 93.8926C84.3676 93.4552 84.3519 93.0173 84.3362 92.5791C84.2743 90.8512 84.2123 89.1191 84.0793 87.398C84.018 86.6037 83.9206 85.8187 83.8234 85.0349C83.6682 83.7837 83.5134 82.5356 83.5063 81.2581C83.505 81.0284 83.4935 80.741 83.4805 80.4169C83.4141 78.7583 83.3092 76.1364 84.3387 75.3379C86.1539 74.2786 85.7951 77.336 85.6349 78.7005C85.6085 78.9258 85.5875 79.1049 85.5826 79.2118C85.4783 81.4807 85.6198 83.6496 85.8481 85.9042C86.0022 87.4268 85.9122 88.9443 85.8221 90.4643C85.7899 91.0072 85.7576 91.5504 85.7365 92.0943C85.7261 92.3634 85.7168 92.6323 85.7075 92.9012C85.6789 93.7288 85.6503 94.5556 85.588 95.3822C85.5813 95.4716 85.579 95.6431 85.5761 95.8623C85.568 96.4801 85.5549 97.4768 85.4228 98.082C85.7039 98.07 85.9765 98.073 86.2018 98.0755C86.3457 98.077 86.4704 98.0784 86.5656 98.0755C86.999 98.0624 87.4323 98.0497 87.8656 98.037C89.1456 97.9995 90.4257 97.962 91.7054 97.9139C94.7267 97.8003 97.7488 97.7623 100.771 97.7244C104.34 97.6795 107.91 97.6347 111.478 97.4652C117.358 97.1858 123.258 97.1141 129.144 97.0425Z" fill="#DEDEDE"/>
<path d="M130.24 74.8604C130.237 78.747 130.537 82.527 130.888 86.3979C131.105 88.7923 131.28 91.196 131.418 93.5964C131.425 93.7075 131.424 93.893 131.422 94.1254C131.415 95.4527 131.4 98.313 132.712 97.6288C133.703 97.1121 133.322 94.1165 133.111 92.459C133.065 92.0955 133.027 91.7962 133.013 91.6017C132.985 91.188 132.956 90.7744 132.928 90.3609L132.928 90.3586C132.796 88.4341 132.664 86.5112 132.491 84.589L132.454 84.1838C132.253 81.9638 132.052 79.7454 132.017 77.515C132.014 77.3305 132.031 77.0736 132.051 76.7834C132.109 75.9438 132.187 74.8257 131.838 74.3797C131.347 73.7523 130.241 73.9378 130.24 74.8604Z" fill="#DEDEDE"/>
<path d="M110.115 84.3874C114.809 82.2635 119.558 80.115 124.439 78.5852C124.792 78.4748 125.015 78.8386 124.935 79.1439C124.853 79.4585 124.089 79.7268 123.583 79.9048C123.431 79.9581 123.303 80.0032 123.222 80.0391C122.541 80.3436 121.857 80.6444 121.173 80.9452C120.473 81.2532 119.773 81.5612 119.075 81.8732C117.623 82.5219 116.17 83.1676 114.717 83.8133C113.161 84.5049 111.605 85.1965 110.05 85.8917C109.992 85.9178 109.934 85.9438 109.875 85.9699C111.989 86.721 114.091 87.5057 116.183 88.3142C116.898 88.5904 117.611 88.8724 118.324 89.1544C118.727 89.3139 119.13 89.4734 119.534 89.632C119.665 89.6835 119.894 89.7534 120.169 89.8374C121.065 90.111 122.451 90.5344 122.554 90.9619C122.721 91.6584 120.807 90.9846 120.085 90.7304C119.989 90.6967 119.914 90.6704 119.868 90.6556C118.802 90.3151 117.749 89.9356 116.697 89.5563L116.552 89.5038C115.718 89.2034 114.885 88.8997 114.052 88.5961C112.425 88.0029 110.799 87.4098 109.163 86.8407C108.932 86.7603 108.701 86.6801 108.469 86.6001C105.844 87.7793 103.224 88.9698 100.613 90.1792C99.2127 90.8276 97.8203 91.491 96.4317 92.1634C96.1287 92.3101 95.7533 92.537 95.3457 92.7834C94.3685 93.3739 93.2053 94.077 92.4051 94.0595C91.9761 94.05 91.6869 93.958 91.6421 93.438C91.596 92.9014 92.2845 92.6198 92.7796 92.4174C92.8981 92.369 93.0055 92.3251 93.0891 92.2833C94.5732 91.5411 96.0665 90.8176 97.5641 90.1032C100.538 88.6845 103.541 87.3225 106.553 85.9876C106.571 85.9796 106.589 85.9717 106.607 85.9637C104.937 85.3982 103.261 84.8461 101.582 84.3058C101.414 84.2518 101.07 84.1566 100.618 84.0314C98.4836 83.4402 93.936 82.1807 94.1384 81.445C94.3705 80.6035 98.634 82.1416 100.522 82.8226C100.875 82.9502 101.146 83.0477 101.29 83.0938C103.547 83.813 105.797 84.5525 108.036 85.3257C108.728 85.0148 109.421 84.7014 110.115 84.3874Z" fill="#DEDEDE"/>
<path fill-rule="evenodd" clip-rule="evenodd" d="M90.0061 102.873C91.3802 103.114 92.3494 104.432 92.1987 105.813C91.9949 107.678 90.136 108.533 88.4187 108.289C86.4702 108.013 86.0603 106.366 87.0044 104.781C87.2134 104.43 87.4537 104.011 87.8337 103.826C88.0949 103.699 88.4277 103.811 88.638 103.709C89.3755 103.35 88.9321 102.778 90.0061 102.873ZM89.38 101.655C87.7033 101.869 84.6052 103.81 84.762 105.751C84.8981 105.976 85.1027 106.068 85.3759 106.027C85.3102 106.448 85.3315 106.864 85.4402 107.275C85.5994 107.809 85.9172 108.247 86.343 108.595C87.2198 109.312 88.4184 109.488 89.5102 109.362C91.549 109.128 93.1558 107.734 93.2704 105.614C93.3821 103.544 91.5754 101.378 89.38 101.655Z" fill="#DEDEDE"/>
<path fill-rule="evenodd" clip-rule="evenodd" d="M97.4962 104.179C96.7439 104.578 95.5538 105.19 95.1126 105.947C94.6465 106.747 95.1291 107.622 96.1111 107.244C96.8907 106.944 97.3865 105.989 98.218 105.683C98.9519 105.413 99.2476 105.551 100.023 105.82C100.822 106.097 101.521 106.364 102.385 106.296C103.471 106.211 104.411 105.581 105.474 105.438C106.369 105.318 107.107 105.666 107.964 105.804C108.958 105.965 109.608 105.589 110.538 105.393C111.171 105.259 112.286 105.802 112.748 105.599C113.786 105.143 112.688 104.585 112.113 104.4C111.146 104.09 110.55 104.364 109.63 104.621C108.63 104.901 108.198 104.691 107.243 104.434C105.31 103.915 103.817 105.17 101.985 104.942C100.289 104.731 99.2741 103.238 97.4962 104.179Z" fill="#DEDEDE"/>
<path fill-rule="evenodd" clip-rule="evenodd" d="M129.099 103.252C130.959 104.996 128.869 107.477 126.818 106.083C126.096 105.593 126.084 104.805 126.646 104.1C127.16 103.455 128.289 103.203 129.099 103.252ZM128.408 101.843C126.67 102.181 125.03 102.978 124.873 104.984C124.719 106.941 126.727 107.85 128.413 107.722C132.2 107.434 131.926 101.163 128.408 101.843Z" fill="#DEDEDE"/>
<g opacity="0.5">
<path fill-rule="evenodd" clip-rule="evenodd" d="M102.724 119.554C100.064 119.584 97.406 119.682 94.7517 119.85C92.2275 120.01 89.4888 119.888 87.0057 120.378C86.3007 120.517 85.3482 121.159 86.2857 121.866C86.9447 122.363 89.3556 121.791 90.1425 121.743C93.0403 121.565 95.9397 121.352 98.8416 121.249C101.589 121.152 104.336 121.118 107.085 121.09C107.504 121.086 108.201 120.952 108.619 121.073C109.219 121.249 109.077 121.296 109.122 122.058C109.203 123.439 109.181 124.825 109.153 126.207C109.127 127.545 109.077 128.882 109.082 130.22C109.085 131.175 108.78 133.072 109.259 133.901C109.949 135.095 110.664 133.799 110.716 133.006C110.814 131.489 110.77 129.953 110.771 128.435C110.771 127.009 110.781 125.583 110.731 124.159C110.695 123.129 110.842 121.333 110.287 120.397C109.722 119.444 108.363 119.649 107.371 119.604C105.823 119.533 104.273 119.538 102.724 119.554Z" fill="#C5CFD6"/>
<path fill-rule="evenodd" clip-rule="evenodd" d="M85.8046 121.274C85.8076 123.953 85.4977 126.613 85.4109 129.289C85.3711 130.519 85.2903 131.869 85.6015 133.077C85.9156 134.296 86.9133 134.56 87.0282 133.199C87.2609 130.443 87.2038 127.585 87.385 124.806C87.449 123.826 87.8653 122.028 87.4766 121.109C87.1344 120.3 85.8032 120.145 85.8046 121.274Z" fill="#C5CFD6"/>
<path fill-rule="evenodd" clip-rule="evenodd" d="M110.744 133.08C106.125 133.692 101.296 133.469 96.6447 133.565C94.413 133.611 92.1817 133.614 89.9497 133.637C89.1707 133.645 87.1925 133.349 86.5186 133.787C85.4458 134.484 86.6098 135.022 87.32 135.037C91.7247 135.134 96.1785 134.931 100.582 134.787C102.561 134.722 104.546 134.69 106.52 134.522C107.734 134.418 109.062 134.318 110.242 133.992C110.493 133.922 111.04 133.936 111.097 133.593C111.131 133.381 111.068 133.035 110.744 133.08Z" fill="#C5CFD6"/>
<path fill-rule="evenodd" clip-rule="evenodd" d="M91.539 136.975C90.2553 136.983 86.387 136.387 85.8554 137.638C85.1466 139.308 87.9115 138.918 88.655 138.899C90.3439 138.856 92.0315 138.851 93.7208 138.852C95.3783 138.852 97.0357 138.842 98.6929 138.802C99.173 138.791 100.291 138.99 100.567 138.412C100.777 137.972 100.611 137.626 100.224 137.393C99.2921 136.833 96.8722 137.158 95.7816 137.108C94.3695 137.043 92.9528 136.975 91.539 136.975Z" fill="#C5CFD6"/>
<path fill-rule="evenodd" clip-rule="evenodd" d="M107.152 137.285C106.419 137.328 104.935 137.026 104.277 137.362C103.531 137.743 103.794 138.341 104.439 138.603C104.885 138.785 106.717 138.69 107.152 138.479C107.606 138.259 108.118 137.225 107.152 137.285Z" fill="#C5CFD6"/>
<path fill-rule="evenodd" clip-rule="evenodd" d="M115.195 121.538C114.411 121.753 114.649 126.201 114.629 126.906C114.574 128.838 114.356 131.268 114.998 133.129C115.408 134.315 116.194 134.154 116.06 132.905C115.942 131.809 115.741 130.726 115.653 129.623C115.456 127.126 115.187 124.464 115.373 121.965C115.453 122.11 116.196 123.457 116.371 123.356C116.318 123.388 115.514 121.454 115.195 121.538Z" fill="#C5CFD6"/>
<path fill-rule="evenodd" clip-rule="evenodd" d="M124.012 119.898C122.426 119.922 120.841 119.95 119.255 119.994C117.995 120.029 116.014 119.822 114.859 120.352C113.482 120.983 114.135 122.39 115.428 122.419C116.572 122.446 117.791 122.188 118.945 122.148C122.062 122.042 125.185 122.019 128.303 121.992C131.123 121.968 134.064 122.269 136.859 121.845C137.274 125.527 136.152 129.225 136.534 132.949C136.593 133.527 136.566 134.344 137.302 134.475C138.231 134.642 138.27 133.722 138.305 133.063C138.406 131.181 138.351 129.298 138.489 127.415C138.616 125.669 138.868 123.885 138.655 122.136C138.394 119.984 137.363 120.157 135.541 120.068C131.691 119.879 127.866 119.842 124.012 119.898Z" fill="#C5CFD6"/>
<path fill-rule="evenodd" clip-rule="evenodd" d="M118.699 132.972C117.891 132.993 116.549 132.744 116.032 133.519C115.493 134.325 116.132 135.028 116.915 135.193C117.842 135.389 119.051 135.121 120.013 135.118C121.015 135.115 122.018 135.126 123.02 135.13C127.316 135.147 131.631 135.212 135.924 135.034C136.523 135.009 138.225 135.21 138.64 134.635C139.008 134.125 138.75 133.668 138.266 133.408C137.47 132.981 135.836 133.144 134.951 133.11C133.858 133.068 132.763 133.055 131.67 133.038C127.354 132.971 123.015 132.866 118.699 132.972Z" fill="#C5CFD6"/>
<path fill-rule="evenodd" clip-rule="evenodd" d="M122.332 136.698C120.724 136.726 119.009 136.655 117.417 136.899C116.018 137.113 115.845 138.466 117.352 138.625C118.737 138.77 120.415 138.498 121.806 138.409C122.301 138.377 122.875 138.422 123.112 137.876C123.359 137.305 122.887 136.758 122.332 136.698Z" fill="#C5CFD6"/>
<path fill-rule="evenodd" clip-rule="evenodd" d="M134.49 136.841C133.632 136.862 131.125 136.493 130.7 137.473C129.992 139.105 133.386 138.485 134.037 138.461C134.857 138.431 138.054 138.91 138.055 137.604C138.056 136.323 135.275 136.821 134.49 136.841Z" fill="#C5CFD6"/>
<path fill-rule="evenodd" clip-rule="evenodd" d="M85.669 144.951C85.671 147.919 85.4863 150.915 85.7571 153.876C85.8691 155.101 85.8499 157.447 86.5592 158.485C87.0627 159.222 87.7611 159.17 88.0361 158.285C88.22 157.694 87.9259 156.511 87.8931 155.878C87.8615 155.271 87.8246 154.664 87.7965 154.056C87.7243 152.491 87.73 150.928 87.7516 149.363C87.77 148.019 88.0933 146.242 87.7885 144.951C87.5042 143.747 85.669 143.465 85.669 144.951Z" fill="#F1F1F1"/>
<path fill-rule="evenodd" clip-rule="evenodd" d="M115.498 142.338C110.348 142.467 105.187 142.351 100.041 142.606C97.5035 142.732 94.9758 143.008 92.4509 143.283C91.2104 143.419 89.9706 143.558 88.7323 143.711C88.3586 143.757 85.2535 143.877 86.4214 145.058C86.9313 145.573 88.5541 145.035 89.1963 144.959C90.4396 144.812 91.6853 144.684 92.9304 144.552C95.2995 144.302 97.6716 144.064 100.051 143.933C105.654 143.622 111.281 143.715 116.89 143.509C118.408 143.453 119.92 143.412 121.438 143.472C121.837 143.488 124.766 143.637 123.494 142.555C122.893 142.043 120.626 142.307 119.874 142.292C118.416 142.262 116.956 142.301 115.498 142.338Z" fill="#F1F1F1"/>
<path fill-rule="evenodd" clip-rule="evenodd" d="M122.522 147.339C122.497 145.967 122.471 144.596 122.409 143.226C122.343 141.783 124.309 141.564 124.892 142.732C125.312 143.573 125.238 145.004 125.175 146.23C125.149 146.725 125.125 147.186 125.136 147.561C125.161 148.423 125.225 149.313 125.289 150.216C125.45 152.487 125.617 154.833 125.193 156.977C124.986 158.019 124.108 158.566 123.523 157.999C123.522 157.999 123.522 158 123.522 158.001C123.302 158.325 122.617 158.324 122.112 158.324C121.973 158.323 121.848 158.323 121.75 158.33C120.368 158.424 119.012 158.582 117.642 158.788C114.913 159.197 112.208 159.448 109.45 159.516C107.578 159.563 105.704 159.578 103.829 159.594C100.239 159.624 96.6468 159.653 93.0681 159.899C91.8616 159.982 90.6734 160.124 89.4866 160.351C89.3856 160.37 89.2734 160.395 89.154 160.422C88.2715 160.618 86.9941 160.902 86.9068 159.669C86.803 158.205 89.9753 158.014 91.6077 157.915C91.857 157.9 92.0703 157.887 92.2306 157.872C97.1874 157.411 102.222 157.482 107.2 157.553C107.441 157.557 107.682 157.56 107.923 157.563C108.311 157.569 108.7 157.575 109.088 157.581C111.219 157.617 113.348 157.652 115.479 157.521C116.448 157.462 117.43 157.432 118.414 157.401C119.984 157.352 121.558 157.304 123.093 157.137C122.861 156.24 122.821 155.181 122.783 154.183C122.768 153.794 122.753 153.414 122.728 153.057C122.593 151.154 122.558 149.246 122.522 147.339Z" fill="#F1F1F1"/>
<path fill-rule="evenodd" clip-rule="evenodd" d="M126.686 144.282C125.99 144.376 125.41 144.972 125.721 145.727C126.112 146.678 127.277 146.307 128.047 146.246C130.494 146.055 133.048 146.437 135.465 146.149C136.126 146.07 137.083 145.71 136.491 144.823C136.045 144.156 134.422 144.273 133.732 144.21C131.372 143.991 129.043 144.05 126.686 144.282Z" fill="#AFB9C5"/>
<path fill-rule="evenodd" clip-rule="evenodd" d="M130.814 148.433C129.865 148.496 127.656 148.446 127.257 149.526C126.539 151.463 129.349 150.78 130.204 150.67C131.198 150.542 133.54 150.885 134.07 149.921C135.016 148.198 131.646 148.375 130.814 148.433Z" fill="#AFB9C5"/>
<path fill-rule="evenodd" clip-rule="evenodd" d="M128.377 152.684C127.927 153.134 127.926 153.938 128.377 154.389C128.929 154.94 130.131 154.826 130.857 154.866C131.868 154.923 134.774 155.458 135.276 154.266C135.954 152.659 133.323 152.693 132.457 152.602C131.457 152.496 129.206 151.855 128.377 152.684Z" fill="#AFB9C5"/>
<path fill-rule="evenodd" clip-rule="evenodd" d="M92.9199 125.172C92.9199 126.9 95.6186 126.9 95.6186 125.172C95.6186 123.453 92.9199 123.427 92.9199 125.172Z" fill="#C5CFD6"/>
<path fill-rule="evenodd" clip-rule="evenodd" d="M98.0332 125.194C98.0332 127.169 101.107 127.165 101.107 125.194C101.107 123.225 98.0332 123.205 98.0332 125.194Z" fill="#C5CFD6"/>
<path fill-rule="evenodd" clip-rule="evenodd" d="M94.9406 127.818C93.4465 128.23 94.823 129.496 95.5168 129.786C96.6194 130.245 98.1242 130.584 99.2271 129.895C99.666 129.621 100.022 129.256 99.7007 128.724C99.358 128.157 98.8889 128.409 98.3672 128.461C97.7063 128.528 97.1722 128.518 96.534 128.306C96.0578 128.148 95.4601 127.675 94.9406 127.818Z" fill="#C5CFD6"/>
<path fill-rule="evenodd" clip-rule="evenodd" d="M122.041 125.281C122.041 126.45 123.856 126.45 123.856 125.281C123.856 124.112 122.041 124.112 122.041 125.281Z" fill="#C5CFD6"/>
<path fill-rule="evenodd" clip-rule="evenodd" d="M126.053 125.457C126.053 126.756 128.069 126.756 128.069 125.457C128.069 124.159 126.053 124.159 126.053 125.457Z" fill="#C5CFD6"/>
<path fill-rule="evenodd" clip-rule="evenodd" d="M125.904 128.274C124.845 128.411 121.782 128.721 121.61 130.027C121.346 132.041 124.702 130.411 125.468 130.253C126.444 130.051 127.315 130.104 128.289 130.143C128.824 130.164 129.535 130.251 129.479 129.436C129.387 128.099 126.829 128.156 125.904 128.274Z" fill="#C5CFD6"/>
<path fill-rule="evenodd" clip-rule="evenodd" d="M99.2795 146.849C98.5119 147.053 97.5078 148.38 98.0359 149.192C98.9019 150.524 99.2838 148.479 99.6462 148.282C100.306 147.924 100.841 149.233 101.53 148.547C102.617 147.463 99.9641 146.665 99.2795 146.849Z" fill="#F1F1F1"/>
<path fill-rule="evenodd" clip-rule="evenodd" d="M108.077 145.863C107.166 145.871 105.245 147.16 105.109 148.111C105.028 148.677 105.403 149.22 106.012 149.227C106.842 149.238 107.106 148.158 107.825 147.933C108.601 147.689 108.486 148.25 109.156 148.54C109.647 148.753 110.26 148.664 110.431 148.061C110.752 146.924 109.012 145.845 108.077 145.863Z" fill="#F1F1F1"/>
<path fill-rule="evenodd" clip-rule="evenodd" d="M101.11 151.311C99.6539 152.165 102.05 153.993 102.88 154.222C104.134 154.567 106.657 153.923 106.955 152.391C107.073 151.782 106.691 151.23 106.019 151.339C105.465 151.429 105.11 152.124 104.597 152.372C103.904 152.708 103.288 152.685 102.7 152.18C102.221 151.768 101.964 150.813 101.11 151.311Z" fill="#F1F1F1"/>
<path fill-rule="evenodd" clip-rule="evenodd" d="M102.159 163.918C100.858 164.196 99.5358 164.009 98.2287 164.27C96.8958 164.536 96.0992 165.04 94.8609 164.533C94.8027 164.508 94.7446 164.483 94.6865 164.459C93.728 164.046 92.7235 163.924 91.7202 164.582C91.1266 164.971 89.3243 166.318 89.5415 167.139C90.0122 168.921 92.0402 166.127 92.5573 165.855C93.5434 165.336 94.2195 165.999 95.2348 166.186C96.4508 166.411 97.4293 165.768 98.5748 165.512C99.9146 165.213 101.422 165.109 102.785 164.948C103.323 164.885 105.363 165.311 105.547 164.641C105.863 163.489 102.67 163.81 102.159 163.918Z" fill="#AFB9C5"/>
<path fill-rule="evenodd" clip-rule="evenodd" d="M111.54 167.501C111.557 167.514 111.624 167.565 111.54 167.501V167.501ZM115.185 163.847C116.299 163.734 119.862 162.938 120.593 164.089C121.07 164.838 120.313 167.605 119.592 167.963C119.016 168.248 117.673 167.932 117.04 167.91C115.863 167.869 114.683 167.85 113.507 167.777C113.113 167.752 111.844 167.825 111.535 167.476C111.17 167.064 111.186 164.867 111.1 164.322C112.124 164.653 114.114 163.956 115.185 163.847ZM117.561 162.718C116.135 162.78 114.709 162.887 113.294 163.078C112.505 163.185 111.705 163.469 110.976 163.603C110.741 163.646 110.36 163.526 110.072 163.665C109.23 164.072 109.967 166.821 110.17 167.556C110.482 168.684 111.267 168.867 112.366 168.974C113.814 169.114 115.292 169.07 116.745 169.052C118.145 169.035 120.034 169.345 120.819 167.94C121.327 167.032 121.872 164.916 121.438 163.903C120.867 162.571 118.734 162.669 117.561 162.718Z" fill="#AFB9C5"/>
<path fill-rule="evenodd" clip-rule="evenodd" d="M133.545 168.263C133.469 168.361 133.469 168.361 133.545 168.263V168.263ZM133.857 167.888C133.724 168.038 133.833 167.923 133.857 167.888V167.888ZM130.451 167.782C131.08 167.664 131.709 167.547 132.338 167.432C131.742 168.266 131.114 167.921 130.096 167.849C130.214 167.827 130.333 167.804 130.451 167.782ZM127.455 167.488C127.615 167.435 127.774 167.382 127.933 167.329C127.928 167.45 127.954 167.563 128.011 167.669C127.739 167.64 127.466 167.608 127.194 167.575C127.281 167.546 127.368 167.517 127.455 167.488ZM126.064 166.462C126.055 166.243 126.384 166.393 126.573 166.379C126.209 166.699 126.04 166.727 126.064 166.462ZM131.033 163.977C131.081 163.916 131.144 163.919 131.223 163.986C131.137 164.015 130.806 164.155 131.033 163.977ZM134.262 163.6C134.271 163.6 134.448 163.84 134.262 163.6V163.6ZM134.168 163.519C134.215 163.554 134.215 163.554 134.168 163.519V163.519ZM133.765 163.473C134.374 164.357 134.424 163.584 133.765 163.473V163.473ZM126.022 163.419C125.889 163.53 125.935 163.422 126.022 163.419V163.419ZM128.543 161.773C127.424 161.838 125.37 161.773 124.436 162.369C123.216 163.147 123.858 165.826 123.967 167C124.128 168.736 124.945 169.231 126.58 169.413C128.531 169.63 130.536 169.671 132.497 169.619C134.263 169.573 135.269 168.965 135.592 167.106C135.691 166.537 135.943 165.657 135.935 165.112C135.929 164.734 135.741 164.561 135.67 164.24C135.264 162.41 134.586 162.193 132.71 162.113C131.329 162.054 129.898 161.702 128.543 161.773Z" fill="#C5CFD6"/>
</g>
<path fill-rule="evenodd" clip-rule="evenodd" d="M172.17 112.096C169.924 113.452 167.718 114.107 166.682 113.839C164.085 113.169 163.846 103.651 165.856 99.8994C167.865 96.1474 178.197 94.5121 178.718 101.946C178.898 104.526 177.817 106.829 176.219 108.707L179.084 122.085H170.761L172.17 112.096Z" fill="#B28B67"/>
<path fill-rule="evenodd" clip-rule="evenodd" d="M162.167 94.6981C162.339 94.0913 162.803 93.5717 163.428 93.4175C163.579 93.3802 163.736 93.3651 163.892 93.3714C163.947 93.3736 163.963 93.3897 163.989 93.3506C164.009 93.3215 164.009 93.2506 164.017 93.2165C164.042 93.1103 164.073 93.0055 164.111 92.9034C164.242 92.5553 164.462 92.2471 164.727 91.9875C165.222 91.5019 165.891 91.1667 166.587 91.1061C166.967 91.0729 167.345 91.1349 167.705 91.2589C167.891 91.3231 168.072 91.403 168.248 91.4914C168.301 91.518 168.473 91.6483 168.526 91.6398C168.584 91.6305 168.702 91.4844 168.75 91.4477C169.34 90.9942 170.069 90.816 170.804 90.8214C171.633 90.8275 172.432 90.8691 173.124 91.3756C173.271 91.4828 173.41 91.6003 173.543 91.7239C173.613 91.789 173.68 91.8565 173.745 91.9268C173.784 91.9692 173.822 92.0126 173.859 92.0572C173.921 92.1328 173.911 92.1577 173.997 92.1049C174.33 91.9023 174.716 91.8075 175.105 91.8553C175.336 91.8838 175.56 91.9532 175.773 92.0445C175.846 92.0756 176.014 92.1996 176.091 92.2008C176.168 92.202 176.334 92.087 176.413 92.0578C176.84 91.8999 177.3 91.861 177.749 91.934C178.212 92.0093 178.667 92.1943 179.059 92.4499C179.248 92.5729 179.412 92.7092 179.544 92.892C179.601 92.971 179.653 93.0545 179.718 93.1277C179.756 93.1706 179.831 93.2146 179.851 93.2688C179.839 93.2363 180.357 93.0361 180.406 93.0233C180.667 92.9551 180.932 92.969 181.188 93.0531C181.668 93.2113 182.08 93.5661 182.419 93.9298C182.594 94.1167 182.746 94.3232 182.876 94.5432C182.938 94.6486 182.994 94.757 183.046 94.8677C183.071 94.9213 183.088 94.9884 183.121 95.0368C183.164 95.099 183.193 95.1002 183.27 95.1273C183.663 95.2652 184.021 95.4985 184.294 95.8137C184.569 96.1327 184.748 96.5254 184.823 96.939C184.828 96.9634 184.83 97.0644 184.845 97.0776C184.864 97.0957 184.943 97.0877 184.973 97.0912C185.076 97.1034 185.179 97.1215 185.281 97.1455C185.467 97.1898 185.649 97.255 185.821 97.3403C186.492 97.6727 186.972 98.2958 187.207 98.9971C187.453 99.7329 187.449 100.576 187.154 101.298C187.107 101.415 187.05 101.528 186.984 101.635C186.943 101.701 186.93 101.701 186.956 101.77C186.986 101.847 187.04 101.921 187.075 101.996C187.189 102.241 187.269 102.501 187.32 102.766C187.402 103.2 187.444 103.657 187.362 104.096C187.324 104.299 187.258 104.498 187.157 104.679C187.105 104.772 187.045 104.859 186.977 104.94C186.942 104.982 186.904 105.022 186.865 105.061C186.843 105.083 186.813 105.102 186.794 105.127C186.748 105.187 186.738 105.137 186.762 105.225C186.795 105.348 186.871 105.47 186.918 105.589C186.966 105.713 187.009 105.838 187.049 105.964C187.13 106.22 187.198 106.48 187.24 106.745C187.322 107.253 187.307 107.795 187.067 108.261C186.965 108.461 186.817 108.636 186.639 108.772C186.551 108.838 186.457 108.896 186.357 108.943C186.306 108.967 186.241 108.978 186.218 109.027C186.193 109.08 186.23 109.186 186.239 109.245C186.312 109.762 186.349 110.305 186.196 110.812C186.055 111.278 185.744 111.69 185.34 111.963C184.556 112.492 183.5 112.462 182.676 112.039C182.461 111.928 182.261 111.791 182.082 111.629C181.625 112.244 180.687 112.225 180.02 112.05C179.19 111.831 178.523 111.253 178.139 110.493C177.614 111.133 176.512 110.925 176.148 110.231C176.059 110.061 176.006 109.874 175.98 109.684C175.966 109.584 175.975 109.484 175.965 109.385C175.952 109.259 175.868 109.136 175.819 109.015C175.725 108.777 175.667 108.532 175.664 108.276C175.663 108.143 175.68 108.012 175.693 107.88C175.704 107.761 175.671 107.649 175.652 107.532C175.865 107.567 176.125 107.509 176.326 107.447C176.522 107.387 176.707 107.227 176.846 107.081C177.169 106.742 177.366 106.297 177.501 105.855C177.797 104.884 177.675 103.719 176.7 103.186C176.246 102.938 174.885 102.938 174.344 103.061C173.775 103.19 173.13 104.447 173.099 104.566C173.079 104.639 173.089 104.729 173.022 104.778C172.874 104.885 172.631 104.699 172.523 104.607C172.335 104.449 172.201 104.238 172.085 104.025C171.833 103.559 171.629 103.06 171.485 102.551C171.374 102.158 171.303 101.753 171.159 101.37C171.014 100.989 170.787 100.649 170.434 100.433C170.049 100.198 169.608 100.075 169.186 99.9272C168.768 99.781 168.356 99.6024 168.032 99.2922C167.961 99.224 167.892 99.1515 167.834 99.0712C167.789 99.0078 167.744 98.8864 167.675 98.8462C167.568 98.7837 167.411 98.9463 167.318 99.0054C166.86 99.2967 166.478 99.703 166.17 100.147C165.864 100.588 165.612 101.013 165.408 101.506C165.256 101.871 165.162 102.34 164.895 102.639C164.776 102.773 163.892 102.854 163.605 102.737C163.319 102.62 162.997 102.317 162.901 102.127C162.803 101.933 162.779 101.719 162.821 101.506C162.846 101.381 162.897 101.264 162.924 101.141C162.948 101.037 162.969 100.939 163.019 100.845C163.114 100.665 163.277 100.536 163.473 100.482C163.269 100.294 163.1 100.068 162.983 99.8163C162.861 99.5544 162.758 99.236 162.729 98.9485C162.705 98.7151 162.742 98.4732 162.869 98.2725C163.003 98.0621 163.24 97.9248 163.445 97.7935C163.132 97.5479 162.864 97.2492 162.643 96.9185C162.214 96.2754 161.949 95.4648 162.167 94.6981Z" fill="#191847"/>
<path fill-rule="evenodd" clip-rule="evenodd" d="M203.923 165.506C206.103 165.506 207.869 167.272 207.869 169.452V204.634C207.869 206.813 206.103 208.58 203.923 208.58H160.834C158.655 208.58 156.888 206.813 156.888 204.634V169.452C156.888 167.272 158.655 165.506 160.834 165.506H203.923ZM197.172 175.232C197.717 175.232 198.158 175.674 198.158 176.219V197.867C198.158 198.412 197.717 198.853 197.172 198.853H167.585C167.04 198.853 166.599 198.412 166.599 197.867V176.219C166.599 175.674 167.04 175.232 167.585 175.232H197.172Z" fill="#C6C6C6"/>
<path fill-rule="evenodd" clip-rule="evenodd" d="M141.035 184.466C139.745 188.992 136.531 197.57 132.088 207.421L127.865 206.187C131.559 183.519 134.634 168.512 136.395 163.944C137.558 160.926 146.361 161.28 145.348 167.352C144.924 169.899 143.244 176.717 141.035 184.466ZM158.391 168.411C165.277 169.84 179.554 174.892 183.631 176.506C186.193 177.52 184.542 180.961 182.356 180.66C181.985 180.609 180.676 180.462 178.722 180.243C172.445 179.54 159.52 178.091 149.716 176.678C144.555 175.934 147.331 166.25 152.691 167.274C154.494 167.619 156.412 168.001 158.391 168.411Z" fill="#B28B67"/>
<path fill-rule="evenodd" clip-rule="evenodd" d="M136.126 161.386C136.83 159.085 168.832 150.917 168.832 150.917H171.455V153.365L149.403 164.609C149.432 164.972 149.414 165.355 149.343 165.76C149.502 174.096 145.94 180.323 142.414 186.488C140.108 190.52 137.817 194.526 136.591 199.077L128.489 197.866C128.725 197.262 129.098 194.536 129.609 190.809C130.895 181.411 133.053 165.649 136.081 161.478C136.091 161.464 136.102 161.449 136.113 161.435C136.117 161.419 136.121 161.402 136.126 161.386Z" fill="#064B70"/>
<path fill-rule="evenodd" clip-rule="evenodd" d="M169.622 171.287C171.64 170.882 173.498 170.521 175.088 170.242C185.358 168.438 188.353 162.931 186.582 150.917H167.659C164.568 151.806 148.504 158.554 140.17 162.143C134.653 164.518 136.392 173.081 139.516 175.309C139.533 175.446 139.589 175.539 139.689 175.58C151.533 180.497 161.633 180.13 168.119 179.895C170.835 179.796 172.918 179.72 174.229 180.066L176.283 173.576L169.622 171.287Z" fill="#006298"/>
<path fill-rule="evenodd" clip-rule="evenodd" d="M181.476 175.949C181.483 175.661 181.726 175.43 182.013 175.458C182.735 175.528 183.999 175.685 184.583 175.97C185.426 176.382 186.907 177.454 186.907 177.454C186.43 178.434 178.332 195.063 178.332 195.063C178.332 195.063 175.732 194.643 176.272 193.076C176.811 191.509 177.142 190.459 177.142 190.459L177.488 180.391C177.493 180.252 177.611 180.145 177.75 180.154L179.383 180.257C179.383 180.257 180.688 179.199 181.104 178.343C181.387 177.763 181.459 176.623 181.476 175.949Z" fill="#C2C7CA"/>
<path fill-rule="evenodd" clip-rule="evenodd" d="M133.347 205.116C133.61 204.996 133.924 205.114 134.025 205.385C134.278 206.065 134.691 207.272 134.691 207.923C134.691 208.862 134.379 210.665 134.379 210.665C133.291 210.665 114.818 210.665 114.818 210.665C114.818 210.665 114.056 208.14 115.698 207.939C117.341 207.738 118.428 207.575 118.428 207.575L127.613 203.474C127.74 203.417 127.889 203.476 127.942 203.605L128.566 205.12C128.566 205.12 130.086 205.831 131.037 205.831C131.681 205.831 132.734 205.397 133.347 205.116Z" fill="#C2C7CA"/>
<path fill-rule="evenodd" clip-rule="evenodd" d="M141.501 155L151.325 145.4L154.588 151.056L144.372 157.088C141.81 161.13 140.306 162.877 139.859 162.328C139.481 161.865 139.654 161.357 139.813 160.89C139.937 160.526 140.053 160.186 139.894 159.91C139.531 159.281 137.48 159.642 135.548 160.067C133.616 160.492 134.063 159.542 134.474 159.046C136.3 157.57 138.642 156.221 141.501 155ZM199.409 168.947C198.393 166.882 194.932 146.754 194.932 146.754L187.684 146.783C187.684 146.783 194.397 168.487 194.932 169.815C195.627 171.54 194.446 174.046 193.646 175.746C193.522 176.009 193.407 176.252 193.31 176.471C194.42 176.969 194.954 176.367 195.516 175.733C196.152 175.016 196.824 174.258 198.407 174.995C199.018 175.28 199.597 175.617 200.162 175.946C202.114 177.083 203.908 178.127 206.348 176.619C206.735 176.38 207.159 175.48 206.135 174.777C203.583 173.024 199.906 169.957 199.409 168.947Z" fill="#B28B67"/>
<path fill-rule="evenodd" clip-rule="evenodd" d="M174.335 116.295L171.336 115.779C166.173 128.698 157.159 140.437 144.293 150.995L154.015 162.825C166.879 147.792 174.808 132.282 174.335 116.295Z" fill="#553097"/>
<path fill-rule="evenodd" clip-rule="evenodd" d="M187.408 154.043H160.704C160.704 154.043 169.984 131.442 169.984 115.645L178.039 114.442C184.37 124.641 186.158 137.197 187.408 154.043Z" fill="#F4F4F4"/>
<path fill-rule="evenodd" clip-rule="evenodd" d="M199.547 165.506C196.626 132.504 178.217 114.442 178.217 114.442L178.21 114.448C178.209 114.446 178.208 114.444 178.207 114.442H177.681C176.737 114.475 174.806 114.56 174.806 114.56L172.86 120.131C172.551 130.321 169.252 161.201 169.252 161.201H186.732C186.703 162.617 186.637 164.052 186.531 165.506H199.547Z" fill="#8663C6"/>
<path fill-rule="evenodd" clip-rule="evenodd" d="M186.73 161.337C186.87 155.171 186.324 149.382 185.413 144.143C184.936 150.359 183.94 157.84 181.861 161.337H186.73Z" fill="black" fill-opacity="0.1"/>
<path fill-rule="evenodd" clip-rule="evenodd" d="M182.861 150.569L174.23 146.55V150.569H182.861Z" fill="white" fill-opacity="0.2"/>
<path fill-rule="evenodd" clip-rule="evenodd" d="M43.9374 65.1868C39.667 65.6532 36.5831 69.4931 37.0495 73.7636L37.7625 80.2931C38.1855 84.1665 41.384 87.0637 45.1617 87.2209C45.1668 87.2522 45.172 87.2836 45.1773 87.3152L55.1434 86.2269C56.6574 84.3859 53.5154 73.3636 51.9146 69.7717C51.6881 69.2635 51.4832 68.9027 51.2943 68.6629C49.7424 66.2926 46.9468 64.8582 43.9374 65.1868Z" fill="#191847"/>
<path fill-rule="evenodd" clip-rule="evenodd" d="M45.8979 81.7502C48.2702 82.8489 50.5279 83.2583 51.5256 82.8816C54.0269 81.9371 53.2353 72.4958 50.8385 69.0013C48.4417 65.5069 38.0274 65.007 38.3145 72.4178C38.4141 74.9896 39.7344 77.1503 41.5207 78.8361L40.1264 92.3814L48.3742 91.4807L45.8979 81.7502Z" fill="#B28B67"/>
<path fill-rule="evenodd" clip-rule="evenodd" d="M37.2269 72.5795C37.4407 72.3163 37.6476 72.0616 37.8553 71.8312L37.8152 71.5659C37.8152 71.5659 39.8251 65.9838 43.8046 65.5492C47.7806 65.115 49.2399 66.8261 50.4804 68.2806L50.4837 68.2845C50.1341 70.264 48.5339 71.2241 46.7241 72.31C45.9448 72.7776 45.1265 73.2685 44.3526 73.8742C43.9987 73.6458 43.5671 73.5328 43.1157 73.5821C42.0719 73.6961 41.318 74.6348 41.432 75.6787C41.546 76.7225 42.4847 77.4764 43.5286 77.3624C43.5573 77.3592 43.5859 77.3555 43.6142 77.3511C44.4399 81.3914 44.7966 86.069 43.785 87.2991L33.8189 88.3875C32.99 83.448 34.121 81.8896 35.2767 80.2972C36.3641 78.7988 37.4735 77.2703 36.9926 72.8667C37.0718 72.7704 37.1498 72.6744 37.2269 72.5795L37.2269 72.5795Z" fill="#191847"/>
<path fill-rule="evenodd" clip-rule="evenodd" d="M44.9785 124.431L57.6419 168.068L63.5981 200.831H69.5763L63.6087 124.431H44.9785Z" fill="#997659"/>
<path fill-rule="evenodd" clip-rule="evenodd" d="M39.2879 124.431C40.1715 147.1 39.823 159.464 39.6252 161.524C39.4275 163.583 38.3048 177.377 30.6543 201.522H36.8722C47.004 178.359 50.5409 164.565 51.7029 161.524C52.8649 158.482 56.297 146.118 61.3076 124.431H39.2879Z" fill="#B28B67"/>
<path fill-rule="evenodd" clip-rule="evenodd" d="M44.707 124.431C48.001 139.446 53.6981 163.415 61.7983 196.337H70.5421C71.188 162.546 68.4406 140.305 63.6829 124.431H44.707Z" fill="#553097"/>
<path fill-rule="evenodd" clip-rule="evenodd" d="M39.2442 124.431C40.1096 147.1 37.8669 169.433 30.9199 196.69H40.2491C50.3995 173.872 57.6746 151.649 62.6467 124.431H39.2442Z" fill="#8663C6"/>
<path fill-rule="evenodd" clip-rule="evenodd" d="M29.7676 206.017L30.0411 201.607C30.0767 201.032 30.64 200.636 31.2124 200.699C34.1157 201.023 37.6585 199.794 37.6585 199.794C41.1795 202.288 46.0168 203.64 48.6993 204.241C49.7536 204.478 50.4352 205.552 50.1405 206.592L50.0094 207.054H37.6585H30.4537L29.7676 206.017Z" fill="#C2C7CA"/>
<path fill-rule="evenodd" clip-rule="evenodd" d="M62.2637 206.017L62.5372 201.607C62.5728 201.032 63.1361 200.636 63.7085 200.699C66.6118 201.023 70.1546 199.794 70.1546 199.794C73.6756 202.288 78.5129 203.64 81.1954 204.241C82.2497 204.478 82.9313 205.552 82.6366 206.592L82.5055 207.054H70.1546H62.9498L62.2637 206.017Z" fill="#C2C7CA"/>
<path fill-rule="evenodd" clip-rule="evenodd" d="M82.0114 92.8349L70.9145 100.998L75.9897 105.197L83.6165 96.0442C88.0342 94.1748 90.0073 92.9714 89.5356 92.4337C89.138 91.9804 88.6074 92.0671 88.1187 92.1469C87.738 92.2091 87.3827 92.2671 87.1354 92.0625C86.5707 91.5953 87.259 89.6145 87.9924 87.7633C88.7259 85.9122 87.712 86.1971 87.1543 86.5223C85.3973 88.0911 83.683 90.1953 82.0114 92.8349ZM28.0279 150.635C28.4706 148.387 30.1385 120.54 30.1385 120.54L37.4545 118.596C37.4545 118.596 32.7323 148.891 32.5617 150.306C32.3401 152.144 34.126 154.246 35.337 155.671C35.5243 155.891 35.6979 156.096 35.8482 156.28C34.9083 157.047 34.2388 156.607 33.533 156.144C32.7358 155.621 31.8923 155.067 30.5604 156.186C30.0459 156.619 29.5764 157.093 29.1177 157.556C27.5333 159.155 26.0778 160.624 23.3385 159.809C22.9043 159.679 22.2629 158.925 23.0663 157.983C25.0677 155.636 27.8115 151.734 28.0279 150.635Z" fill="#997659"/>
<path fill-rule="evenodd" clip-rule="evenodd" d="M41.4985 93.277L46.8926 90.7893C54.4902 101.689 65.4623 105.213 79.7459 94.2193L89.9561 108.024C76.372 117.87 60.3712 118.998 49.1195 104.588C46.2068 100.858 43.3463 96.8833 41.4985 93.277Z" fill="#AFB9C5"/>
<path fill-rule="evenodd" clip-rule="evenodd" d="M40.6109 91.0578L40.0597 91.2065C30.3829 106.229 26.4097 124.846 28.1404 147.058L45.6733 142.327C44.6998 138.299 43.8517 134.351 43.1593 130.473L66.5772 124.155C64.9502 121.046 63.1482 118.126 61.3145 115.155C57.0683 108.275 52.6516 101.118 49.8416 90.703L40.6327 91.0568L40.6276 91.0533L40.6115 91.0576L40.611 91.0576C40.6109 91.0577 40.6109 91.0577 40.6109 91.0578Z" fill="#C5CFD6"/>
<path fill-rule="evenodd" clip-rule="evenodd" d="M43.1598 130.473C41.7501 122.577 40.986 114.977 41.1232 107.602C42.6622 115.034 44.9899 124.141 47.9194 129.188L43.1598 130.473Z" fill="black" fill-opacity="0.1"/>
<defs>
<filter id="filter0_d_8060_84135" x="62.6345" y="35.9541" width="92.0257" height="166.595" filterUnits="userSpaceOnUse" color-interpolation-filters="sRGB">
<feFlood flood-opacity="0" result="BackgroundImageFix"/>
<feColorMatrix in="SourceAlpha" type="matrix" values="0 0 0 0 0 0 0 0 0 0 0 0 0 0 0 0 0 0 127 0" result="hardAlpha"/>
<feOffset dx="-2.07438" dy="4.56362"/>
<feGaussianBlur stdDeviation="3.52644"/>
<feColorMatrix type="matrix" values="0 0 0 0 0 0 0 0 0 0 0 0 0 0 0 0 0 0 0.1 0"/>
<feBlend mode="normal" in2="BackgroundImageFix" result="effect1_dropShadow_8060_84135"/>
<feBlend mode="normal" in="SourceGraphic" in2="effect1_dropShadow_8060_84135" result="shape"/>
</filter>
</defs>
</svg>
