<svg width="25" height="25" viewBox="0 0 25 25" fill="none" xmlns="http://www.w3.org/2000/svg">
<path fill-rule="evenodd" clip-rule="evenodd" d="M7.14286 0C7.70641 0 8.16327 0.456852 8.16327 1.02041V3.06122H16.8367V1.02041C16.8367 0.456852 17.2936 0 17.8571 0C18.4207 0 18.8776 0.456852 18.8776 1.02041V3.06122H22.449C23.8578 3.06122 25 4.20334 25 5.61224V22.449C25 23.8578 23.8578 25 22.449 25H2.55102C1.14211 25 0 23.8578 0 22.449V5.61224C0 4.20335 1.14213 3.06122 2.55102 3.06122H6.12245V1.02041C6.12245 0.456852 6.5793 0 7.14286 0ZM16.8367 5.10204V6.37755C16.8367 6.94111 17.2936 7.39796 17.8571 7.39796C18.4207 7.39796 18.8776 6.94111 18.8776 6.37755V5.10204H22.449C22.7307 5.10204 22.9592 5.33048 22.9592 5.61224V9.18367H2.04082V5.61224C2.04082 5.33046 2.26924 5.10204 2.55102 5.10204H6.12245V6.37755C6.12245 6.94111 6.5793 7.39796 7.14286 7.39796C7.70641 7.39796 8.16327 6.94111 8.16327 6.37755V5.10204H16.8367ZM2.04082 11.2245H22.9592V22.449C22.9592 22.7307 22.7307 22.9592 22.449 22.9592H2.55102C2.26925 22.9592 2.04082 22.7307 2.04082 22.449V11.2245Z" fill="#494746"/>
<path fill-rule="evenodd" clip-rule="evenodd" d="M4.59184 14.4133C4.59184 13.6384 5.21999 13.0102 5.9949 13.0102C6.76981 13.0102 7.39796 13.6384 7.39796 14.4133C7.39796 15.1881 6.76981 15.8163 5.9949 15.8163C5.21999 15.8163 4.59184 15.1881 4.59184 14.4133Z" fill="#494746"/>
<path fill-rule="evenodd" clip-rule="evenodd" d="M4.59184 19.7704C4.59184 18.9955 5.21999 18.3673 5.9949 18.3673C6.76981 18.3673 7.39796 18.9955 7.39796 19.7704C7.39796 20.5453 6.76981 21.1735 5.9949 21.1735C5.21999 21.1735 4.59184 20.5453 4.59184 19.7704Z" fill="#494746"/>
<path fill-rule="evenodd" clip-rule="evenodd" d="M11.0969 14.4133C11.0969 13.6384 11.7251 13.0102 12.5 13.0102C13.2749 13.0102 13.9031 13.6384 13.9031 14.4133C13.9031 15.1881 13.2749 15.8163 12.5 15.8163C11.7251 15.8163 11.0969 15.1881 11.0969 14.4133Z" fill="#494746"/>
<path fill-rule="evenodd" clip-rule="evenodd" d="M11.0969 19.7704C11.0969 18.9955 11.7251 18.3673 12.5 18.3673C13.2749 18.3673 13.9031 18.9955 13.9031 19.7704C13.9031 20.5453 13.2749 21.1735 12.5 21.1735C11.7251 21.1735 11.0969 20.5453 11.0969 19.7704Z" fill="#494746"/>
<path fill-rule="evenodd" clip-rule="evenodd" d="M17.602 14.4133C17.602 13.6384 18.2302 13.0102 19.0051 13.0102C19.78 13.0102 20.4082 13.6384 20.4082 14.4133C20.4082 15.1881 19.78 15.8163 19.0051 15.8163C18.2302 15.8163 17.602 15.1881 17.602 14.4133Z" fill="#494746"/>
<path fill-rule="evenodd" clip-rule="evenodd" d="M17.602 19.7704C17.602 18.9955 18.2302 18.3673 19.0051 18.3673C19.78 18.3673 20.4082 18.9955 20.4082 19.7704C20.4082 20.5453 19.78 21.1735 19.0051 21.1735C18.2302 21.1735 17.602 20.5453 17.602 19.7704Z" fill="#494746"/>
</svg>
