<svg width="227" height="226" viewBox="0 0 227 226" fill="none" xmlns="http://www.w3.org/2000/svg">
<g clip-path="url(#clip0_19061_159559)">
<rect x="175.039" y="41.7695" width="43.9231" height="34.4615" rx="6.53846" fill="#4FC254"/>
<path d="M187.114 65V53.022H188.973L194.858 61.2729H194.991V53.022H197.05V65H195.199L189.313 56.749H189.181V65H187.114ZM200.769 68.1875C200.52 68.1875 200.229 68.1792 199.98 68.1543V66.5688C200.146 66.5854 200.378 66.5938 200.594 66.5938C201.441 66.5938 201.947 66.2451 202.171 65.4233L202.279 65.0083L199.034 55.9272H201.292L203.408 63.0161H203.566L205.674 55.9272H207.849L204.595 65.1909C203.815 67.4653 202.777 68.1875 200.769 68.1875Z" fill="#F4F4F4"/>
<path fill-rule="evenodd" clip-rule="evenodd" d="M64.2551 98.9045C70.8048 102.852 77.2401 104.76 80.261 103.981C87.8359 102.028 88.5323 74.3173 82.6713 63.3927C76.8102 52.468 46.6794 47.7064 45.1607 69.3516C44.6336 76.8639 47.7879 83.5682 52.4485 89.0388L44.0918 127.989H68.3662L64.2551 98.9045Z" fill="#B28B67"/>
<path fill-rule="evenodd" clip-rule="evenodd" d="M34.5779 62.1467C33.7939 61.3697 33.3662 60.2607 32.9962 59.2077C32.612 58.1138 32.2387 57.0086 31.9836 55.87C31.474 53.5951 31.4691 50.9789 33.092 49.2124C34.3936 47.7958 36.3465 47.1605 38.1489 47.0224C39.3497 46.9303 40.5831 47.0985 41.7342 47.4769C42.8763 47.8523 43.8607 48.6005 44.9679 49.0648C45.0102 46.6133 45.4301 44.0481 46.6739 41.9548C47.8707 39.9407 49.7788 38.8105 51.9519 38.5115C54.1824 38.2046 56.3849 38.7265 58.3817 39.8064C58.8816 40.0768 59.3769 40.3601 59.8508 40.6807C60.2477 40.9493 60.6603 41.2726 61.1259 41.3818C61.645 41.5037 61.9023 41.2039 62.2397 40.8252C62.6353 40.3811 63.0809 39.99 63.5525 39.6433C65.6378 38.1105 68.3739 37.4803 70.7898 38.3991C71.9029 38.8224 72.9853 39.5413 73.7405 40.5319C74.4137 41.4149 74.8938 42.8157 75.8229 43.4309C76.2172 43.6921 76.4956 43.3461 76.8546 43.0903C77.3938 42.7061 77.9081 42.2821 78.4538 41.9083C79.2203 41.3831 80.0503 40.9903 80.939 40.7847C82.2401 40.4837 84.0381 40.5542 84.4101 42.2583C84.5498 42.8984 84.4427 43.583 84.3976 44.2279C84.3357 45.1135 84.2711 45.9987 84.1942 46.883C84.1358 47.5544 84.062 48.2028 83.9353 48.8621C83.8677 49.2136 83.6562 49.8688 83.8069 50.2207C83.9952 50.6606 84.8644 50.4105 85.2358 50.4258C85.9693 50.4561 86.7059 50.5848 87.384 50.8982C87.9097 51.1411 88.4623 51.4984 88.6841 52.1008C88.8205 52.4709 88.7846 52.851 88.7201 53.2318C88.6429 53.6887 88.7312 53.931 88.7889 54.3921C89.7741 53.907 93.1878 52.8292 93.6174 54.5947C93.7604 55.1826 93.4347 55.8468 93.1862 56.3426C92.7505 57.2121 92.1792 58.0069 91.5951 58.7649C90.3767 60.3461 88.9222 61.7099 87.3573 62.8762C89.1908 63.6913 89.6694 66.0956 88.082 67.5281C87.3811 68.1605 86.4387 68.3013 85.5546 68.2609C85.231 68.2461 84.7645 68.1217 84.5098 68.178C84.3728 68.2083 84.2261 68.3245 84.0363 68.3374C82.7885 68.4229 81.38 68.1223 80.1603 67.8454C77.9869 67.3521 75.9293 66.3224 74.2491 64.7541C73.818 64.3519 73.462 64.1203 72.8818 64.1262C72.3734 64.1314 71.8746 64.2708 71.3667 64.2836C70.0228 64.318 68.8111 63.661 67.5631 63.2237C67.4867 64.9095 67.0066 66.7663 66.317 68.283C65.7546 69.5198 64.5802 69.6996 63.4262 69.8081C59.7359 70.1553 56.0326 69.7678 52.3377 69.7729C55.9145 70.5814 59.6105 70.9146 63.1556 71.866C64.758 72.296 63.5344 73.376 62.8492 74.1246C61.721 75.3575 60.8821 76.8851 60.3003 78.4944C58.5506 76.2136 55.4579 74.7108 52.7179 75.4115C49.6905 76.1855 47.5587 80.2796 49.4946 83.2229C50.6185 84.9315 52.6482 85.5912 54.337 86.3252C53.0195 87.695 52.7009 89.718 51.9079 91.4221C51.5168 92.2625 50.9678 93.2127 50.0932 93.5055C49.7696 93.6139 49.3902 93.6232 49.1349 93.887C48.8187 94.2136 48.7433 94.5787 48.3395 94.8594C46.728 95.9798 44.2109 95.8934 42.7825 94.4314C41.4908 93.1091 41.8269 91.0167 42.9057 89.6762C41.1884 88.9604 38.0599 88.0398 38.7424 85.3645C35.0214 85.1174 25.987 79.0826 30.9811 74.6728C28.2403 73.1238 25.7223 69.3382 27.4828 66.0012C28.8384 63.4316 31.9912 62.2829 34.5779 62.1467Z" fill="#1B1B1B"/>
<path fill-rule="evenodd" clip-rule="evenodd" d="M134.596 128.766L169.887 106.881C178.863 104.897 186.504 102.301 192.809 99.093C194.362 97.9139 196.39 95.4857 190.653 95.7116C184.916 95.9375 178.899 95.9229 178.404 93.9879C177.909 92.0529 181.685 89.896 180.491 87.2662C179.694 85.513 174.063 89.6347 163.596 99.6311L130.145 111.375L134.596 128.766Z" fill="#B28B67"/>
<path d="M94.4586 202.429C96.0271 193.027 96.0961 180.592 88.8791 158.305C83.4167 141.436 77.5463 123.308 77.31 110.918C77.2909 109.914 75.4375 108.146 74.6176 108.377C65.623 110.918 55.3678 106.478 55.3678 106.478C47.3135 119.431 44.1741 122.813 42.8579 126.797C41.2335 131.714 42.3861 137.549 40.5039 163.427C52.8637 182.385 71.9911 196.528 94.4586 202.429Z" fill="#6497B3"/>
<path d="M73.0213 193.79C73.2938 192.767 73.6195 191.741 73.9635 190.657C77.0857 180.82 81.7197 166.219 61.8784 106.477H50.033C47.0119 106.477 45.7293 108.668 45.1268 109.83C37.7155 124.126 34.1953 136.891 32.8047 148.948C40.8516 167.998 55.1006 183.789 73.0213 193.79Z" fill="#7ADC7E"/>
<path fill-rule="evenodd" clip-rule="evenodd" d="M60.164 106.519C81.9106 106.477 118.269 111.058 160.374 97.541L164.422 117.771C128.234 141.045 91.5148 158.195 61.0667 148.301C55.9721 146.645 63.7138 132.233 60.164 106.519Z" fill="#7ADC7E"/>
</g>
<defs>
<clipPath id="clip0_19061_159559">
<rect width="225.5" height="225.5" fill="white" transform="translate(0.75 0.25)"/>
</clipPath>
</defs>
</svg>
