<svg width="101" height="100" viewBox="0 0 101 100" fill="none" xmlns="http://www.w3.org/2000/svg">
<rect x="6" y="5" width="90" height="90" rx="45" fill="white"/>
<path d="M16.8362 20.9061C16.7659 18.8927 18.3412 17.2034 20.3546 17.1331L52.5144 16.0101C54.5279 15.9398 56.2171 17.515 56.2874 19.5284L58.865 93.3399C58.9353 95.3533 57.3601 97.0426 55.3466 97.1129L23.1868 98.2359C21.1733 98.3062 19.4841 96.731 19.4138 94.7176L16.8362 20.9061Z" fill="#C2C7CA"/>
<path fill-rule="evenodd" clip-rule="evenodd" d="M21.3303 18.6064C19.6525 18.665 18.3398 20.0727 18.3984 21.7505L20.8919 93.1547C20.9505 94.8326 22.3581 96.1453 24.036 96.0867L53.9314 95.0427C55.6093 94.9841 56.922 93.5764 56.8634 91.8986L54.3699 20.4944C54.3113 18.8165 52.9036 17.5038 51.2257 17.5624L21.3303 18.6064ZM28.0468 18.3724C27.2739 18.3993 26.6692 19.0478 26.6962 19.8207C26.7232 20.5936 27.3716 21.1983 28.1446 21.1713L44.7223 20.5924C45.4952 20.5654 46.0999 19.917 46.0729 19.1441C46.0459 18.3711 45.3974 17.7665 44.6245 17.7935L28.0468 18.3724Z" fill="white"/>
<mask id="mask0_17649_10310" style="mask-type:luminance" maskUnits="userSpaceOnUse" x="18" y="15" width="53" height="82">
<rect x="18.002" y="17.1553" width="50.1697" height="79.265" transform="rotate(-2 18.002 17.1553)" fill="white"/>
</mask>
<g mask="url(#mask0_17649_10310)">
<path fill-rule="evenodd" clip-rule="evenodd" d="M13.8873 79.0166C13.8873 79.0166 22.79 83.6782 29.6579 85.138C36.5258 86.5978 43.2836 83.7695 43.2836 83.7695C43.2836 83.7695 34.5984 79.081 28.6043 77.8069C22.6102 76.5328 13.8873 79.0166 13.8873 79.0166Z" fill="white"/>
<path fill-rule="evenodd" clip-rule="evenodd" d="M34.5789 88.8459C34.5375 88.7415 34.5073 88.6309 34.4895 88.5144C34.1205 86.1027 25.7285 59.1472 25.3184 54.458L40.53 57.6913C40.8418 61.2566 40.9825 83.2445 40.7398 87.5738C41.3798 94.6203 41.0395 116.928 41.2618 118.526C41.4957 120.207 37.968 121.156 37.5278 119.057C36.8275 115.718 35.408 106.588 35.0728 101.126C34.7586 96.006 34.5905 91.4239 34.5789 88.8459Z" fill="#997659"/>
<path fill-rule="evenodd" clip-rule="evenodd" d="M21.5095 89.141C15.0004 89.3904 -8.19436 87.4124 -9.83905 87.5259C-11.5309 87.6426 -12.2301 84.0551 -10.1071 83.7615C-6.72904 83.2943 2.4718 82.5113 7.9399 82.556C12.3381 82.592 16.3339 82.7078 19.0037 82.8458C20.3281 75.5395 23.0312 57.9046 24.4865 54.281L37.946 57.1419C36.5504 60.6167 25.6402 85.8158 24.0924 88.2413C23.579 89.1156 22.5554 89.3326 21.5095 89.141Z" fill="#B28B67"/>
<path fill-rule="evenodd" clip-rule="evenodd" d="M24.5304 54.2898C24.5304 54.2898 33.9686 53.6335 41.3661 57.8683C41.4204 66.6675 45.1854 70.9556 43.2323 84.0133C33.343 86.5596 23.9141 76.592 13.7852 78.9721C12.4441 72.3464 19.2323 58.5193 24.5304 54.2898Z" fill="#C5CFD6"/>
</g>
<path fill-rule="evenodd" clip-rule="evenodd" d="M32.0125 30.5651C33.6705 31.1144 35.2002 31.215 35.8339 30.8893C37.423 30.0726 36.1816 23.8644 34.3254 21.7261C32.4692 19.5878 25.5171 20.0455 26.2696 24.9439C26.5307 26.644 27.5713 27.9785 28.8852 28.9623L28.9864 38.0603L34.394 36.837L32.0125 30.5651Z" fill="#B28B67"/>
<path fill-rule="evenodd" clip-rule="evenodd" d="M35.0841 22.7027C34.9592 22.3994 34.749 22.0787 34.5759 21.8041C34.3527 21.4502 34.0681 21.1499 33.7674 20.8743C33.2011 20.3554 32.5632 19.9154 31.8933 19.5821C30.6697 18.9731 29.2447 18.7846 27.9873 19.2349C27.3524 19.4623 26.775 19.8547 26.3293 20.3913C25.9266 20.8761 25.5825 21.5335 24.9604 21.7159C24.2834 21.9143 23.5169 21.4506 22.8814 21.2008C22.165 20.9193 21.4349 20.7612 20.6821 20.8059C19.421 20.8807 18.3718 21.5499 17.7596 22.7369C17.1081 24.0001 16.8121 25.7034 17.7158 26.9773C17.8837 27.2142 18.0736 27.4029 18.3159 27.5401C18.5381 27.6659 18.8599 27.7805 18.9952 28.0312C19.1389 28.2978 18.9848 28.7185 18.951 28.996C18.9025 29.3936 18.8817 29.8042 19.0105 30.1952C19.2222 30.8375 19.7766 31.3709 20.3099 31.7039C20.8526 32.0427 21.4552 32.1711 22.0643 32.1553C22.471 32.1448 22.8784 32.0976 23.2673 31.979C23.4604 31.9201 23.6213 31.8264 23.8018 31.74C23.9772 31.656 24.0917 31.6817 24.2716 31.7476C25.1074 32.0541 25.9326 32.0591 26.7587 31.7985C27.4558 31.5786 28.2358 31.2211 28.7054 30.6032C29.2268 29.9168 29.0453 29.1741 28.7136 28.4118C28.8921 28.455 29.3472 28.4038 29.0102 28.1468C28.8767 28.045 28.6665 28.0389 28.515 27.9955C28.3385 27.9451 28.1539 27.87 28.0002 27.7573C27.3798 27.3024 27.6163 26.0373 28.1922 25.7074C29.0477 25.2172 29.5477 26.4709 30.2801 26.6588C30.7012 26.7668 31.0362 26.4132 31.2579 26.0793C31.5548 25.6321 31.7046 25.0947 31.8171 24.5569C31.9099 24.114 31.9886 23.6683 32.0854 23.2265C32.1306 23.0203 32.3137 22.4246 32.1141 22.2481C32.7429 21.9678 33.5383 22.0755 34.1866 22.3061C34.4546 22.4014 34.6703 22.5245 34.8546 22.7581C34.8941 22.8082 34.9901 22.9618 35.0649 22.9521C35.2041 22.934 35.1155 22.7789 35.0841 22.7027Z" fill="#191847"/>
<path fill-rule="evenodd" clip-rule="evenodd" d="M50.4836 52.815L58.4701 47.8626C60.5015 47.4135 62.2306 46.8259 63.6575 46.1001C64.0089 45.8332 64.4679 45.2837 63.1695 45.3348C61.8711 45.3859 60.5096 45.3827 60.3975 44.9448C60.2854 44.5069 61.1401 44.0187 60.8698 43.4236C60.6896 43.0269 59.4152 43.9596 57.0465 46.2218L49.4763 48.8796L50.4836 52.815Z" fill="#997659"/>
<path fill-rule="evenodd" clip-rule="evenodd" d="M18.9574 55.3318C18.9574 55.3318 15.4621 73.9972 14.971 75.4783C14.7309 76.2024 12.5389 78.6078 10.9824 80.0249C10.3577 80.5938 10.7285 81.1572 11.012 81.2808C13.3183 82.2864 14.4993 80.5481 16.2172 79.4388C18.0994 78.2236 18.2993 80.88 19.7952 79.9449C19.1516 78.9206 17.7199 77.0473 18.0737 75.6355C18.3095 74.6942 24.0839 54.6308 24.0839 54.6308L18.9574 55.3318Z" fill="#997659"/>
<path fill-rule="evenodd" clip-rule="evenodd" d="M30.7192 37.1824L34.7684 36.8846C37.007 45.6439 43.1787 50.5079 54.9608 46.9117L58.1721 58.1456C47.1136 61.1772 36.6059 58.077 32.8738 46.2093C31.9077 43.1372 31.0339 39.9215 30.7192 37.1824Z" fill="#553097"/>
<path fill-rule="evenodd" clip-rule="evenodd" d="M15.3493 73.0715C16.0613 57.9273 20.3364 45.6876 28.1743 36.3523L28.5593 36.2982L28.5724 36.2964L28.5761 36.2996L34.8494 36.8311C35.8708 44.0994 38.2585 49.3019 40.554 54.3036C41.5453 56.4636 42.5195 58.5862 43.359 60.8215L26.9427 63.1286C27.0831 65.8051 27.323 68.5425 27.6412 71.344L15.3493 73.0715Z" fill="#8663C6"/>
<path fill-rule="evenodd" clip-rule="evenodd" d="M26.9418 63.1285C26.6561 57.6795 26.7831 52.4833 27.5021 47.5149C27.9149 52.6621 28.7203 59.0063 30.2783 62.6596L26.9418 63.1285Z" fill="black" fill-opacity="0.1"/>
<path d="M82.5 15.8333H79.4C79.0862 14.7696 78.6617 13.7418 78.1333 12.7667L80.3167 10.5667C80.5519 10.337 80.7382 10.0621 80.8642 9.75841C80.9902 9.45477 81.0534 9.12874 81.05 8.8C81.0525 8.4714 80.9888 8.14565 80.8629 7.84214C80.7369 7.53864 80.5511 7.26358 80.3167 7.03333L77.9667 4.68333C77.7357 4.44952 77.4606 4.26388 77.1573 4.13718C76.8541 4.01047 76.5287 3.94523 76.2 3.94523C75.8713 3.94523 75.5459 4.01047 75.2427 4.13718C74.9394 4.26388 74.6643 4.44952 74.4333 4.68333L72.2333 6.88333C71.2618 6.34325 70.2333 5.91283 69.1667 5.6V2.5C69.1667 1.83696 68.9033 1.20107 68.4344 0.732233C67.9656 0.263392 67.3297 0 66.6667 0H63.3333C62.6703 0 62.0344 0.263392 61.5656 0.732233C61.0967 1.20107 60.8333 1.83696 60.8333 2.5V5.6C59.7667 5.91283 58.7382 6.34325 57.7667 6.88333L55.5667 4.68333C55.3357 4.44952 55.0606 4.26388 54.7573 4.13718C54.4541 4.01047 54.1287 3.94523 53.8 3.94523C53.4713 3.94523 53.1459 4.01047 52.8427 4.13718C52.5394 4.26388 52.2643 4.44952 52.0333 4.68333L49.6833 7.03333C49.4489 7.26358 49.2631 7.53864 49.1371 7.84214C49.0111 8.14565 48.9475 8.4714 48.95 8.8C48.9446 9.12902 49.0069 9.45563 49.1331 9.75955C49.2592 10.0635 49.4465 10.3382 49.6833 10.5667L51.8667 12.7667C51.3383 13.7418 50.9138 14.7696 50.6 15.8333H47.5C46.837 15.8333 46.2011 16.0967 45.7322 16.5656C45.2634 17.0344 45 17.6703 45 18.3333V21.6667C45 22.3297 45.2634 22.9656 45.7322 23.4344C46.2011 23.9033 46.837 24.1667 47.5 24.1667H50.6C50.9108 25.2314 51.3355 26.2596 51.8667 27.2333L49.6833 29.4333C49.2152 29.9021 48.9522 30.5375 48.9522 31.2C48.9522 31.8625 49.2152 32.4979 49.6833 32.9667L52.0333 35.3167C52.5083 35.773 53.1414 36.0278 53.8 36.0278C54.4586 36.0278 55.0917 35.773 55.5667 35.3167L57.7667 33.1333C58.7404 33.6645 59.7686 34.0892 60.8333 34.4V37.5C60.8333 38.163 61.0967 38.7989 61.5656 39.2678C62.0344 39.7366 62.6703 40 63.3333 40H66.6667C67.3297 40 67.9656 39.7366 68.4344 39.2678C68.9033 38.7989 69.1667 38.163 69.1667 37.5V34.4C70.2314 34.0892 71.2596 33.6645 72.2333 33.1333L74.4333 35.3167C74.6643 35.5505 74.9394 35.7361 75.2427 35.8628C75.5459 35.9895 75.8713 36.0548 76.2 36.0548C76.5287 36.0548 76.8541 35.9895 77.1573 35.8628C77.4606 35.7361 77.7357 35.5505 77.9667 35.3167L80.3167 32.9667C80.7848 32.4979 81.0478 31.8625 81.0478 31.2C81.0478 30.5375 80.7848 29.9021 80.3167 29.4333L78.1333 27.2333C78.6645 26.2596 79.0892 25.2314 79.4 24.1667H82.5C83.163 24.1667 83.7989 23.9033 84.2678 23.4344C84.7366 22.9656 85 22.3297 85 21.6667V18.3333C85 17.6703 84.7366 17.0344 84.2678 16.5656C83.7989 16.0967 83.163 15.8333 82.5 15.8333ZM65 28.3333C63.3518 28.3333 61.7407 27.8446 60.3702 26.9289C58.9998 26.0132 57.9317 24.7117 57.301 23.189C56.6703 21.6663 56.5052 19.9908 56.8268 18.3742C57.1483 16.7577 57.942 15.2729 59.1074 14.1074C60.2729 12.942 61.7577 12.1483 63.3742 11.8268C64.9908 11.5052 66.6663 11.6703 68.189 12.301C69.7117 12.9317 71.0132 13.9998 71.9289 15.3702C72.8446 16.7407 73.3333 18.3518 73.3333 20C73.3333 22.2101 72.4554 24.3298 70.8926 25.8926C69.3298 27.4554 67.2101 28.3333 65 28.3333Z" fill="#005B89"/>
</svg>
