<svg width="166" height="164" viewBox="0 0 166 164" fill="none" xmlns="http://www.w3.org/2000/svg">
<rect x="9.69922" y="8.2002" width="147.6" height="147.6" rx="73.8" fill="#04344D"/>
<g filter="url(#filter0_d_12192_20921)">
<path d="M27.4686 34.2861C27.3532 30.9841 29.9366 28.2137 33.2387 28.0984L85.9808 26.2566C89.2828 26.1413 92.0532 28.7247 92.1685 32.0268L96.3957 153.078C96.511 156.38 93.9276 159.15 90.6255 159.265L37.8834 161.107C34.5814 161.222 31.8111 158.639 31.6957 155.337L27.4686 34.2861Z" fill="#C2C7CA"/>
</g>
<path fill-rule="evenodd" clip-rule="evenodd" d="M34.8369 30.5131C32.0852 30.6092 29.9324 32.9177 30.0285 35.6695L34.1178 152.772C34.2139 155.524 36.5225 157.677 39.2742 157.581L88.3027 155.869C91.0544 155.772 93.2072 153.464 93.1111 150.712L89.0218 33.6094C88.9257 30.8577 86.6171 28.7049 83.8654 28.8009L34.8369 30.5131ZM45.8519 30.1292C44.5844 30.1735 43.5927 31.2369 43.6369 32.5045C43.6812 33.7721 44.7446 34.7638 46.0122 34.7195L73.1997 33.7701C74.4672 33.7258 75.4589 32.6624 75.4147 31.3948C75.3704 30.1272 74.3069 29.1356 73.0394 29.1798L45.8519 30.1292Z" fill="white"/>
<mask id="mask0_12192_20921" style="mask-type:luminance" maskUnits="userSpaceOnUse" x="29" y="25" width="88" height="134">
<rect x="29.377" y="28.1328" width="82.2783" height="129.995" transform="rotate(-2 29.377 28.1328)" fill="white"/>
</mask>
<g mask="url(#mask0_12192_20921)">
<path fill-rule="evenodd" clip-rule="evenodd" d="M22.6274 129.587C22.6274 129.587 37.2278 137.232 48.4911 139.626C59.7544 142.02 70.8373 137.382 70.8373 137.382C70.8373 137.382 56.5936 129.692 46.7633 127.603C36.9329 125.513 22.6274 129.587 22.6274 129.587Z" fill="white"/>
<path fill-rule="evenodd" clip-rule="evenodd" d="M56.5643 145.706C56.4964 145.534 56.4468 145.353 56.4176 145.162C55.8124 141.207 42.0496 96.9999 41.377 89.3096L66.324 94.6122C66.8354 100.459 67.0662 136.519 66.6682 143.619C67.7178 155.176 67.1597 191.761 67.5243 194.381C67.9077 197.138 62.1224 198.694 61.4005 195.253C60.2519 189.776 57.924 174.803 57.3743 165.846C56.8589 157.448 56.5832 149.934 56.5643 145.706Z" fill="#997659"/>
<path fill-rule="evenodd" clip-rule="evenodd" d="M35.128 146.19C24.453 146.599 -13.5864 143.355 -16.2837 143.541C-19.0584 143.732 -20.205 137.849 -16.7233 137.368C-11.1833 136.601 3.90609 135.317 12.8738 135.391C20.0868 135.45 26.6399 135.639 31.0185 135.866C33.1904 123.883 37.6235 94.9622 40.0103 89.0196L62.0837 93.7114C59.795 99.41 41.9023 140.737 39.3639 144.714C38.5218 146.148 36.8431 146.504 35.128 146.19V146.19Z" fill="#B28B67"/>
<path fill-rule="evenodd" clip-rule="evenodd" d="M40.0809 89.0346C40.0809 89.0346 55.5594 87.9583 67.6915 94.9034C67.7805 109.334 73.9551 116.367 70.752 137.781C54.5335 141.957 39.0701 125.61 22.4587 129.514C20.2593 118.647 31.392 95.971 40.0809 89.0346Z" fill="#C5CFD6"/>
</g>
<path fill-rule="evenodd" clip-rule="evenodd" d="M52.3598 50.1278C55.0789 51.0288 57.5877 51.1938 58.627 50.6596C61.233 49.3202 59.1972 39.1387 56.1531 35.6319C53.1089 32.1251 41.7074 32.8758 42.9415 40.9091C43.3698 43.6972 45.0762 45.8858 47.231 47.4992L47.397 62.4199L56.2654 60.4137L52.3598 50.1278Z" fill="#B28B67"/>
<path fill-rule="evenodd" clip-rule="evenodd" d="M57.395 37.2349C57.1901 36.7374 56.8455 36.2115 56.5615 35.7612C56.1955 35.1807 55.7288 34.6883 55.2356 34.2363C54.307 33.3853 53.2607 32.6637 52.1621 32.117C50.1553 31.1183 47.8185 30.8091 45.7563 31.5477C44.7151 31.9206 43.7681 32.5642 43.0372 33.4442C42.3768 34.2392 41.8125 35.3173 40.7922 35.6164C39.6819 35.9418 38.4248 35.1814 37.3827 34.7718C36.2078 34.3101 35.0103 34.0508 33.7758 34.1241C31.7076 34.2468 29.9869 35.3442 28.9828 37.291C27.9143 39.3626 27.4289 42.1559 28.911 44.2453C29.1865 44.6337 29.4979 44.9432 29.8952 45.1682C30.2596 45.3746 30.7873 45.5624 31.0092 45.9737C31.2449 46.4108 30.9922 47.1007 30.9367 47.5559C30.8572 48.2079 30.823 48.8812 31.0344 49.5226C31.3816 50.5759 32.2908 51.4507 33.1654 51.9968C34.0554 52.5525 35.0437 52.763 36.0426 52.7371C36.7096 52.7199 37.3777 52.6424 38.0155 52.448C38.3322 52.3515 38.5961 52.1977 38.892 52.056C39.1797 51.9182 39.3675 51.9604 39.6626 52.0686C41.0332 52.5711 42.3866 52.5793 43.7413 52.152C44.8847 51.7913 46.1639 51.2051 46.9339 50.1916C47.789 49.066 47.4914 47.848 46.9474 46.5978C47.2401 46.6687 47.9865 46.5847 47.4338 46.1632C47.2148 45.9963 46.8702 45.9862 46.6216 45.9151C46.3322 45.8323 46.0295 45.7092 45.7775 45.5245C44.76 44.7783 45.1479 42.7036 46.0923 42.1626C47.4954 41.3587 48.3154 43.4147 49.5165 43.7228C50.2071 43.8999 50.7564 43.32 51.12 42.7725C51.607 42.039 51.8526 41.1577 52.0372 40.2757C52.1893 39.5493 52.3185 38.8184 52.4771 38.094C52.5512 37.7557 52.8516 36.7787 52.5243 36.4892C53.5555 36.0296 54.8599 36.2062 55.9232 36.5843C56.3627 36.7407 56.7164 36.9426 57.0187 37.3258C57.0834 37.4079 57.2409 37.6598 57.3635 37.6439C57.5918 37.6142 57.4465 37.3599 57.395 37.2349" fill="#191847"/>
<path fill-rule="evenodd" clip-rule="evenodd" d="M82.6489 86.616L95.7468 78.494C99.0782 77.7575 101.914 76.7939 104.254 75.6035C104.83 75.1658 105.583 74.2647 103.454 74.3485C101.324 74.4323 99.0915 74.4269 98.9077 73.7088C98.7239 72.9906 100.125 72.1901 99.6822 71.2141C99.3867 70.5634 97.2966 72.0931 93.412 75.8032L80.997 80.1619L82.6489 86.616Z" fill="#997659"/>
<path fill-rule="evenodd" clip-rule="evenodd" d="M30.9456 90.7434C30.9456 90.7434 25.2134 121.355 24.408 123.784C24.0143 124.971 20.4194 128.916 17.8667 131.24C16.8421 132.173 17.4503 133.097 17.9153 133.3C21.6975 134.949 23.6345 132.098 26.4518 130.279C29.5385 128.286 29.8664 132.643 32.3198 131.109C31.2642 129.429 28.9162 126.357 29.4963 124.041C29.8831 122.498 39.3532 89.5939 39.3532 89.5939L30.9456 90.7434Z" fill="#997659"/>
<path fill-rule="evenodd" clip-rule="evenodd" d="M50.2337 60.9781L56.8744 60.4898C60.5457 74.855 70.6673 82.8321 89.9899 76.9343L95.2564 95.3578C77.1205 100.33 59.8879 95.2454 53.7673 75.7824C52.1829 70.744 50.7498 65.4703 50.2337 60.9781Z" fill="#553097"/>
<path fill-rule="evenodd" clip-rule="evenodd" d="M46.6934 59.5288L46.0618 59.6175C33.2075 74.9274 26.1965 95.0005 25.0287 119.837L45.1875 117.004C44.6655 112.409 44.2721 107.92 44.0419 103.531L70.9648 99.7469C69.588 96.081 67.9905 92.6 66.3647 89.0576C62.6 80.8547 58.6843 72.3227 57.009 60.4027L46.7206 59.531L46.7147 59.5258L46.6938 59.5287L46.6934 59.5287C46.6934 59.5287 46.6934 59.5288 46.6934 59.5288Z" fill="#8663C6"/>
<path fill-rule="evenodd" clip-rule="evenodd" d="M44.0405 103.53C43.572 94.5941 43.7803 86.0725 44.9594 77.9243C45.6364 86.3657 46.9572 96.7701 49.5123 102.761L44.0405 103.53Z" fill="black" fill-opacity="0.1"/>
<path d="M135.16 25.9667H130.076C129.562 24.2222 128.865 22.5365 127.999 20.9373L131.579 17.3293C131.965 16.9527 132.271 16.5018 132.477 16.0038C132.684 15.5058 132.788 14.9711 132.782 14.432C132.786 13.8931 132.682 13.3589 132.475 12.8611C132.269 12.3634 131.964 11.9123 131.579 11.5347L127.725 7.68067C127.347 7.29721 126.896 6.99276 126.398 6.78497C125.901 6.57718 125.367 6.47018 124.828 6.47018C124.289 6.47018 123.755 6.57718 123.258 6.78497C122.761 6.99276 122.31 7.29721 121.931 7.68067L118.323 11.2887C116.73 10.4029 115.043 9.69704 113.293 9.184V4.1C113.293 3.01261 112.862 1.96976 112.093 1.20086C111.324 0.431963 110.281 0 109.193 0H103.727C102.639 0 101.597 0.431963 100.828 1.20086C100.059 1.96976 99.6268 3.01261 99.6268 4.1V9.184C97.8776 9.69704 96.1908 10.4029 94.5975 11.2887L90.9895 7.68067C90.6107 7.29721 90.1595 6.99276 89.6622 6.78497C89.1648 6.57718 88.6312 6.47018 88.0922 6.47018C87.5531 6.47018 87.0195 6.57718 86.5221 6.78497C86.0248 6.99276 85.5736 7.29721 85.1948 7.68067L81.3408 11.5347C80.9563 11.9123 80.6517 12.3634 80.445 12.8611C80.2384 13.3589 80.1341 13.8931 80.1382 14.432C80.1293 14.9716 80.2315 15.5072 80.4384 16.0057C80.6453 16.5041 80.9524 16.9546 81.3408 17.3293L84.9215 20.9373C84.055 22.5365 83.3587 24.2222 82.8442 25.9667H77.7602C76.6728 25.9667 75.6299 26.3986 74.861 27.1675C74.0921 27.9364 73.6602 28.9793 73.6602 30.0667V35.5333C73.6602 36.6207 74.0921 37.6636 74.861 38.4325C75.6299 39.2014 76.6728 39.6333 77.7602 39.6333H82.8442C83.3539 41.3796 84.0503 43.0657 84.9215 44.6627L81.3408 48.2707C80.573 49.0394 80.1418 50.0815 80.1418 51.168C80.1418 52.2545 80.573 53.2966 81.3408 54.0653L85.1948 57.9193C85.9737 58.6677 87.012 59.0856 88.0922 59.0856C89.1723 59.0856 90.2106 58.6677 90.9895 57.9193L94.5975 54.3387C96.1944 55.2098 97.8806 55.9063 99.6268 56.416V61.5C99.6268 62.5874 100.059 63.6302 100.828 64.3991C101.597 65.168 102.639 65.6 103.727 65.6H109.193C110.281 65.6 111.324 65.168 112.093 64.3991C112.862 63.6302 113.293 62.5874 113.293 61.5V56.416C115.04 55.9063 116.726 55.2098 118.323 54.3387L121.931 57.9193C122.31 58.3028 122.761 58.6072 123.258 58.815C123.755 59.0228 124.289 59.1298 124.828 59.1298C125.367 59.1298 125.901 59.0228 126.398 58.815C126.896 58.6072 127.347 58.3028 127.725 57.9193L131.579 54.0653C132.347 53.2966 132.779 52.2545 132.779 51.168C132.779 50.0815 132.347 49.0394 131.579 48.2707L127.999 44.6627C128.87 43.0657 129.566 41.3796 130.076 39.6333H135.16C136.248 39.6333 137.29 39.2014 138.059 38.4325C138.828 37.6636 139.26 36.6207 139.26 35.5333V30.0667C139.26 28.9793 138.828 27.9364 138.059 27.1675C137.29 26.3986 136.248 25.9667 135.16 25.9667ZM106.46 46.4667C103.757 46.4667 101.115 45.6651 98.8674 44.1634C96.6199 42.6617 94.8682 40.5273 93.8338 38.03C92.7994 35.5327 92.5288 32.7848 93.0561 30.1338C93.5834 27.4827 94.885 25.0475 96.7964 23.1362C98.7077 21.2249 101.143 19.9233 103.794 19.3959C106.445 18.8686 109.193 19.1392 111.69 20.1736C114.187 21.208 116.322 22.9597 117.824 25.2072C119.325 27.4547 120.127 30.097 120.127 32.8C120.127 36.4246 118.687 39.9008 116.124 42.4638C113.561 45.0268 110.085 46.4667 106.46 46.4667Z" fill="#6497B3"/>
<defs>
<filter id="filter0_d_12192_20921" x="20.6098" y="24.3834" width="79.5277" height="145.452" filterUnits="userSpaceOnUse" color-interpolation-filters="sRGB">
<feFlood flood-opacity="0" result="BackgroundImageFix"/>
<feColorMatrix in="SourceAlpha" type="matrix" values="0 0 0 0 0 0 0 0 0 0 0 0 0 0 0 0 0 0 127 0" result="hardAlpha"/>
<feOffset dx="-1.55795" dy="3.4275"/>
<feGaussianBlur stdDeviation="2.64852"/>
<feColorMatrix type="matrix" values="0 0 0 0 0 0 0 0 0 0 0 0 0 0 0 0 0 0 0.1 0"/>
<feBlend mode="normal" in2="BackgroundImageFix" result="effect1_dropShadow_12192_20921"/>
<feBlend mode="normal" in="SourceGraphic" in2="effect1_dropShadow_12192_20921" result="shape"/>
</filter>
</defs>
</svg>
